0
SECTION
2
HEADER
9
$ACADVER
1
AC1008
9
$UCSORG
10
0.0
20
0.0
30
0.0
9
$UCSXDIR
10
1.0
20
0.0
30
0.0
9
$TILEMODE
70
1
9
$UCSYDIR
10
0.0
20
1.0
30
0.0
9
$EXTMIN
10
-37.368607
20
-67.195618
30
-109.725052
9
$EXTMAX
10
246.911224
20
83.490280
30
38.840168
0
ENDSEC
0
SECTION
2
TABLES
0
TABLE
2
LTYPE
70
1
0
LTYPE
2
CONTINUOUS
70
64
3
Solid line
72
65
73
0
40
0.0
0
ENDTAB
0
TABLE
2
LAYER
70
2
0
LAYER
2
BODY_BOT2
70
0
62
10
6
CONTINUOUS
0
LAYER
2
BODY_BOT3
70
0
62
11
6
CONTINUOUS
0
LAYER
2
0
70
0
62
7
6
CONTINUOUS
0
ENDTAB
0
TABLE
2
STYLE
70
1
0
STYLE
2
STANDARD
70
0
40
0.0
41
1.0
50
0.0
71
0
42
0.2
3
txt
4

0
ENDTAB
0
TABLE
2
UCS
70
0
0
ENDTAB
0
ENDSEC
0
SECTION
2
ENTITIES
0
POLYLINE
8
BODY_BOT2
66
1
70
64
71
16
72
28
0
VERTEX
8
BODY_BOT2
10
125.934906
20
8.540177
30
-4.667091
70
192
0
VERTEX
8
BODY_BOT2
10
125.934906
20
-46.939827
30
-4.667088
70
192
0
VERTEX
8
BODY_BOT2
10
130.110001
20
-42.559822
30
-20.112751
70
192
0
VERTEX
8
BODY_BOT2
10
131.675659
20
-31.536827
30
-25.904881
70
192
0
VERTEX
8
BODY_BOT2
10
135.850754
20
-25.368328
30
-41.350533
70
192
0
VERTEX
8
BODY_BOT2
10
135.850754
20
-13.031325
30
-41.350540
70
192
0
VERTEX
8
BODY_BOT2
10
131.675659
20
-6.862826
30
-25.904881
70
192
0
VERTEX
8
BODY_BOT2
10
130.110001
20
4.160176
30
-20.112755
70
192
0
VERTEX
8
BODY_BOT2
10
173.147873
20
8.540181
30
-4.666985
70
192
0
VERTEX
8
BODY_BOT2
10
173.147873
20
-46.939827
30
-4.666981
70
192
0
VERTEX
8
BODY_BOT2
10
169.077545
20
-42.559822
30
-20.140587
70
192
0
VERTEX
8
BODY_BOT2
10
167.551163
20
-31.536823
30
-25.943192
70
192
0
VERTEX
8
BODY_BOT2
10
163.480850
20
-25.368324
30
-41.416786
70
192
0
VERTEX
8
BODY_BOT2
10
163.480850
20
-13.031325
30
-41.416786
70
192
0
VERTEX
8
BODY_BOT2
10
167.551163
20
-6.862823
30
-25.943192
70
192
0
VERTEX
8
BODY_BOT2
10
169.077530
20
4.160178
30
-20.140591
70
192
0
VERTEX
8
BODY_BOT2
10
0
20
0
30
0
70
128
71
3
72
2
73
-1
0
VERTEX
8
BODY_BOT2
10
0
20
0
30
0
70
128
71
4
72
-3
73
-1
0
VERTEX
8
BODY_BOT2
10
0
20
0
30
0
70
128
71
-4
72
1
73
-8
0
VERTEX
8
BODY_BOT2
10
0
20
0
30
0
70
128
71
-4
72
8
73
-7
0
VERTEX
8
BODY_BOT2
10
0
20
0
30
0
70
128
71
-4
72
7
73
-6
0
VERTEX
8
BODY_BOT2
10
0
20
0
30
0
70
128
71
5
72
-4
73
6
0
VERTEX
8
BODY_BOT2
10
0
20
0
30
0
70
128
71
1
72
2
73
-10
0
VERTEX
8
BODY_BOT2
10
0
20
0
30
0
70
128
71
-1
72
10
73
9
0
VERTEX
8
BODY_BOT2
10
0
20
0
30
0
70
128
71
2
72
3
73
-11
0
VERTEX
8
BODY_BOT2
10
0
20
0
30
0
70
128
71
-2
72
11
73
10
0
VERTEX
8
BODY_BOT2
10
0
20
0
30
0
70
128
71
3
72
4
73
-12
0
VERTEX
8
BODY_BOT2
10
0
20
0
30
0
70
128
71
-3
72
12
73
11
0
VERTEX
8
BODY_BOT2
10
0
20
0
30
0
70
128
71
4
72
5
73
-13
0
VERTEX
8
BODY_BOT2
10
0
20
0
30
0
70
128
71
-4
72
13
73
12
0
VERTEX
8
BODY_BOT2
10
0
20
0
30
0
70
128
71
5
72
6
73
-14
0
VERTEX
8
BODY_BOT2
10
0
20
0
30
0
70
128
71
-5
72
14
73
13
0
VERTEX
8
BODY_BOT2
10
0
20
0
30
0
70
128
71
6
72
7
73
-15
0
VERTEX
8
BODY_BOT2
10
0
20
0
30
0
70
128
71
-6
72
15
73
14
0
VERTEX
8
BODY_BOT2
10
0
20
0
30
0
70
128
71
7
72
8
73
-16
0
VERTEX
8
BODY_BOT2
10
0
20
0
30
0
70
128
71
-7
72
16
73
15
0
VERTEX
8
BODY_BOT2
10
0
20
0
30
0
70
128
71
8
72
1
73
-9
0
VERTEX
8
BODY_BOT2
10
0
20
0
30
0
70
128
71
-8
72
9
73
16
0
VERTEX
8
BODY_BOT2
10
0
20
0
30
0
70
128
71
9
72
10
73
-11
0
VERTEX
8
BODY_BOT2
10
0
20
0
30
0
70
128
71
-9
72
11
73
-12
0
VERTEX
8
BODY_BOT2
10
0
20
0
30
0
70
128
71
16
72
-9
73
-12
0
VERTEX
8
BODY_BOT2
10
0
20
0
30
0
70
128
71
15
72
-16
73
-12
0
VERTEX
8
BODY_BOT2
10
0
20
0
30
0
70
128
71
14
72
-15
73
-12
0
VERTEX
8
BODY_BOT2
10
0
20
0
30
0
70
128
71
-14
72
12
73
13
0
SEQEND
8
BODY_BOT2
0
POLYLINE
8
BODY_BOT3
66
1
70
64
71
16
72
28
0
VERTEX
8
BODY_BOT3
10
166.885239
20
83.490280
30
-4.667091
70
192
0
VERTEX
8
BODY_BOT3
10
166.885239
20
28.010273
30
-4.667088
70
192
0
VERTEX
8
BODY_BOT3
10
173.962021
20
32.390278
30
-20.112751
70
192
0
VERTEX
8
BODY_BOT3
10
176.615814
20
43.413273
30
-25.904881
70
192
0
VERTEX
8
BODY_BOT3
10
183.692596
20
49.581772
30
-41.350533
70
192
0
VERTEX
8
BODY_BOT3
10
183.692596
20
61.918774
30
-41.350540
70
192
0
VERTEX
8
BODY_BOT3
10
176.615814
20
68.087273
30
-25.904881
70
192
0
VERTEX
8
BODY_BOT3
10
173.962021
20
79.110275
30
-20.112755
70
192
0
VERTEX
8
BODY_BOT3
10
246.911224
20
83.490280
30
-4.666985
70
192
0
VERTEX
8
BODY_BOT3
10
246.911224
20
28.010273
30
-4.666981
70
192
0
VERTEX
8
BODY_BOT3
10
240.012009
20
32.390278
30
-20.140587
70
192
0
VERTEX
8
BODY_BOT3
10
237.424789
20
43.413277
30
-25.943192
70
192
0
VERTEX
8
BODY_BOT3
10
230.525620
20
49.581776
30
-41.416786
70
192
0
VERTEX
8
BODY_BOT3
10
230.525620
20
61.918774
30
-41.416786
70
192
0
VERTEX
8
BODY_BOT3
10
237.424789
20
68.087280
30
-25.943192
70
192
0
VERTEX
8
BODY_BOT3
10
240.011993
20
79.110275
30
-20.140591
70
192
0
VERTEX
8
BODY_BOT3
10
0
20
0
30
0
70
128
71
3
72
2
73
-1
0
VERTEX
8
BODY_BOT3
10
0
20
0
30
0
70
128
71
4
72
-3
73
-1
0
VERTEX
8
BODY_BOT3
10
0
20
0
30
0
70
128
71
-4
72
1
73
-8
0
VERTEX
8
BODY_BOT3
10
0
20
0
30
0
70
128
71
-4
72
8
73
-7
0
VERTEX
8
BODY_BOT3
10
0
20
0
30
0
70
128
71
-4
72
7
73
-6
0
VERTEX
8
BODY_BOT3
10
0
20
0
30
0
70
128
71
5
72
-4
73
6
0
VERTEX
8
BODY_BOT3
10
0
20
0
30
0
70
128
71
1
72
2
73
-10
0
VERTEX
8
BODY_BOT3
10
0
20
0
30
0
70
128
71
-1
72
10
73
9
0
VERTEX
8
BODY_BOT3
10
0
20
0
30
0
70
128
71
2
72
3
73
-11
0
VERTEX
8
BODY_BOT3
10
0
20
0
30
0
70
128
71
-2
72
11
73
10
0
VERTEX
8
BODY_BOT3
10
0
20
0
30
0
70
128
71
3
72
4
73
-12
0
VERTEX
8
BODY_BOT3
10
0
20
0
30
0
70
128
71
-3
72
12
73
11
0
VERTEX
8
BODY_BOT3
10
0
20
0
30
0
70
128
71
4
72
5
73
-13
0
VERTEX
8
BODY_BOT3
10
0
20
0
30
0
70
128
71
-4
72
13
73
12
0
VERTEX
8
BODY_BOT3
10
0
20
0
30
0
70
128
71
5
72
6
73
-14
0
VERTEX
8
BODY_BOT3
10
0
20
0
30
0
70
128
71
-5
72
14
73
13
0
VERTEX
8
BODY_BOT3
10
0
20
0
30
0
70
128
71
6
72
7
73
-15
0
VERTEX
8
BODY_BOT3
10
0
20
0
30
0
70
128
71
-6
72
15
73
14
0
VERTEX
8
BODY_BOT3
10
0
20
0
30
0
70
128
71
7
72
8
73
-16
0
VERTEX
8
BODY_BOT3
10
0
20
0
30
0
70
128
71
-7
72
16
73
15
0
VERTEX
8
BODY_BOT3
10
0
20
0
30
0
70
128
71
8
72
1
73
-9
0
VERTEX
8
BODY_BOT3
10
0
20
0
30
0
70
128
71
-8
72
9
73
16
0
VERTEX
8
BODY_BOT3
10
0
20
0
30
0
70
128
71
9
72
10
73
-11
0
VERTEX
8
BODY_BOT3
10
0
20
0
30
0
70
128
71
-9
72
11
73
-12
0
VERTEX
8
BODY_BOT3
10
0
20
0
30
0
70
128
71
16
72
-9
73
-12
0
VERTEX
8
BODY_BOT3
10
0
20
0
30
0
70
128
71
15
72
-16
73
-12
0
VERTEX
8
BODY_BOT3
10
0
20
0
30
0
70
128
71
14
72
-15
73
-12
0
VERTEX
8
BODY_BOT3
10
0
20
0
30
0
70
128
71
-14
72
12
73
13
0
SEQEND
8
BODY_BOT3
0
ENDSEC
0
EOF
