0
SECTION
2
HEADER
9
$ACADVER
1
AC1008
9
$UCSORG
10
0.0
20
0.0
30
0.0
9
$UCSXDIR
10
1.0
20
0.0
30
0.0
9
$TILEMODE
70
1
9
$UCSYDIR
10
0.0
20
1.0
30
0.0
9
$EXTMIN
10
-250.000000
20
-0.000010
30
-10.156700
9
$EXTMAX
10
425.689331
20
0.000010
30
209.843292
0
ENDSEC
0
SECTION
2
TABLES
0
TABLE
2
LTYPE
70
1
0
LTYPE
2
CONTINUOUS
70
64
3
Solid line
72
65
73
0
40
0.0
0
ENDTAB
0
TABLE
2
LAYER
70
3
0
LAYER
2
OBJECT2
70
0
62
1
6
CONTINUOUS
0
LAYER
2
OBJECT1
70
0
62
2
6
CONTINUOUS
0
LAYER
2
OBJECT3
70
0
62
3
6
CONTINUOUS
0
LAYER
2
0
70
0
62
7
6
CONTINUOUS
0
ENDTAB
0
TABLE
2
STYLE
70
1
0
STYLE
2
STANDARD
70
0
40
0.0
41
1.0
50
0.0
71
0
42
0.2
3
txt
4

0
ENDTAB
0
TABLE
2
UCS
70
0
0
ENDTAB
0
ENDSEC
0
SECTION
2
ENTITIES
0
POLYLINE
8
OBJECT2
66
1
70
64
71
14
72
14
0
VERTEX
8
OBJECT2
10
51.991829
20
0.000008
30
187.980927
70
192
0
VERTEX
8
OBJECT2
10
121.991829
20
0.000007
30
177.980927
70
192
0
VERTEX
8
OBJECT2
10
121.991829
20
-0.000000
30
87.980927
70
192
0
VERTEX
8
OBJECT2
10
141.991821
20
-0.000008
30
-2.019073
70
192
0
VERTEX
8
OBJECT2
10
71.991829
20
-0.000008
30
-2.019073
70
192
0
VERTEX
8
OBJECT2
10
31.991829
20
-0.000006
30
27.980927
70
192
0
VERTEX
8
OBJECT2
10
11.991829
20
-0.000002
30
67.980927
70
192
0
VERTEX
8
OBJECT2
10
11.991829
20
0.000003
30
127.980927
70
192
0
VERTEX
8
OBJECT2
10
61.991829
20
-0.000000
30
87.980927
70
192
0
VERTEX
8
OBJECT2
10
61.991829
20
0.000004
30
137.980927
70
192
0
VERTEX
8
OBJECT2
10
21.991829
20
0.000006
30
157.980927
70
192
0
VERTEX
8
OBJECT2
10
91.991829
20
-0.000003
30
57.980927
70
192
0
VERTEX
8
OBJECT2
10
71.991829
20
-0.000007
30
17.980927
70
192
0
VERTEX
8
OBJECT2
10
111.991829
20
-0.000007
30
17.980927
70
192
0
VERTEX
8
OBJECT2
10
0
20
0
30
0
70
128
71
9
72
8
73
-7
0
VERTEX
8
OBJECT2
10
0
20
0
30
0
70
128
71
2
72
-1
73
-12
0
VERTEX
8
OBJECT2
10
0
20
0
30
0
70
128
71
3
72
-2
73
-12
0
VERTEX
8
OBJECT2
10
0
20
0
30
0
70
128
71
4
72
-3
73
-12
0
VERTEX
8
OBJECT2
10
0
20
0
30
0
70
128
71
-4
72
12
73
-14
0
VERTEX
8
OBJECT2
10
0
20
0
30
0
70
128
71
5
72
-4
73
-14
0
VERTEX
8
OBJECT2
10
0
20
0
30
0
70
128
71
-5
72
14
73
-13
0
VERTEX
8
OBJECT2
10
0
20
0
30
0
70
128
71
6
72
-5
73
-13
0
VERTEX
8
OBJECT2
10
0
20
0
30
0
70
128
71
1
72
11
73
-10
0
VERTEX
8
OBJECT2
10
0
20
0
30
0
70
128
71
-12
72
-1
73
-10
0
VERTEX
8
OBJECT2
10
0
20
0
30
0
70
128
71
-12
72
10
73
-9
0
VERTEX
8
OBJECT2
10
0
20
0
30
0
70
128
71
-9
72
7
73
-6
0
VERTEX
8
OBJECT2
10
0
20
0
30
0
70
128
71
-12
72
-9
73
-6
0
VERTEX
8
OBJECT2
10
0
20
0
30
0
70
128
71
13
72
-12
73
-6
0
SEQEND
8
OBJECT2
0
POLYLINE
8
OBJECT1
66
1
70
64
71
9
72
7
0
VERTEX
8
OBJECT1
10
-130.000000
20
0.000008
30
200.000000
70
192
0
VERTEX
8
OBJECT1
10
-130.000000
20
0.000003
30
140.000000
70
192
0
VERTEX
8
OBJECT1
10
-60.000000
20
0.000002
30
130.000000
70
192
0
VERTEX
8
OBJECT1
10
-110.000000
20
-0.000003
30
80.000000
70
192
0
VERTEX
8
OBJECT1
10
-80.000000
20
-0.000008
30
20.000000
70
192
0
VERTEX
8
OBJECT1
10
-250.000000
20
-0.000003
30
80.000000
70
192
0
VERTEX
8
OBJECT1
10
-220.000000
20
0.000003
30
150.000000
70
192
0
VERTEX
8
OBJECT1
10
-190.000000
20
0.000001
30
120.000000
70
192
0
VERTEX
8
OBJECT1
10
-170.000000
20
0.000006
30
180.000000
70
192
0
VERTEX
8
OBJECT1
10
0
20
0
30
0
70
128
71
6
72
5
73
-4
0
VERTEX
8
OBJECT1
10
0
20
0
30
0
70
128
71
4
72
3
73
-2
0
VERTEX
8
OBJECT1
10
0
20
0
30
0
70
128
71
2
72
1
73
-9
0
VERTEX
8
OBJECT1
10
0
20
0
30
0
70
128
71
-2
72
9
73
-8
0
VERTEX
8
OBJECT1
10
0
20
0
30
0
70
128
71
8
72
7
73
-6
0
VERTEX
8
OBJECT1
10
0
20
0
30
0
70
128
71
-8
72
-6
73
-4
0
VERTEX
8
OBJECT1
10
0
20
0
30
0
70
128
71
-8
72
-4
73
-2
0
SEQEND
8
OBJECT1
0
POLYLINE
8
OBJECT3
66
1
70
64
71
8
72
6
0
VERTEX
8
OBJECT3
10
425.689331
20
0.000000
30
99.843300
70
192
0
VERTEX
8
OBJECT3
10
336.301483
20
-0.000002
30
79.231133
70
192
0
VERTEX
8
OBJECT3
10
315.689331
20
-0.000010
30
-10.156700
70
192
0
VERTEX
8
OBJECT3
10
295.077179
20
-0.000002
30
79.231133
70
192
0
VERTEX
8
OBJECT3
10
205.689331
20
-0.000000
30
99.843285
70
192
0
VERTEX
8
OBJECT3
10
295.077179
20
0.000002
30
120.455460
70
192
0
VERTEX
8
OBJECT3
10
315.689331
20
0.000010
30
209.843292
70
192
0
VERTEX
8
OBJECT3
10
336.301483
20
0.000002
30
120.455460
70
192
0
VERTEX
8
OBJECT3
10
0
20
0
30
0
70
128
71
4
72
3
73
-2
0
VERTEX
8
OBJECT3
10
0
20
0
30
0
70
128
71
8
72
7
73
-6
0
VERTEX
8
OBJECT3
10
0
20
0
30
0
70
128
71
6
72
5
73
-4
0
VERTEX
8
OBJECT3
10
0
20
0
30
0
70
128
71
2
72
1
73
-8
0
VERTEX
8
OBJECT3
10
0
20
0
30
0
70
128
71
-8
72
-6
73
-4
0
VERTEX
8
OBJECT3
10
0
20
0
30
0
70
128
71
-2
72
-8
73
-4
0
SEQEND
8
OBJECT3
0
ENDSEC
0
EOF
