0
SECTION
2
HEADER
9
$ACADVER
1
AC1008
9
$UCSORG
10
0.0
20
0.0
30
0.0
9
$UCSXDIR
10
1.0
20
0.0
30
0.0
9
$TILEMODE
70
1
9
$UCSYDIR
10
0.0
20
1.0
30
0.0
9
$EXTMIN
10
-37.368607
20
-67.195618
30
-109.725052
9
$EXTMAX
10
118.572334
20
78.824417
30
38.840168
0
ENDSEC
0
SECTION
2
TABLES
0
TABLE
2
LTYPE
70
1
0
LTYPE
2
CONTINUOUS
70
64
3
Solid line
72
65
73
0
40
0.0
0
ENDTAB
0
TABLE
2
LAYER
70
2
0
LAYER
2
LOWER_BODY
70
0
62
1
6
CONTINUOUS
0
LAYER
2
UPPERBODY
70
0
62
3
6
CONTINUOUS
0
LAYER
2
0
70
0
62
7
6
CONTINUOUS
0
ENDTAB
0
TABLE
2
STYLE
70
1
0
STYLE
2
STANDARD
70
0
40
0.0
41
1.0
50
0.0
71
0
42
0.2
3
txt
4

0
ENDTAB
0
TABLE
2
UCS
70
0
0
ENDTAB
0
ENDSEC
0
SECTION
2
ENTITIES
0
POLYLINE
8
LOWER_BODY
66
1
70
64
71
84
72
140
0
VERTEX
8
LOWER_BODY
10
17.487438
20
-37.828526
30
-4.396046
70
192
0
VERTEX
8
LOWER_BODY
10
17.487444
20
17.651478
30
-4.396044
70
192
0
VERTEX
8
LOWER_BODY
10
13.312342
20
13.271477
30
-19.841713
70
192
0
VERTEX
8
LOWER_BODY
10
11.746683
20
2.248479
30
-25.633841
70
192
0
VERTEX
8
LOWER_BODY
10
7.571589
20
-3.920022
30
-41.079491
70
192
0
VERTEX
8
LOWER_BODY
10
7.571589
20
-16.257023
30
-41.079491
70
192
0
VERTEX
8
LOWER_BODY
10
11.746684
20
-22.425529
30
-25.633839
70
192
0
VERTEX
8
LOWER_BODY
10
13.312343
20
-33.448521
30
-19.841707
70
192
0
VERTEX
8
LOWER_BODY
10
1.744541
20
-37.828526
30
-4.393970
70
192
0
VERTEX
8
LOWER_BODY
10
1.744547
20
17.651480
30
-4.393970
70
192
0
VERTEX
8
LOWER_BODY
10
1.718332
20
13.271475
30
-20.393951
70
192
0
VERTEX
8
LOWER_BODY
10
1.708490
20
2.248474
30
-26.393946
70
192
0
VERTEX
8
LOWER_BODY
10
1.682276
20
-3.920022
30
-42.393913
70
192
0
VERTEX
8
LOWER_BODY
10
1.682281
20
-16.257025
30
-42.393913
70
192
0
VERTEX
8
LOWER_BODY
10
1.708491
20
-22.425529
30
-26.393944
70
192
0
VERTEX
8
LOWER_BODY
10
1.718318
20
-33.448524
30
-20.393946
70
192
0
VERTEX
8
LOWER_BODY
10
-13.982926
20
-37.828529
30
-4.393970
70
192
0
VERTEX
8
LOWER_BODY
10
-13.982920
20
17.651478
30
-4.393970
70
192
0
VERTEX
8
LOWER_BODY
10
-13.982924
20
13.271477
30
-20.393970
70
192
0
VERTEX
8
LOWER_BODY
10
-13.982930
20
2.248477
30
-26.393976
70
192
0
VERTEX
8
LOWER_BODY
10
-13.982935
20
-3.920024
30
-42.393967
70
192
0
VERTEX
8
LOWER_BODY
10
-13.982938
20
-16.257027
30
-42.393963
70
192
0
VERTEX
8
LOWER_BODY
10
-13.982930
20
-22.425524
30
-26.393974
70
192
0
VERTEX
8
LOWER_BODY
10
-13.982930
20
-33.448524
30
-20.393969
70
192
0
VERTEX
8
LOWER_BODY
10
-29.725525
20
-37.828529
30
-4.395940
70
192
0
VERTEX
8
LOWER_BODY
10
-29.725519
20
17.651478
30
-4.395940
70
192
0
VERTEX
8
LOWER_BODY
10
-25.655188
20
13.271475
30
-19.869545
70
192
0
VERTEX
8
LOWER_BODY
10
-24.128817
20
2.248476
30
-25.672152
70
192
0
VERTEX
8
LOWER_BODY
10
-20.058487
20
-3.920024
30
-41.145744
70
192
0
VERTEX
8
LOWER_BODY
10
-20.058493
20
-16.257027
30
-41.145741
70
192
0
VERTEX
8
LOWER_BODY
10
-24.128820
20
-22.425524
30
-25.672150
70
192
0
VERTEX
8
LOWER_BODY
10
-25.655193
20
-33.448524
30
-19.869541
70
192
0
VERTEX
8
LOWER_BODY
10
-18.435688
20
19.349867
30
-31.121769
70
192
0
VERTEX
8
LOWER_BODY
10
-3.773821
20
19.349867
30
-20.185675
70
192
0
VERTEX
8
LOWER_BODY
10
6.820138
20
19.349867
30
-26.424538
70
192
0
VERTEX
8
LOWER_BODY
10
-10.733597
20
19.349861
30
-68.682976
70
192
0
VERTEX
8
LOWER_BODY
10
-25.019522
20
19.349854
30
-62.104603
70
192
0
VERTEX
8
LOWER_BODY
10
-14.668742
20
2.460114
30
-37.646305
70
192
0
VERTEX
8
LOWER_BODY
10
-0.006874
20
2.460116
30
-26.710207
70
192
0
VERTEX
8
LOWER_BODY
10
6.820139
20
2.460116
30
-26.424538
70
192
0
VERTEX
8
LOWER_BODY
10
-10.733597
20
2.460112
30
-68.682976
70
192
0
VERTEX
8
LOWER_BODY
10
-25.019522
20
2.460112
30
-62.104603
70
192
0
VERTEX
8
LOWER_BODY
10
-10.796187
20
19.359478
30
-68.939720
70
192
0
VERTEX
8
LOWER_BODY
10
1.314218
20
16.839630
30
-101.039680
70
192
0
VERTEX
8
LOWER_BODY
10
-7.768584
20
16.839630
30
-101.039680
70
192
0
VERTEX
8
LOWER_BODY
10
-28.961777
20
19.359478
30
-64.659721
70
192
0
VERTEX
8
LOWER_BODY
10
-10.796187
20
2.469704
30
-68.939720
70
192
0
VERTEX
8
LOWER_BODY
10
1.314218
20
5.016805
30
-101.039680
70
192
0
VERTEX
8
LOWER_BODY
10
-7.768584
20
5.016805
30
-101.039680
70
192
0
VERTEX
8
LOWER_BODY
10
-28.961777
20
2.469723
30
-64.659721
70
192
0
VERTEX
8
LOWER_BODY
10
9.580010
20
7.269086
30
-101.177650
70
192
0
VERTEX
8
LOWER_BODY
10
9.580010
20
14.904175
30
-101.177650
70
192
0
VERTEX
8
LOWER_BODY
10
-9.342319
20
21.747887
30
-101.177650
70
192
0
VERTEX
8
LOWER_BODY
10
-9.286853
20
-0.365998
30
-101.177658
70
192
0
VERTEX
8
LOWER_BODY
10
21.347080
20
3.622705
30
-109.725044
70
192
0
VERTEX
8
LOWER_BODY
10
21.347080
20
17.759186
30
-109.725044
70
192
0
VERTEX
8
LOWER_BODY
10
-13.444950
20
27.203981
30
-109.725052
70
192
0
VERTEX
8
LOWER_BODY
10
-13.444950
20
-5.766685
30
-109.725052
70
192
0
VERTEX
8
LOWER_BODY
10
-18.435686
20
-39.401291
30
-31.121771
70
192
0
VERTEX
8
LOWER_BODY
10
-3.773817
20
-39.401291
30
-20.185677
70
192
0
VERTEX
8
LOWER_BODY
10
6.820141
20
-39.401291
30
-26.424541
70
192
0
VERTEX
8
LOWER_BODY
10
-10.733595
20
-39.401283
30
-68.682983
70
192
0
VERTEX
8
LOWER_BODY
10
-25.019520
20
-39.401283
30
-62.104607
70
192
0
VERTEX
8
LOWER_BODY
10
-14.668740
20
-22.511539
30
-37.646305
70
192
0
VERTEX
8
LOWER_BODY
10
-0.006873
20
-22.511539
30
-26.710213
70
192
0
VERTEX
8
LOWER_BODY
10
6.820141
20
-22.511541
30
-26.424541
70
192
0
VERTEX
8
LOWER_BODY
10
-10.733595
20
-22.511536
30
-68.682983
70
192
0
VERTEX
8
LOWER_BODY
10
-25.019520
20
-22.511536
30
-62.104607
70
192
0
VERTEX
8
LOWER_BODY
10
-10.796187
20
-39.410900
30
-68.939720
70
192
0
VERTEX
8
LOWER_BODY
10
1.314218
20
-36.891052
30
-101.039680
70
192
0
VERTEX
8
LOWER_BODY
10
-7.768584
20
-36.891052
30
-101.039680
70
192
0
VERTEX
8
LOWER_BODY
10
-28.961777
20
-39.410900
30
-64.659721
70
192
0
VERTEX
8
LOWER_BODY
10
-10.796187
20
-22.521128
30
-68.939720
70
192
0
VERTEX
8
LOWER_BODY
10
1.314218
20
-25.068228
30
-101.039680
70
192
0
VERTEX
8
LOWER_BODY
10
-7.768584
20
-25.068228
30
-101.039680
70
192
0
VERTEX
8
LOWER_BODY
10
-28.961777
20
-22.521145
30
-64.659721
70
192
0
VERTEX
8
LOWER_BODY
10
9.580010
20
-27.320509
30
-101.177650
70
192
0
VERTEX
8
LOWER_BODY
10
9.580010
20
-34.955597
30
-101.177650
70
192
0
VERTEX
8
LOWER_BODY
10
-9.342319
20
-41.799309
30
-101.177650
70
192
0
VERTEX
8
LOWER_BODY
10
-9.286853
20
-19.685425
30
-101.177658
70
192
0
VERTEX
8
LOWER_BODY
10
21.347080
20
-23.674128
30
-109.725044
70
192
0
VERTEX
8
LOWER_BODY
10
21.347080
20
-37.810608
30
-109.725044
70
192
0
VERTEX
8
LOWER_BODY
10
-13.444950
20
-47.255402
30
-109.725052
70
192
0
VERTEX
8
LOWER_BODY
10
-13.444950
20
-14.284737
30
-109.725052
70
192
0
VERTEX
8
LOWER_BODY
10
0
20
0
30
0
70
128
71
3
72
2
73
-1
0
VERTEX
8
LOWER_BODY
10
0
20
0
30
0
70
128
71
4
72
-3
73
-1
0
VERTEX
8
LOWER_BODY
10
0
20
0
30
0
70
128
71
-4
72
1
73
-8
0
VERTEX
8
LOWER_BODY
10
0
20
0
30
0
70
128
71
-4
72
8
73
-7
0
VERTEX
8
LOWER_BODY
10
0
20
0
30
0
70
128
71
-4
72
7
73
-6
0
VERTEX
8
LOWER_BODY
10
0
20
0
30
0
70
128
71
5
72
-4
73
6
0
VERTEX
8
LOWER_BODY
10
0
20
0
30
0
70
128
71
1
72
2
73
-10
0
VERTEX
8
LOWER_BODY
10
0
20
0
30
0
70
128
71
-1
72
10
73
9
0
VERTEX
8
LOWER_BODY
10
0
20
0
30
0
70
128
71
2
72
3
73
-11
0
VERTEX
8
LOWER_BODY
10
0
20
0
30
0
70
128
71
-2
72
11
73
10
0
VERTEX
8
LOWER_BODY
10
0
20
0
30
0
70
128
71
3
72
4
73
-12
0
VERTEX
8
LOWER_BODY
10
0
20
0
30
0
70
128
71
-3
72
12
73
11
0
VERTEX
8
LOWER_BODY
10
0
20
0
30
0
70
128
71
4
72
5
73
-13
0
VERTEX
8
LOWER_BODY
10
0
20
0
30
0
70
128
71
-4
72
13
73
12
0
VERTEX
8
LOWER_BODY
10
0
20
0
30
0
70
128
71
5
72
6
73
-14
0
VERTEX
8
LOWER_BODY
10
0
20
0
30
0
70
128
71
-5
72
14
73
13
0
VERTEX
8
LOWER_BODY
10
0
20
0
30
0
70
128
71
6
72
7
73
-15
0
VERTEX
8
LOWER_BODY
10
0
20
0
30
0
70
128
71
-6
72
15
73
14
0
VERTEX
8
LOWER_BODY
10
0
20
0
30
0
70
128
71
7
72
8
73
-16
0
VERTEX
8
LOWER_BODY
10
0
20
0
30
0
70
128
71
-7
72
16
73
15
0
VERTEX
8
LOWER_BODY
10
0
20
0
30
0
70
128
71
8
72
1
73
-9
0
VERTEX
8
LOWER_BODY
10
0
20
0
30
0
70
128
71
-8
72
9
73
16
0
VERTEX
8
LOWER_BODY
10
0
20
0
30
0
70
128
71
9
72
10
73
-18
0
VERTEX
8
LOWER_BODY
10
0
20
0
30
0
70
128
71
-9
72
18
73
17
0
VERTEX
8
LOWER_BODY
10
0
20
0
30
0
70
128
71
10
72
11
73
-19
0
VERTEX
8
LOWER_BODY
10
0
20
0
30
0
70
128
71
-10
72
19
73
18
0
VERTEX
8
LOWER_BODY
10
0
20
0
30
0
70
128
71
11
72
12
73
-20
0
VERTEX
8
LOWER_BODY
10
0
20
0
30
0
70
128
71
-11
72
20
73
19
0
VERTEX
8
LOWER_BODY
10
0
20
0
30
0
70
128
71
12
72
13
73
-21
0
VERTEX
8
LOWER_BODY
10
0
20
0
30
0
70
128
71
-12
72
21
73
20
0
VERTEX
8
LOWER_BODY
10
0
20
0
30
0
70
128
71
13
72
14
73
-22
0
VERTEX
8
LOWER_BODY
10
0
20
0
30
0
70
128
71
-13
72
22
73
21
0
VERTEX
8
LOWER_BODY
10
0
20
0
30
0
70
128
71
14
72
15
73
-23
0
VERTEX
8
LOWER_BODY
10
0
20
0
30
0
70
128
71
-14
72
23
73
22
0
VERTEX
8
LOWER_BODY
10
0
20
0
30
0
70
128
71
15
72
16
73
-24
0
VERTEX
8
LOWER_BODY
10
0
20
0
30
0
70
128
71
-15
72
24
73
23
0
VERTEX
8
LOWER_BODY
10
0
20
0
30
0
70
128
71
16
72
9
73
-17
0
VERTEX
8
LOWER_BODY
10
0
20
0
30
0
70
128
71
-16
72
17
73
24
0
VERTEX
8
LOWER_BODY
10
0
20
0
30
0
70
128
71
17
72
18
73
-26
0
VERTEX
8
LOWER_BODY
10
0
20
0
30
0
70
128
71
-17
72
26
73
25
0
VERTEX
8
LOWER_BODY
10
0
20
0
30
0
70
128
71
18
72
19
73
-27
0
VERTEX
8
LOWER_BODY
10
0
20
0
30
0
70
128
71
-18
72
27
73
26
0
VERTEX
8
LOWER_BODY
10
0
20
0
30
0
70
128
71
19
72
20
73
-28
0
VERTEX
8
LOWER_BODY
10
0
20
0
30
0
70
128
71
-19
72
28
73
27
0
VERTEX
8
LOWER_BODY
10
0
20
0
30
0
70
128
71
20
72
21
73
-29
0
VERTEX
8
LOWER_BODY
10
0
20
0
30
0
70
128
71
-20
72
29
73
28
0
VERTEX
8
LOWER_BODY
10
0
20
0
30
0
70
128
71
21
72
22
73
-30
0
VERTEX
8
LOWER_BODY
10
0
20
0
30
0
70
128
71
-21
72
30
73
29
0
VERTEX
8
LOWER_BODY
10
0
20
0
30
0
70
128
71
22
72
23
73
-31
0
VERTEX
8
LOWER_BODY
10
0
20
0
30
0
70
128
71
-22
72
31
73
30
0
VERTEX
8
LOWER_BODY
10
0
20
0
30
0
70
128
71
23
72
24
73
-32
0
VERTEX
8
LOWER_BODY
10
0
20
0
30
0
70
128
71
-23
72
32
73
31
0
VERTEX
8
LOWER_BODY
10
0
20
0
30
0
70
128
71
24
72
17
73
-25
0
VERTEX
8
LOWER_BODY
10
0
20
0
30
0
70
128
71
-24
72
25
73
32
0
VERTEX
8
LOWER_BODY
10
0
20
0
30
0
70
128
71
25
72
26
73
-27
0
VERTEX
8
LOWER_BODY
10
0
20
0
30
0
70
128
71
-25
72
27
73
-28
0
VERTEX
8
LOWER_BODY
10
0
20
0
30
0
70
128
71
32
72
-25
73
-28
0
VERTEX
8
LOWER_BODY
10
0
20
0
30
0
70
128
71
31
72
-32
73
-28
0
VERTEX
8
LOWER_BODY
10
0
20
0
30
0
70
128
71
30
72
-31
73
-28
0
VERTEX
8
LOWER_BODY
10
0
20
0
30
0
70
128
71
-30
72
28
73
29
0
VERTEX
8
LOWER_BODY
10
0
20
0
30
0
70
128
71
35
72
36
73
-37
0
VERTEX
8
LOWER_BODY
10
0
20
0
30
0
70
128
71
-35
72
37
73
-33
0
VERTEX
8
LOWER_BODY
10
0
20
0
30
0
70
128
71
-35
72
33
73
34
0
VERTEX
8
LOWER_BODY
10
0
20
0
30
0
70
128
71
39
72
34
73
-33
0
VERTEX
8
LOWER_BODY
10
0
20
0
30
0
70
128
71
38
72
-39
73
33
0
VERTEX
8
LOWER_BODY
10
0
20
0
30
0
70
128
71
40
72
35
73
-34
0
VERTEX
8
LOWER_BODY
10
0
20
0
30
0
70
128
71
39
72
-40
73
34
0
VERTEX
8
LOWER_BODY
10
0
20
0
30
0
70
128
71
41
72
36
73
-35
0
VERTEX
8
LOWER_BODY
10
0
20
0
30
0
70
128
71
40
72
-41
73
35
0
VERTEX
8
LOWER_BODY
10
0
20
0
30
0
70
128
71
42
72
37
73
-36
0
VERTEX
8
LOWER_BODY
10
0
20
0
30
0
70
128
71
41
72
-42
73
36
0
VERTEX
8
LOWER_BODY
10
0
20
0
30
0
70
128
71
38
72
33
73
-37
0
VERTEX
8
LOWER_BODY
10
0
20
0
30
0
70
128
71
42
72
-38
73
37
0
VERTEX
8
LOWER_BODY
10
0
20
0
30
0
70
128
71
42
72
41
73
-40
0
VERTEX
8
LOWER_BODY
10
0
20
0
30
0
70
128
71
38
72
-42
73
-40
0
VERTEX
8
LOWER_BODY
10
0
20
0
30
0
70
128
71
39
72
-38
73
40
0
VERTEX
8
LOWER_BODY
10
0
20
0
30
0
70
128
71
45
72
46
73
-43
0
VERTEX
8
LOWER_BODY
10
0
20
0
30
0
70
128
71
-45
72
43
73
44
0
VERTEX
8
LOWER_BODY
10
0
20
0
30
0
70
128
71
48
72
44
73
-43
0
VERTEX
8
LOWER_BODY
10
0
20
0
30
0
70
128
71
47
72
-48
73
43
0
VERTEX
8
LOWER_BODY
10
0
20
0
30
0
70
128
71
49
72
45
73
-44
0
VERTEX
8
LOWER_BODY
10
0
20
0
30
0
70
128
71
48
72
-49
73
44
0
VERTEX
8
LOWER_BODY
10
0
20
0
30
0
70
128
71
50
72
46
73
-45
0
VERTEX
8
LOWER_BODY
10
0
20
0
30
0
70
128
71
49
72
-50
73
45
0
VERTEX
8
LOWER_BODY
10
0
20
0
30
0
70
128
71
47
72
43
73
-46
0
VERTEX
8
LOWER_BODY
10
0
20
0
30
0
70
128
71
50
72
-47
73
46
0
VERTEX
8
LOWER_BODY
10
0
20
0
30
0
70
128
71
47
72
50
73
-49
0
VERTEX
8
LOWER_BODY
10
0
20
0
30
0
70
128
71
48
72
-47
73
49
0
VERTEX
8
LOWER_BODY
10
0
20
0
30
0
70
128
71
53
72
54
73
-51
0
VERTEX
8
LOWER_BODY
10
0
20
0
30
0
70
128
71
52
72
-53
73
51
0
VERTEX
8
LOWER_BODY
10
0
20
0
30
0
70
128
71
56
72
52
73
-51
0
VERTEX
8
LOWER_BODY
10
0
20
0
30
0
70
128
71
55
72
-56
73
51
0
VERTEX
8
LOWER_BODY
10
0
20
0
30
0
70
128
71
57
72
53
73
-52
0
VERTEX
8
LOWER_BODY
10
0
20
0
30
0
70
128
71
56
72
-57
73
52
0
VERTEX
8
LOWER_BODY
10
0
20
0
30
0
70
128
71
58
72
54
73
-53
0
VERTEX
8
LOWER_BODY
10
0
20
0
30
0
70
128
71
57
72
-58
73
53
0
VERTEX
8
LOWER_BODY
10
0
20
0
30
0
70
128
71
55
72
51
73
-54
0
VERTEX
8
LOWER_BODY
10
0
20
0
30
0
70
128
71
58
72
-55
73
54
0
VERTEX
8
LOWER_BODY
10
0
20
0
30
0
70
128
71
55
72
58
73
-57
0
VERTEX
8
LOWER_BODY
10
0
20
0
30
0
70
128
71
-55
72
57
73
56
0
VERTEX
8
LOWER_BODY
10
0
20
0
30
0
70
128
71
63
72
62
73
-61
0
VERTEX
8
LOWER_BODY
10
0
20
0
30
0
70
128
71
59
72
-63
73
-61
0
VERTEX
8
LOWER_BODY
10
0
20
0
30
0
70
128
71
60
72
-59
73
61
0
VERTEX
8
LOWER_BODY
10
0
20
0
30
0
70
128
71
59
72
60
73
-65
0
VERTEX
8
LOWER_BODY
10
0
20
0
30
0
70
128
71
-59
72
65
73
64
0
VERTEX
8
LOWER_BODY
10
0
20
0
30
0
70
128
71
60
72
61
73
-66
0
VERTEX
8
LOWER_BODY
10
0
20
0
30
0
70
128
71
-60
72
66
73
65
0
VERTEX
8
LOWER_BODY
10
0
20
0
30
0
70
128
71
61
72
62
73
-67
0
VERTEX
8
LOWER_BODY
10
0
20
0
30
0
70
128
71
-61
72
67
73
66
0
VERTEX
8
LOWER_BODY
10
0
20
0
30
0
70
128
71
62
72
63
73
-68
0
VERTEX
8
LOWER_BODY
10
0
20
0
30
0
70
128
71
-62
72
68
73
67
0
VERTEX
8
LOWER_BODY
10
0
20
0
30
0
70
128
71
63
72
59
73
-64
0
VERTEX
8
LOWER_BODY
10
0
20
0
30
0
70
128
71
-63
72
64
73
68
0
VERTEX
8
LOWER_BODY
10
0
20
0
30
0
70
128
71
66
72
67
73
-68
0
VERTEX
8
LOWER_BODY
10
0
20
0
30
0
70
128
71
-66
72
68
73
-64
0
VERTEX
8
LOWER_BODY
10
0
20
0
30
0
70
128
71
-66
72
64
73
65
0
VERTEX
8
LOWER_BODY
10
0
20
0
30
0
70
128
71
69
72
72
73
-71
0
VERTEX
8
LOWER_BODY
10
0
20
0
30
0
70
128
71
70
72
-69
73
71
0
VERTEX
8
LOWER_BODY
10
0
20
0
30
0
70
128
71
69
72
70
73
-74
0
VERTEX
8
LOWER_BODY
10
0
20
0
30
0
70
128
71
-69
72
74
73
73
0
VERTEX
8
LOWER_BODY
10
0
20
0
30
0
70
128
71
70
72
71
73
-75
0
VERTEX
8
LOWER_BODY
10
0
20
0
30
0
70
128
71
-70
72
75
73
74
0
VERTEX
8
LOWER_BODY
10
0
20
0
30
0
70
128
71
71
72
72
73
-76
0
VERTEX
8
LOWER_BODY
10
0
20
0
30
0
70
128
71
-71
72
76
73
75
0
VERTEX
8
LOWER_BODY
10
0
20
0
30
0
70
128
71
72
72
69
73
-73
0
VERTEX
8
LOWER_BODY
10
0
20
0
30
0
70
128
71
-72
72
73
73
76
0
VERTEX
8
LOWER_BODY
10
0
20
0
30
0
70
128
71
75
72
76
73
-73
0
VERTEX
8
LOWER_BODY
10
0
20
0
30
0
70
128
71
-75
72
73
73
74
0
VERTEX
8
LOWER_BODY
10
0
20
0
30
0
70
128
71
77
72
80
73
-79
0
VERTEX
8
LOWER_BODY
10
0
20
0
30
0
70
128
71
-77
72
79
73
78
0
VERTEX
8
LOWER_BODY
10
0
20
0
30
0
70
128
71
77
72
78
73
-82
0
VERTEX
8
LOWER_BODY
10
0
20
0
30
0
70
128
71
-77
72
82
73
81
0
VERTEX
8
LOWER_BODY
10
0
20
0
30
0
70
128
71
78
72
79
73
-83
0
VERTEX
8
LOWER_BODY
10
0
20
0
30
0
70
128
71
-78
72
83
73
82
0
VERTEX
8
LOWER_BODY
10
0
20
0
30
0
70
128
71
79
72
80
73
-84
0
VERTEX
8
LOWER_BODY
10
0
20
0
30
0
70
128
71
-79
72
84
73
83
0
VERTEX
8
LOWER_BODY
10
0
20
0
30
0
70
128
71
80
72
77
73
-81
0
VERTEX
8
LOWER_BODY
10
0
20
0
30
0
70
128
71
-80
72
81
73
84
0
VERTEX
8
LOWER_BODY
10
0
20
0
30
0
70
128
71
83
72
84
73
-81
0
VERTEX
8
LOWER_BODY
10
0
20
0
30
0
70
128
71
82
72
-83
73
81
0
SEQEND
8
LOWER_BODY
0
POLYLINE
8
UPPERBODY
66
1
70
64
71
172
72
340
0
VERTEX
8
UPPERBODY
10
-1.904005
20
-67.195618
30
-1.648538
70
192
0
VERTEX
8
UPPERBODY
10
1.955835
20
-67.195618
30
5.036898
70
192
0
VERTEX
8
UPPERBODY
10
-5.763844
20
-67.195618
30
5.036900
70
192
0
VERTEX
8
UPPERBODY
10
-1.904001
20
-67.195618
30
11.722337
70
192
0
VERTEX
8
UPPERBODY
10
-9.623678
20
-67.195618
30
11.722342
70
192
0
VERTEX
8
UPPERBODY
10
-13.483522
20
-67.195618
30
5.036907
70
192
0
VERTEX
8
UPPERBODY
10
-9.623692
20
-67.195618
30
-1.648533
70
192
0
VERTEX
8
UPPERBODY
10
1.955835
20
-64.419670
30
5.036898
70
192
0
VERTEX
8
UPPERBODY
10
-1.904005
20
-64.419670
30
-1.648539
70
192
0
VERTEX
8
UPPERBODY
10
-1.904001
20
-64.419670
30
11.722336
70
192
0
VERTEX
8
UPPERBODY
10
-9.623678
20
-64.419670
30
11.722341
70
192
0
VERTEX
8
UPPERBODY
10
-13.483522
20
-64.419670
30
5.036907
70
192
0
VERTEX
8
UPPERBODY
10
-9.623692
20
-64.419670
30
-1.648534
70
192
0
VERTEX
8
UPPERBODY
10
47.791916
20
-54.285389
30
-24.378242
70
192
0
VERTEX
8
UPPERBODY
10
47.791908
20
-50.655621
30
-24.378242
70
192
0
VERTEX
8
UPPERBODY
10
47.791908
20
-50.655632
30
-20.748474
70
192
0
VERTEX
8
UPPERBODY
10
47.791916
20
-54.285400
30
-20.748474
70
192
0
VERTEX
8
UPPERBODY
10
26.824297
20
-50.655624
30
-24.378242
70
192
0
VERTEX
8
UPPERBODY
10
26.427856
20
-54.285393
30
-24.378242
70
192
0
VERTEX
8
UPPERBODY
10
29.244370
20
-50.655636
30
-20.748474
70
192
0
VERTEX
8
UPPERBODY
10
29.244370
20
-50.655636
30
-20.748474
70
192
0
VERTEX
8
UPPERBODY
10
28.847734
20
-54.285404
30
-20.748474
70
192
0
VERTEX
8
UPPERBODY
10
44.767109
20
-60.334995
30
-24.378239
70
192
0
VERTEX
8
UPPERBODY
10
44.767109
20
-56.705227
30
-24.378241
70
192
0
VERTEX
8
UPPERBODY
10
44.767109
20
-56.705238
30
-20.748472
70
192
0
VERTEX
8
UPPERBODY
10
44.767109
20
-60.335007
30
-20.748470
70
192
0
VERTEX
8
UPPERBODY
10
26.163565
20
-56.705231
30
-24.378241
70
192
0
VERTEX
8
UPPERBODY
10
25.767122
20
-60.334999
30
-24.378239
70
192
0
VERTEX
8
UPPERBODY
10
28.583443
20
-56.705242
30
-20.748472
70
192
0
VERTEX
8
UPPERBODY
10
28.583443
20
-56.705246
30
-20.748472
70
192
0
VERTEX
8
UPPERBODY
10
28.186975
20
-60.335011
30
-20.748470
70
192
0
VERTEX
8
UPPERBODY
10
28.583443
20
-56.705242
30
-20.748472
70
192
0
VERTEX
8
UPPERBODY
10
55.353920
20
-54.285378
30
-18.631111
70
192
0
VERTEX
8
UPPERBODY
10
55.353920
20
-50.655609
30
-18.631111
70
192
0
VERTEX
8
UPPERBODY
10
55.353920
20
-50.655609
30
-15.001347
70
192
0
VERTEX
8
UPPERBODY
10
55.353920
20
-54.285378
30
-15.001347
70
192
0
VERTEX
8
UPPERBODY
10
30.656107
20
-50.655613
30
-18.631111
70
192
0
VERTEX
8
UPPERBODY
10
30.259464
20
-54.285381
30
-18.631111
70
192
0
VERTEX
8
UPPERBODY
10
33.076229
20
-50.655613
30
-15.001347
70
192
0
VERTEX
8
UPPERBODY
10
32.679588
20
-54.285381
30
-15.001347
70
192
0
VERTEX
8
UPPERBODY
10
50.514236
20
-60.334988
30
-18.631107
70
192
0
VERTEX
8
UPPERBODY
10
50.514240
20
-56.705219
30
-18.631109
70
192
0
VERTEX
8
UPPERBODY
10
50.514240
20
-56.705219
30
-15.001345
70
192
0
VERTEX
8
UPPERBODY
10
50.514236
20
-60.334988
30
-15.001344
70
192
0
VERTEX
8
UPPERBODY
10
29.995037
20
-56.705223
30
-18.631109
70
192
0
VERTEX
8
UPPERBODY
10
29.598528
20
-60.334991
30
-18.631107
70
192
0
VERTEX
8
UPPERBODY
10
32.415161
20
-56.705223
30
-15.001345
70
192
0
VERTEX
8
UPPERBODY
10
32.018517
20
-60.334991
30
-15.001344
70
192
0
VERTEX
8
UPPERBODY
10
24.285637
20
-64.419670
30
-25.931263
70
192
0
VERTEX
8
UPPERBODY
10
32.285637
20
-64.419670
30
-13.931258
70
192
0
VERTEX
8
UPPERBODY
10
6.285637
20
-64.419662
30
-13.931258
70
192
0
VERTEX
8
UPPERBODY
10
-13.714363
20
-64.419670
30
-29.931263
70
192
0
VERTEX
8
UPPERBODY
10
2.285637
20
-64.419670
30
-9.931259
70
192
0
VERTEX
8
UPPERBODY
10
-1.714363
20
-64.419662
30
26.068733
70
192
0
VERTEX
8
UPPERBODY
10
-15.714363
20
-64.419670
30
22.068733
70
192
0
VERTEX
8
UPPERBODY
10
2.285637
20
-64.419670
30
22.068733
70
192
0
VERTEX
8
UPPERBODY
10
-0.945457
20
-47.529907
30
33.985359
70
192
0
VERTEX
8
UPPERBODY
10
-16.975449
20
-47.529907
30
29.405346
70
192
0
VERTEX
8
UPPERBODY
10
3.634537
20
-47.529907
30
29.405346
70
192
0
VERTEX
8
UPPERBODY
10
3.634537
20
-47.529911
30
-8.482568
70
192
0
VERTEX
8
UPPERBODY
10
7.037933
20
-47.529915
30
-11.818208
70
192
0
VERTEX
8
UPPERBODY
10
35.542500
20
-47.529919
30
-11.814645
70
192
0
VERTEX
8
UPPERBODY
10
-14.685455
20
-47.529922
30
-30.720169
70
192
0
VERTEX
8
UPPERBODY
10
25.936424
20
-47.529922
30
-26.222107
70
192
0
VERTEX
8
UPPERBODY
10
1.955835
20
-47.529911
30
5.036893
70
192
0
VERTEX
8
UPPERBODY
10
-1.904005
20
-47.529911
30
-1.648543
70
192
0
VERTEX
8
UPPERBODY
10
-1.904001
20
-47.529915
30
11.722331
70
192
0
VERTEX
8
UPPERBODY
10
-9.623678
20
-47.529915
30
11.722336
70
192
0
VERTEX
8
UPPERBODY
10
-13.483522
20
-47.529915
30
5.036903
70
192
0
VERTEX
8
UPPERBODY
10
-9.623692
20
-47.529915
30
-1.648538
70
192
0
VERTEX
8
UPPERBODY
10
1.955835
20
-43.737595
30
5.036892
70
192
0
VERTEX
8
UPPERBODY
10
-1.904005
20
-43.737591
30
-1.648544
70
192
0
VERTEX
8
UPPERBODY
10
-1.904001
20
-43.737595
30
11.722330
70
192
0
VERTEX
8
UPPERBODY
10
-9.623678
20
-43.737595
30
11.722335
70
192
0
VERTEX
8
UPPERBODY
10
-13.483522
20
-43.737595
30
5.036902
70
192
0
VERTEX
8
UPPERBODY
10
-9.623692
20
-43.737591
30
-1.648539
70
192
0
VERTEX
8
UPPERBODY
10
-5.763844
20
46.956017
30
5.036880
70
192
0
VERTEX
8
UPPERBODY
10
1.955835
20
46.956017
30
5.036878
70
192
0
VERTEX
8
UPPERBODY
10
-1.904005
20
46.956013
30
-1.648559
70
192
0
VERTEX
8
UPPERBODY
10
-1.904001
20
46.956017
30
11.722316
70
192
0
VERTEX
8
UPPERBODY
10
-9.623678
20
46.956017
30
11.722321
70
192
0
VERTEX
8
UPPERBODY
10
-13.483522
20
46.956017
30
5.036887
70
192
0
VERTEX
8
UPPERBODY
10
-9.623692
20
46.956013
30
-1.648554
70
192
0
VERTEX
8
UPPERBODY
10
1.955835
20
44.180069
30
5.036878
70
192
0
VERTEX
8
UPPERBODY
10
-1.904005
20
44.180065
30
-1.648559
70
192
0
VERTEX
8
UPPERBODY
10
-1.904001
20
44.180069
30
11.722317
70
192
0
VERTEX
8
UPPERBODY
10
-9.623678
20
44.180069
30
11.722322
70
192
0
VERTEX
8
UPPERBODY
10
-13.483522
20
44.180069
30
5.036887
70
192
0
VERTEX
8
UPPERBODY
10
-9.623692
20
44.180065
30
-1.648554
70
192
0
VERTEX
8
UPPERBODY
10
47.791908
20
30.416010
30
-20.748489
70
192
0
VERTEX
8
UPPERBODY
10
47.791908
20
30.416010
30
-24.378258
70
192
0
VERTEX
8
UPPERBODY
10
47.791916
20
34.045776
30
-24.378258
70
192
0
VERTEX
8
UPPERBODY
10
47.791916
20
34.045761
30
-20.748489
70
192
0
VERTEX
8
UPPERBODY
10
26.824297
20
30.416014
30
-24.378258
70
192
0
VERTEX
8
UPPERBODY
10
26.427856
20
34.045776
30
-24.378258
70
192
0
VERTEX
8
UPPERBODY
10
29.244370
20
30.416014
30
-20.748489
70
192
0
VERTEX
8
UPPERBODY
10
29.244370
20
30.416014
30
-20.748489
70
192
0
VERTEX
8
UPPERBODY
10
28.847734
20
34.045761
30
-20.748489
70
192
0
VERTEX
8
UPPERBODY
10
44.767109
20
36.465599
30
-20.748487
70
192
0
VERTEX
8
UPPERBODY
10
44.767109
20
36.465614
30
-24.378256
70
192
0
VERTEX
8
UPPERBODY
10
44.767109
20
40.095383
30
-24.378258
70
192
0
VERTEX
8
UPPERBODY
10
44.767109
20
40.095367
30
-20.748489
70
192
0
VERTEX
8
UPPERBODY
10
26.163565
20
36.465614
30
-24.378256
70
192
0
VERTEX
8
UPPERBODY
10
25.767122
20
40.095383
30
-24.378258
70
192
0
VERTEX
8
UPPERBODY
10
28.583443
20
36.465599
30
-20.748487
70
192
0
VERTEX
8
UPPERBODY
10
28.186975
20
40.095367
30
-20.748489
70
192
0
VERTEX
8
UPPERBODY
10
28.583443
20
36.465607
30
-20.748487
70
192
0
VERTEX
8
UPPERBODY
10
28.583443
20
36.465599
30
-20.748487
70
192
0
VERTEX
8
UPPERBODY
10
55.353920
20
30.416006
30
-15.001362
70
192
0
VERTEX
8
UPPERBODY
10
55.353920
20
30.416006
30
-18.631126
70
192
0
VERTEX
8
UPPERBODY
10
55.353920
20
34.045773
30
-18.631126
70
192
0
VERTEX
8
UPPERBODY
10
55.353920
20
34.045773
30
-15.001362
70
192
0
VERTEX
8
UPPERBODY
10
30.656107
20
30.416010
30
-18.631126
70
192
0
VERTEX
8
UPPERBODY
10
30.259464
20
34.045780
30
-18.631126
70
192
0
VERTEX
8
UPPERBODY
10
33.076229
20
30.416010
30
-15.001362
70
192
0
VERTEX
8
UPPERBODY
10
32.679588
20
34.045780
30
-15.001362
70
192
0
VERTEX
8
UPPERBODY
10
50.514240
20
36.465618
30
-15.001362
70
192
0
VERTEX
8
UPPERBODY
10
50.514240
20
36.465618
30
-18.631124
70
192
0
VERTEX
8
UPPERBODY
10
50.514236
20
40.095387
30
-18.631126
70
192
0
VERTEX
8
UPPERBODY
10
50.514236
20
40.095387
30
-15.001363
70
192
0
VERTEX
8
UPPERBODY
10
29.995037
20
36.465618
30
-18.631124
70
192
0
VERTEX
8
UPPERBODY
10
29.598528
20
40.095387
30
-18.631126
70
192
0
VERTEX
8
UPPERBODY
10
32.415161
20
36.465618
30
-15.001362
70
192
0
VERTEX
8
UPPERBODY
10
32.018517
20
40.095387
30
-15.001363
70
192
0
VERTEX
8
UPPERBODY
10
6.285637
20
44.180058
30
-13.931277
70
192
0
VERTEX
8
UPPERBODY
10
32.285637
20
44.180065
30
-13.931277
70
192
0
VERTEX
8
UPPERBODY
10
24.285637
20
44.180061
30
-25.931274
70
192
0
VERTEX
8
UPPERBODY
10
-13.714363
20
44.180061
30
-29.931274
70
192
0
VERTEX
8
UPPERBODY
10
2.285637
20
44.180065
30
-9.931278
70
192
0
VERTEX
8
UPPERBODY
10
2.285637
20
44.180054
30
22.068722
70
192
0
VERTEX
8
UPPERBODY
10
-15.714363
20
44.180054
30
22.068722
70
192
0
VERTEX
8
UPPERBODY
10
-1.714363
20
44.180065
30
26.068722
70
192
0
VERTEX
8
UPPERBODY
10
-0.945457
20
27.290319
30
33.985344
70
192
0
VERTEX
8
UPPERBODY
10
-16.975449
20
27.290319
30
29.405331
70
192
0
VERTEX
8
UPPERBODY
10
3.634537
20
27.290319
30
29.405331
70
192
0
VERTEX
8
UPPERBODY
10
3.634537
20
27.290310
30
-8.482581
70
192
0
VERTEX
8
UPPERBODY
10
7.037933
20
27.290312
30
-11.818221
70
192
0
VERTEX
8
UPPERBODY
10
35.542500
20
27.290316
30
-11.814658
70
192
0
VERTEX
8
UPPERBODY
10
-14.685455
20
27.290312
30
-30.720184
70
192
0
VERTEX
8
UPPERBODY
10
25.936424
20
27.290312
30
-26.222122
70
192
0
VERTEX
8
UPPERBODY
10
1.955835
20
27.290310
30
5.036879
70
192
0
VERTEX
8
UPPERBODY
10
-1.904005
20
27.290310
30
-1.648557
70
192
0
VERTEX
8
UPPERBODY
10
-1.904001
20
27.290318
30
11.722318
70
192
0
VERTEX
8
UPPERBODY
10
-9.623678
20
27.290318
30
11.722322
70
192
0
VERTEX
8
UPPERBODY
10
-13.483522
20
27.290318
30
5.036889
70
192
0
VERTEX
8
UPPERBODY
10
-9.623692
20
27.290318
30
-1.648552
70
192
0
VERTEX
8
UPPERBODY
10
-1.904005
20
23.686413
30
-1.648557
70
192
0
VERTEX
8
UPPERBODY
10
1.955835
20
23.686413
30
5.036880
70
192
0
VERTEX
8
UPPERBODY
10
-9.623692
20
23.686413
30
-1.648552
70
192
0
VERTEX
8
UPPERBODY
10
-1.904001
20
23.686413
30
11.722318
70
192
0
VERTEX
8
UPPERBODY
10
-9.623678
20
23.686413
30
11.722322
70
192
0
VERTEX
8
UPPERBODY
10
-13.483522
20
23.686413
30
5.036889
70
192
0
VERTEX
8
UPPERBODY
10
24.744396
20
-10.025589
30
-3.349090
70
192
0
VERTEX
8
UPPERBODY
10
24.744375
20
23.686413
30
-3.349092
70
192
0
VERTEX
8
UPPERBODY
10
19.246296
20
23.686415
30
13.254998
70
192
0
VERTEX
8
UPPERBODY
10
17.184517
20
14.054415
30
19.481533
70
192
0
VERTEX
8
UPPERBODY
10
15.122746
20
-5.209588
30
25.708063
70
192
0
VERTEX
8
UPPERBODY
10
13.748227
20
-10.025590
30
29.859083
70
192
0
VERTEX
8
UPPERBODY
10
15.122748
20
-14.841582
30
25.708061
70
192
0
VERTEX
8
UPPERBODY
10
17.184530
20
-34.105595
30
19.481531
70
192
0
VERTEX
8
UPPERBODY
10
24.744385
20
-43.737591
30
-3.349087
70
192
0
VERTEX
8
UPPERBODY
10
19.246307
20
-43.737595
30
13.255004
70
192
0
VERTEX
8
UPPERBODY
10
-29.998440
20
-34.105595
30
19.522882
70
192
0
VERTEX
8
UPPERBODY
10
-32.008476
20
-43.737595
30
13.285089
70
192
0
VERTEX
8
UPPERBODY
10
-27.988377
20
-14.841582
30
25.760677
70
192
0
VERTEX
8
UPPERBODY
10
-26.648365
20
-10.025586
30
29.919205
70
192
0
VERTEX
8
UPPERBODY
10
-27.988407
20
-5.209585
30
25.760674
70
192
0
VERTEX
8
UPPERBODY
10
-29.998440
20
14.054413
30
19.522886
70
192
0
VERTEX
8
UPPERBODY
10
-32.008484
20
23.686411
30
13.285085
70
192
0
VERTEX
8
UPPERBODY
10
-37.368591
20
-10.025589
30
-3.349036
70
192
0
VERTEX
8
UPPERBODY
10
-37.368607
20
23.686413
30
-3.349039
70
192
0
VERTEX
8
UPPERBODY
10
-37.368591
20
-43.737591
30
-3.349033
70
192
0
VERTEX
8
UPPERBODY
10
0
20
0
30
0
70
128
71
1
72
-2
73
-3
0
VERTEX
8
UPPERBODY
10
0
20
0
30
0
70
128
71
2
72
-4
73
-3
0
VERTEX
8
UPPERBODY
10
0
20
0
30
0
70
128
71
4
72
-5
73
-3
0
VERTEX
8
UPPERBODY
10
0
20
0
30
0
70
128
71
5
72
-6
73
-3
0
VERTEX
8
UPPERBODY
10
0
20
0
30
0
70
128
71
6
72
-7
73
-3
0
VERTEX
8
UPPERBODY
10
0
20
0
30
0
70
128
71
7
72
-1
73
-3
0
VERTEX
8
UPPERBODY
10
0
20
0
30
0
70
128
71
2
72
-8
73
4
0
VERTEX
8
UPPERBODY
10
0
20
0
30
0
70
128
71
-2
72
9
73
8
0
VERTEX
8
UPPERBODY
10
0
20
0
30
0
70
128
71
-9
72
2
73
1
0
VERTEX
8
UPPERBODY
10
0
20
0
30
0
70
128
71
4
72
-10
73
5
0
VERTEX
8
UPPERBODY
10
0
20
0
30
0
70
128
71
-4
72
8
73
10
0
VERTEX
8
UPPERBODY
10
0
20
0
30
0
70
128
71
5
72
-11
73
6
0
VERTEX
8
UPPERBODY
10
0
20
0
30
0
70
128
71
-5
72
10
73
11
0
VERTEX
8
UPPERBODY
10
0
20
0
30
0
70
128
71
6
72
-12
73
7
0
VERTEX
8
UPPERBODY
10
0
20
0
30
0
70
128
71
11
72
12
73
-6
0
VERTEX
8
UPPERBODY
10
0
20
0
30
0
70
128
71
7
72
-13
73
1
0
VERTEX
8
UPPERBODY
10
0
20
0
30
0
70
128
71
-7
72
12
73
13
0
VERTEX
8
UPPERBODY
10
0
20
0
30
0
70
128
71
13
72
9
73
-1
0
VERTEX
8
UPPERBODY
10
0
20
0
30
0
70
128
71
14
72
15
73
-16
0
VERTEX
8
UPPERBODY
10
0
20
0
30
0
70
128
71
-14
72
16
73
17
0
VERTEX
8
UPPERBODY
10
0
20
0
30
0
70
128
71
-14
72
18
73
15
0
VERTEX
8
UPPERBODY
10
0
20
0
30
0
70
128
71
14
72
19
73
-18
0
VERTEX
8
UPPERBODY
10
0
20
0
30
0
70
128
71
19
72
14
73
-17
0
VERTEX
8
UPPERBODY
10
0
20
0
30
0
70
128
71
-20
72
15
73
18
0
VERTEX
8
UPPERBODY
10
0
20
0
30
0
70
128
71
-15
72
20
73
16
0
VERTEX
8
UPPERBODY
10
0
20
0
30
0
70
128
71
16
72
20
73
-21
0
VERTEX
8
UPPERBODY
10
0
20
0
30
0
70
128
71
-16
72
-21
73
17
0
VERTEX
8
UPPERBODY
10
0
20
0
30
0
70
128
71
21
72
22
73
-17
0
VERTEX
8
UPPERBODY
10
0
20
0
30
0
70
128
71
22
72
-19
73
17
0
VERTEX
8
UPPERBODY
10
0
20
0
30
0
70
128
71
23
72
24
73
-25
0
VERTEX
8
UPPERBODY
10
0
20
0
30
0
70
128
71
-23
72
25
73
26
0
VERTEX
8
UPPERBODY
10
0
20
0
30
0
70
128
71
-23
72
27
73
24
0
VERTEX
8
UPPERBODY
10
0
20
0
30
0
70
128
71
23
72
28
73
-27
0
VERTEX
8
UPPERBODY
10
0
20
0
30
0
70
128
71
28
72
23
73
-26
0
VERTEX
8
UPPERBODY
10
0
20
0
30
0
70
128
71
-29
72
24
73
27
0
VERTEX
8
UPPERBODY
10
0
20
0
30
0
70
128
71
-24
72
29
73
25
0
VERTEX
8
UPPERBODY
10
0
20
0
30
0
70
128
71
30
72
-31
73
-25
0
VERTEX
8
UPPERBODY
10
0
20
0
30
0
70
128
71
-25
72
31
73
26
0
VERTEX
8
UPPERBODY
10
0
20
0
30
0
70
128
71
29
72
-32
73
25
0
VERTEX
8
UPPERBODY
10
0
20
0
30
0
70
128
71
32
72
-30
73
-25
0
VERTEX
8
UPPERBODY
10
0
20
0
30
0
70
128
71
31
72
-28
73
26
0
VERTEX
8
UPPERBODY
10
0
20
0
30
0
70
128
71
33
72
34
73
-35
0
VERTEX
8
UPPERBODY
10
0
20
0
30
0
70
128
71
-33
72
35
73
36
0
VERTEX
8
UPPERBODY
10
0
20
0
30
0
70
128
71
-33
72
37
73
34
0
VERTEX
8
UPPERBODY
10
0
20
0
30
0
70
128
71
33
72
38
73
-37
0
VERTEX
8
UPPERBODY
10
0
20
0
30
0
70
128
71
38
72
33
73
-36
0
VERTEX
8
UPPERBODY
10
0
20
0
30
0
70
128
71
-39
72
34
73
37
0
VERTEX
8
UPPERBODY
10
0
20
0
30
0
70
128
71
-34
72
39
73
35
0
VERTEX
8
UPPERBODY
10
0
20
0
30
0
70
128
71
35
72
39
73
-40
0
VERTEX
8
UPPERBODY
10
0
20
0
30
0
70
128
71
-35
72
40
73
36
0
VERTEX
8
UPPERBODY
10
0
20
0
30
0
70
128
71
36
72
40
73
-38
0
VERTEX
8
UPPERBODY
10
0
20
0
30
0
70
128
71
41
72
42
73
-43
0
VERTEX
8
UPPERBODY
10
0
20
0
30
0
70
128
71
-41
72
43
73
44
0
VERTEX
8
UPPERBODY
10
0
20
0
30
0
70
128
71
-41
72
45
73
42
0
VERTEX
8
UPPERBODY
10
0
20
0
30
0
70
128
71
41
72
46
73
-45
0
VERTEX
8
UPPERBODY
10
0
20
0
30
0
70
128
71
46
72
41
73
-44
0
VERTEX
8
UPPERBODY
10
0
20
0
30
0
70
128
71
42
72
45
73
-47
0
VERTEX
8
UPPERBODY
10
0
20
0
30
0
70
128
71
-42
72
47
73
43
0
VERTEX
8
UPPERBODY
10
0
20
0
30
0
70
128
71
-48
72
43
73
47
0
VERTEX
8
UPPERBODY
10
0
20
0
30
0
70
128
71
-43
72
48
73
44
0
VERTEX
8
UPPERBODY
10
0
20
0
30
0
70
128
71
44
72
48
73
-46
0
VERTEX
8
UPPERBODY
10
0
20
0
30
0
70
128
71
49
72
50
73
-51
0
VERTEX
8
UPPERBODY
10
0
20
0
30
0
70
128
71
52
72
-49
73
-51
0
VERTEX
8
UPPERBODY
10
0
20
0
30
0
70
128
71
-52
72
51
73
-53
0
VERTEX
8
UPPERBODY
10
0
20
0
30
0
70
128
71
54
72
-55
73
56
0
VERTEX
8
UPPERBODY
10
0
20
0
30
0
70
128
71
55
72
54
73
-57
0
VERTEX
8
UPPERBODY
10
0
20
0
30
0
70
128
71
-55
72
57
73
58
0
VERTEX
8
UPPERBODY
10
0
20
0
30
0
70
128
71
54
72
56
73
-59
0
VERTEX
8
UPPERBODY
10
0
20
0
30
0
70
128
71
-54
72
59
73
57
0
VERTEX
8
UPPERBODY
10
0
20
0
30
0
70
128
71
56
72
53
73
-60
0
VERTEX
8
UPPERBODY
10
0
20
0
30
0
70
128
71
-56
72
60
73
59
0
VERTEX
8
UPPERBODY
10
0
20
0
30
0
70
128
71
53
72
51
73
-61
0
VERTEX
8
UPPERBODY
10
0
20
0
30
0
70
128
71
-53
72
61
73
60
0
VERTEX
8
UPPERBODY
10
0
20
0
30
0
70
128
71
51
72
50
73
-62
0
VERTEX
8
UPPERBODY
10
0
20
0
30
0
70
128
71
-51
72
62
73
61
0
VERTEX
8
UPPERBODY
10
0
20
0
30
0
70
128
71
49
72
52
73
-63
0
VERTEX
8
UPPERBODY
10
0
20
0
30
0
70
128
71
-49
72
63
73
64
0
VERTEX
8
UPPERBODY
10
0
20
0
30
0
70
128
71
52
72
55
73
-58
0
VERTEX
8
UPPERBODY
10
0
20
0
30
0
70
128
71
-52
72
58
73
63
0
VERTEX
8
UPPERBODY
10
0
20
0
30
0
70
128
71
61
72
62
73
-64
0
VERTEX
8
UPPERBODY
10
0
20
0
30
0
70
128
71
-61
72
64
73
-63
0
VERTEX
8
UPPERBODY
10
0
20
0
30
0
70
128
71
60
72
-61
73
-63
0
VERTEX
8
UPPERBODY
10
0
20
0
30
0
70
128
71
-59
72
58
73
57
0
VERTEX
8
UPPERBODY
10
0
20
0
30
0
70
128
71
50
72
-49
73
-46
0
VERTEX
8
UPPERBODY
10
0
20
0
30
0
70
128
71
62
72
-50
73
-47
0
VERTEX
8
UPPERBODY
10
0
20
0
30
0
70
128
71
-47
72
-50
73
48
0
VERTEX
8
UPPERBODY
10
0
20
0
30
0
70
128
71
-48
72
-50
73
46
0
VERTEX
8
UPPERBODY
10
0
20
0
30
0
70
128
71
64
72
-62
73
-37
0
VERTEX
8
UPPERBODY
10
0
20
0
30
0
70
128
71
-37
72
-62
73
39
0
VERTEX
8
UPPERBODY
10
0
20
0
30
0
70
128
71
-62
72
40
73
-39
0
VERTEX
8
UPPERBODY
10
0
20
0
30
0
70
128
71
-47
72
-40
73
-62
0
VERTEX
8
UPPERBODY
10
0
20
0
30
0
70
128
71
-40
72
47
73
-45
0
VERTEX
8
UPPERBODY
10
0
20
0
30
0
70
128
71
38
72
-40
73
-45
0
VERTEX
8
UPPERBODY
10
0
20
0
30
0
70
128
71
49
72
-64
73
-27
0
VERTEX
8
UPPERBODY
10
0
20
0
30
0
70
128
71
-49
72
27
73
-28
0
VERTEX
8
UPPERBODY
10
0
20
0
30
0
70
128
71
-30
72
-45
73
31
0
VERTEX
8
UPPERBODY
10
0
20
0
30
0
70
128
71
-32
72
-45
73
30
0
VERTEX
8
UPPERBODY
10
0
20
0
30
0
70
128
71
-45
72
32
73
-29
0
VERTEX
8
UPPERBODY
10
0
20
0
30
0
70
128
71
-31
72
45
73
-46
0
VERTEX
8
UPPERBODY
10
0
20
0
30
0
70
128
71
-46
72
-49
73
-31
0
VERTEX
8
UPPERBODY
10
0
20
0
30
0
70
128
71
-31
72
-49
73
28
0
VERTEX
8
UPPERBODY
10
0
20
0
30
0
70
128
71
18
72
-19
73
-64
0
VERTEX
8
UPPERBODY
10
0
20
0
30
0
70
128
71
-19
72
-27
73
-64
0
VERTEX
8
UPPERBODY
10
0
20
0
30
0
70
128
71
-27
72
-19
73
29
0
VERTEX
8
UPPERBODY
10
0
20
0
30
0
70
128
71
-18
72
-64
73
20
0
VERTEX
8
UPPERBODY
10
0
20
0
30
0
70
128
71
-64
72
-37
73
-20
0
VERTEX
8
UPPERBODY
10
0
20
0
30
0
70
128
71
-37
72
21
73
-20
0
VERTEX
8
UPPERBODY
10
0
20
0
30
0
70
128
71
-21
72
37
73
-38
0
VERTEX
8
UPPERBODY
10
0
20
0
30
0
70
128
71
-22
72
-38
73
-45
0
VERTEX
8
UPPERBODY
10
0
20
0
30
0
70
128
71
-21
72
-38
73
22
0
VERTEX
8
UPPERBODY
10
0
20
0
30
0
70
128
71
-29
72
-22
73
-45
0
VERTEX
8
UPPERBODY
10
0
20
0
30
0
70
128
71
-22
72
-29
73
19
0
VERTEX
8
UPPERBODY
10
0
20
0
30
0
70
128
71
53
72
-56
73
-8
0
VERTEX
8
UPPERBODY
10
0
20
0
30
0
70
128
71
-53
72
8
73
-9
0
VERTEX
8
UPPERBODY
10
0
20
0
30
0
70
128
71
59
72
-60
73
-65
0
VERTEX
8
UPPERBODY
10
0
20
0
30
0
70
128
71
-60
72
-63
73
-66
0
VERTEX
8
UPPERBODY
10
0
20
0
30
0
70
128
71
-60
72
66
73
-65
0
VERTEX
8
UPPERBODY
10
0
20
0
30
0
70
128
71
-56
72
-55
73
-10
0
VERTEX
8
UPPERBODY
10
0
20
0
30
0
70
128
71
10
72
-8
73
-56
0
VERTEX
8
UPPERBODY
10
0
20
0
30
0
70
128
71
-59
72
65
73
-67
0
VERTEX
8
UPPERBODY
10
0
20
0
30
0
70
128
71
-58
72
-59
73
-67
0
VERTEX
8
UPPERBODY
10
0
20
0
30
0
70
128
71
-55
72
11
73
-10
0
VERTEX
8
UPPERBODY
10
0
20
0
30
0
70
128
71
-68
72
-58
73
67
0
VERTEX
8
UPPERBODY
10
0
20
0
30
0
70
128
71
55
72
-52
73
-12
0
VERTEX
8
UPPERBODY
10
0
20
0
30
0
70
128
71
-58
72
68
73
-69
0
VERTEX
8
UPPERBODY
10
0
20
0
30
0
70
128
71
63
72
-58
73
-69
0
VERTEX
8
UPPERBODY
10
0
20
0
30
0
70
128
71
-55
72
12
73
-11
0
VERTEX
8
UPPERBODY
10
0
20
0
30
0
70
128
71
-52
72
-53
73
-13
0
VERTEX
8
UPPERBODY
10
0
20
0
30
0
70
128
71
13
72
-12
73
-52
0
VERTEX
8
UPPERBODY
10
0
20
0
30
0
70
128
71
-63
72
69
73
-70
0
VERTEX
8
UPPERBODY
10
0
20
0
30
0
70
128
71
70
72
-66
73
-63
0
VERTEX
8
UPPERBODY
10
0
20
0
30
0
70
128
71
-53
72
9
73
-13
0
VERTEX
8
UPPERBODY
10
0
20
0
30
0
70
128
71
65
72
-71
73
67
0
VERTEX
8
UPPERBODY
10
0
20
0
30
0
70
128
71
-65
72
72
73
71
0
VERTEX
8
UPPERBODY
10
0
20
0
30
0
70
128
71
-72
72
65
73
66
0
VERTEX
8
UPPERBODY
10
0
20
0
30
0
70
128
71
-66
72
76
73
72
0
VERTEX
8
UPPERBODY
10
0
20
0
30
0
70
128
71
-76
72
66
73
70
0
VERTEX
8
UPPERBODY
10
0
20
0
30
0
70
128
71
73
72
-67
73
71
0
VERTEX
8
UPPERBODY
10
0
20
0
30
0
70
128
71
67
72
-73
73
68
0
VERTEX
8
UPPERBODY
10
0
20
0
30
0
70
128
71
68
72
-74
73
69
0
VERTEX
8
UPPERBODY
10
0
20
0
30
0
70
128
71
-68
72
73
73
74
0
VERTEX
8
UPPERBODY
10
0
20
0
30
0
70
128
71
74
72
75
73
-69
0
VERTEX
8
UPPERBODY
10
0
20
0
30
0
70
128
71
69
72
-75
73
70
0
VERTEX
8
UPPERBODY
10
0
20
0
30
0
70
128
71
75
72
76
73
-70
0
VERTEX
8
UPPERBODY
10
0
20
0
30
0
70
128
71
-77
72
78
73
-79
0
VERTEX
8
UPPERBODY
10
0
20
0
30
0
70
128
71
-77
72
80
73
-78
0
VERTEX
8
UPPERBODY
10
0
20
0
30
0
70
128
71
-77
72
81
73
-80
0
VERTEX
8
UPPERBODY
10
0
20
0
30
0
70
128
71
-77
72
82
73
-81
0
VERTEX
8
UPPERBODY
10
0
20
0
30
0
70
128
71
-77
72
83
73
-82
0
VERTEX
8
UPPERBODY
10
0
20
0
30
0
70
128
71
-77
72
79
73
-83
0
VERTEX
8
UPPERBODY
10
0
20
0
30
0
70
128
71
-80
72
84
73
78
0
VERTEX
8
UPPERBODY
10
0
20
0
30
0
70
128
71
84
72
-85
73
78
0
VERTEX
8
UPPERBODY
10
0
20
0
30
0
70
128
71
79
72
-78
73
85
0
VERTEX
8
UPPERBODY
10
0
20
0
30
0
70
128
71
-81
72
86
73
80
0
VERTEX
8
UPPERBODY
10
0
20
0
30
0
70
128
71
86
72
-84
73
80
0
VERTEX
8
UPPERBODY
10
0
20
0
30
0
70
128
71
-82
72
87
73
81
0
VERTEX
8
UPPERBODY
10
0
20
0
30
0
70
128
71
87
72
-86
73
81
0
VERTEX
8
UPPERBODY
10
0
20
0
30
0
70
128
71
-83
72
88
73
82
0
VERTEX
8
UPPERBODY
10
0
20
0
30
0
70
128
71
82
72
88
73
-87
0
VERTEX
8
UPPERBODY
10
0
20
0
30
0
70
128
71
-79
72
89
73
83
0
VERTEX
8
UPPERBODY
10
0
20
0
30
0
70
128
71
89
72
-88
73
83
0
VERTEX
8
UPPERBODY
10
0
20
0
30
0
70
128
71
79
72
85
73
-89
0
VERTEX
8
UPPERBODY
10
0
20
0
30
0
70
128
71
90
72
91
73
-92
0
VERTEX
8
UPPERBODY
10
0
20
0
30
0
70
128
71
93
72
-90
73
92
0
VERTEX
8
UPPERBODY
10
0
20
0
30
0
70
128
71
91
72
-94
73
92
0
VERTEX
8
UPPERBODY
10
0
20
0
30
0
70
128
71
94
72
95
73
-92
0
VERTEX
8
UPPERBODY
10
0
20
0
30
0
70
128
71
93
72
92
73
-95
0
VERTEX
8
UPPERBODY
10
0
20
0
30
0
70
128
71
94
72
-91
73
96
0
VERTEX
8
UPPERBODY
10
0
20
0
30
0
70
128
71
90
72
-96
73
91
0
VERTEX
8
UPPERBODY
10
0
20
0
30
0
70
128
71
97
72
96
73
-90
0
VERTEX
8
UPPERBODY
10
0
20
0
30
0
70
128
71
-93
72
-97
73
90
0
VERTEX
8
UPPERBODY
10
0
20
0
30
0
70
128
71
93
72
98
73
-97
0
VERTEX
8
UPPERBODY
10
0
20
0
30
0
70
128
71
-93
72
95
73
98
0
VERTEX
8
UPPERBODY
10
0
20
0
30
0
70
128
71
99
72
100
73
-101
0
VERTEX
8
UPPERBODY
10
0
20
0
30
0
70
128
71
102
72
-99
73
101
0
VERTEX
8
UPPERBODY
10
0
20
0
30
0
70
128
71
100
72
-103
73
101
0
VERTEX
8
UPPERBODY
10
0
20
0
30
0
70
128
71
103
72
104
73
-101
0
VERTEX
8
UPPERBODY
10
0
20
0
30
0
70
128
71
102
72
101
73
-104
0
VERTEX
8
UPPERBODY
10
0
20
0
30
0
70
128
71
103
72
-100
73
105
0
VERTEX
8
UPPERBODY
10
0
20
0
30
0
70
128
71
99
72
-105
73
100
0
VERTEX
8
UPPERBODY
10
0
20
0
30
0
70
128
71
-99
72
106
73
-107
0
VERTEX
8
UPPERBODY
10
0
20
0
30
0
70
128
71
102
72
-106
73
99
0
VERTEX
8
UPPERBODY
10
0
20
0
30
0
70
128
71
-99
72
108
73
105
0
VERTEX
8
UPPERBODY
10
0
20
0
30
0
70
128
71
-99
72
107
73
-108
0
VERTEX
8
UPPERBODY
10
0
20
0
30
0
70
128
71
-102
72
104
73
106
0
VERTEX
8
UPPERBODY
10
0
20
0
30
0
70
128
71
109
72
110
73
-111
0
VERTEX
8
UPPERBODY
10
0
20
0
30
0
70
128
71
112
72
-109
73
111
0
VERTEX
8
UPPERBODY
10
0
20
0
30
0
70
128
71
110
72
-113
73
111
0
VERTEX
8
UPPERBODY
10
0
20
0
30
0
70
128
71
113
72
114
73
-111
0
VERTEX
8
UPPERBODY
10
0
20
0
30
0
70
128
71
112
72
111
73
-114
0
VERTEX
8
UPPERBODY
10
0
20
0
30
0
70
128
71
113
72
-110
73
115
0
VERTEX
8
UPPERBODY
10
0
20
0
30
0
70
128
71
109
72
-115
73
110
0
VERTEX
8
UPPERBODY
10
0
20
0
30
0
70
128
71
116
72
115
73
-109
0
VERTEX
8
UPPERBODY
10
0
20
0
30
0
70
128
71
112
72
-116
73
109
0
VERTEX
8
UPPERBODY
10
0
20
0
30
0
70
128
71
114
72
116
73
-112
0
VERTEX
8
UPPERBODY
10
0
20
0
30
0
70
128
71
117
72
118
73
-119
0
VERTEX
8
UPPERBODY
10
0
20
0
30
0
70
128
71
120
72
-117
73
119
0
VERTEX
8
UPPERBODY
10
0
20
0
30
0
70
128
71
118
72
-121
73
119
0
VERTEX
8
UPPERBODY
10
0
20
0
30
0
70
128
71
121
72
122
73
-119
0
VERTEX
8
UPPERBODY
10
0
20
0
30
0
70
128
71
120
72
119
73
-122
0
VERTEX
8
UPPERBODY
10
0
20
0
30
0
70
128
71
123
72
121
73
-118
0
VERTEX
8
UPPERBODY
10
0
20
0
30
0
70
128
71
117
72
-123
73
118
0
VERTEX
8
UPPERBODY
10
0
20
0
30
0
70
128
71
123
72
-117
73
124
0
VERTEX
8
UPPERBODY
10
0
20
0
30
0
70
128
71
120
72
-124
73
117
0
VERTEX
8
UPPERBODY
10
0
20
0
30
0
70
128
71
122
72
124
73
-120
0
VERTEX
8
UPPERBODY
10
0
20
0
30
0
70
128
71
125
72
126
73
-127
0
VERTEX
8
UPPERBODY
10
0
20
0
30
0
70
128
71
-125
72
127
73
-128
0
VERTEX
8
UPPERBODY
10
0
20
0
30
0
70
128
71
129
72
-125
73
-128
0
VERTEX
8
UPPERBODY
10
0
20
0
30
0
70
128
71
-130
72
131
73
132
0
VERTEX
8
UPPERBODY
10
0
20
0
30
0
70
128
71
133
72
132
73
-131
0
VERTEX
8
UPPERBODY
10
0
20
0
30
0
70
128
71
134
72
-133
73
131
0
VERTEX
8
UPPERBODY
10
0
20
0
30
0
70
128
71
135
72
130
73
-132
0
VERTEX
8
UPPERBODY
10
0
20
0
30
0
70
128
71
133
72
-135
73
132
0
VERTEX
8
UPPERBODY
10
0
20
0
30
0
70
128
71
136
72
129
73
-130
0
VERTEX
8
UPPERBODY
10
0
20
0
30
0
70
128
71
135
72
-136
73
130
0
VERTEX
8
UPPERBODY
10
0
20
0
30
0
70
128
71
137
72
125
73
-129
0
VERTEX
8
UPPERBODY
10
0
20
0
30
0
70
128
71
136
72
-137
73
129
0
VERTEX
8
UPPERBODY
10
0
20
0
30
0
70
128
71
138
72
126
73
-125
0
VERTEX
8
UPPERBODY
10
0
20
0
30
0
70
128
71
137
72
-138
73
125
0
VERTEX
8
UPPERBODY
10
0
20
0
30
0
70
128
71
139
72
128
73
-127
0
VERTEX
8
UPPERBODY
10
0
20
0
30
0
70
128
71
140
72
-139
73
127
0
VERTEX
8
UPPERBODY
10
0
20
0
30
0
70
128
71
134
72
131
73
-128
0
VERTEX
8
UPPERBODY
10
0
20
0
30
0
70
128
71
139
72
-134
73
128
0
VERTEX
8
UPPERBODY
10
0
20
0
30
0
70
128
71
140
72
138
73
-137
0
VERTEX
8
UPPERBODY
10
0
20
0
30
0
70
128
71
139
72
-140
73
-137
0
VERTEX
8
UPPERBODY
10
0
20
0
30
0
70
128
71
-139
72
137
73
-136
0
VERTEX
8
UPPERBODY
10
0
20
0
30
0
70
128
71
133
72
-134
73
135
0
VERTEX
8
UPPERBODY
10
0
20
0
30
0
70
128
71
-122
72
127
73
-126
0
VERTEX
8
UPPERBODY
10
0
20
0
30
0
70
128
71
-123
72
126
73
-138
0
VERTEX
8
UPPERBODY
10
0
20
0
30
0
70
128
71
-124
72
-126
73
123
0
VERTEX
8
UPPERBODY
10
0
20
0
30
0
70
128
71
-122
72
-126
73
124
0
VERTEX
8
UPPERBODY
10
0
20
0
30
0
70
128
71
-113
72
138
73
-140
0
VERTEX
8
UPPERBODY
10
0
20
0
30
0
70
128
71
-115
72
-138
73
113
0
VERTEX
8
UPPERBODY
10
0
20
0
30
0
70
128
71
115
72
-116
73
-138
0
VERTEX
8
UPPERBODY
10
0
20
0
30
0
70
128
71
-138
72
-116
73
-123
0
VERTEX
8
UPPERBODY
10
0
20
0
30
0
70
128
71
121
72
-123
73
-116
0
VERTEX
8
UPPERBODY
10
0
20
0
30
0
70
128
71
-121
72
116
73
-114
0
VERTEX
8
UPPERBODY
10
0
20
0
30
0
70
128
71
-103
72
140
73
-127
0
VERTEX
8
UPPERBODY
10
0
20
0
30
0
70
128
71
104
72
-103
73
-127
0
VERTEX
8
UPPERBODY
10
0
20
0
30
0
70
128
71
-106
72
-121
73
107
0
VERTEX
8
UPPERBODY
10
0
20
0
30
0
70
128
71
-107
72
-121
73
108
0
VERTEX
8
UPPERBODY
10
0
20
0
30
0
70
128
71
105
72
-108
73
-121
0
VERTEX
8
UPPERBODY
10
0
20
0
30
0
70
128
71
122
72
-121
73
-106
0
VERTEX
8
UPPERBODY
10
0
20
0
30
0
70
128
71
-106
72
-127
73
-122
0
VERTEX
8
UPPERBODY
10
0
20
0
30
0
70
128
71
-104
72
-127
73
106
0
VERTEX
8
UPPERBODY
10
0
20
0
30
0
70
128
71
-140
72
95
73
-94
0
VERTEX
8
UPPERBODY
10
0
20
0
30
0
70
128
71
-140
72
-103
73
-95
0
VERTEX
8
UPPERBODY
10
0
20
0
30
0
70
128
71
-105
72
-95
73
103
0
VERTEX
8
UPPERBODY
10
0
20
0
30
0
70
128
71
-96
72
-140
73
94
0
VERTEX
8
UPPERBODY
10
0
20
0
30
0
70
128
71
-96
72
-113
73
-140
0
VERTEX
8
UPPERBODY
10
0
20
0
30
0
70
128
71
96
72
-97
73
-113
0
VERTEX
8
UPPERBODY
10
0
20
0
30
0
70
128
71
114
72
-113
73
-97
0
VERTEX
8
UPPERBODY
10
0
20
0
30
0
70
128
71
-121
72
-114
73
-98
0
VERTEX
8
UPPERBODY
10
0
20
0
30
0
70
128
71
-98
72
-114
73
97
0
VERTEX
8
UPPERBODY
10
0
20
0
30
0
70
128
71
-121
72
-98
73
-105
0
VERTEX
8
UPPERBODY
10
0
20
0
30
0
70
128
71
-95
72
-105
73
98
0
VERTEX
8
UPPERBODY
10
0
20
0
30
0
70
128
71
-84
72
130
73
-129
0
VERTEX
8
UPPERBODY
10
0
20
0
30
0
70
128
71
85
72
-84
73
-129
0
VERTEX
8
UPPERBODY
10
0
20
0
30
0
70
128
71
-141
72
136
73
-135
0
VERTEX
8
UPPERBODY
10
0
20
0
30
0
70
128
71
-142
72
-139
73
-136
0
VERTEX
8
UPPERBODY
10
0
20
0
30
0
70
128
71
141
72
-142
73
-136
0
VERTEX
8
UPPERBODY
10
0
20
0
30
0
70
128
71
-86
72
-131
73
-130
0
VERTEX
8
UPPERBODY
10
0
20
0
30
0
70
128
71
-130
72
84
73
-86
0
VERTEX
8
UPPERBODY
10
0
20
0
30
0
70
128
71
143
72
-141
73
-135
0
VERTEX
8
UPPERBODY
10
0
20
0
30
0
70
128
71
-143
72
-135
73
-134
0
VERTEX
8
UPPERBODY
10
0
20
0
30
0
70
128
71
86
72
-87
73
-131
0
VERTEX
8
UPPERBODY
10
0
20
0
30
0
70
128
71
-143
72
-134
73
144
0
VERTEX
8
UPPERBODY
10
0
20
0
30
0
70
128
71
-88
72
128
73
-131
0
VERTEX
8
UPPERBODY
10
0
20
0
30
0
70
128
71
145
72
-144
73
-134
0
VERTEX
8
UPPERBODY
10
0
20
0
30
0
70
128
71
-145
72
134
73
-139
0
VERTEX
8
UPPERBODY
10
0
20
0
30
0
70
128
71
87
72
-88
73
-131
0
VERTEX
8
UPPERBODY
10
0
20
0
30
0
70
128
71
-89
72
-129
73
-128
0
VERTEX
8
UPPERBODY
10
0
20
0
30
0
70
128
71
-128
72
88
73
-89
0
VERTEX
8
UPPERBODY
10
0
20
0
30
0
70
128
71
146
72
-145
73
-139
0
VERTEX
8
UPPERBODY
10
0
20
0
30
0
70
128
71
-139
72
142
73
-146
0
VERTEX
8
UPPERBODY
10
0
20
0
30
0
70
128
71
89
72
-85
73
-129
0
VERTEX
8
UPPERBODY
10
0
20
0
30
0
70
128
71
-141
72
147
73
142
0
VERTEX
8
UPPERBODY
10
0
20
0
30
0
70
128
71
141
72
148
73
-147
0
VERTEX
8
UPPERBODY
10
0
20
0
30
0
70
128
71
148
72
141
73
-143
0
VERTEX
8
UPPERBODY
10
0
20
0
30
0
70
128
71
-142
72
149
73
146
0
VERTEX
8
UPPERBODY
10
0
20
0
30
0
70
128
71
142
72
147
73
-149
0
VERTEX
8
UPPERBODY
10
0
20
0
30
0
70
128
71
-148
72
143
73
150
0
VERTEX
8
UPPERBODY
10
0
20
0
30
0
70
128
71
150
72
143
73
-144
0
VERTEX
8
UPPERBODY
10
0
20
0
30
0
70
128
71
144
72
151
73
-150
0
VERTEX
8
UPPERBODY
10
0
20
0
30
0
70
128
71
151
72
144
73
-145
0
VERTEX
8
UPPERBODY
10
0
20
0
30
0
70
128
71
152
72
-151
73
145
0
VERTEX
8
UPPERBODY
10
0
20
0
30
0
70
128
71
152
72
145
73
-146
0
VERTEX
8
UPPERBODY
10
0
20
0
30
0
70
128
71
-152
72
146
73
149
0
VERTEX
8
UPPERBODY
10
0
20
0
30
0
70
128
71
153
72
154
73
-155
0
VERTEX
8
UPPERBODY
10
0
20
0
30
0
70
128
71
-153
72
155
73
-156
0
VERTEX
8
UPPERBODY
10
0
20
0
30
0
70
128
71
-153
72
156
73
-157
0
VERTEX
8
UPPERBODY
10
0
20
0
30
0
70
128
71
157
72
158
73
-159
0
VERTEX
8
UPPERBODY
10
0
20
0
30
0
70
128
71
-153
72
-157
73
-159
0
VERTEX
8
UPPERBODY
10
0
20
0
30
0
70
128
71
-153
72
159
73
-160
0
VERTEX
8
UPPERBODY
10
0
20
0
30
0
70
128
71
161
72
-153
73
-160
0
VERTEX
8
UPPERBODY
10
0
20
0
30
0
70
128
71
162
72
-161
73
160
0
VERTEX
8
UPPERBODY
10
0
20
0
30
0
70
128
71
162
72
160
73
-163
0
VERTEX
8
UPPERBODY
10
0
20
0
30
0
70
128
71
-162
72
163
73
164
0
VERTEX
8
UPPERBODY
10
0
20
0
30
0
70
128
71
160
72
159
73
-165
0
VERTEX
8
UPPERBODY
10
0
20
0
30
0
70
128
71
-160
72
165
73
163
0
VERTEX
8
UPPERBODY
10
0
20
0
30
0
70
128
71
159
72
158
73
-166
0
VERTEX
8
UPPERBODY
10
0
20
0
30
0
70
128
71
-159
72
166
73
165
0
VERTEX
8
UPPERBODY
10
0
20
0
30
0
70
128
71
158
72
157
73
-167
0
VERTEX
8
UPPERBODY
10
0
20
0
30
0
70
128
71
-158
72
167
73
166
0
VERTEX
8
UPPERBODY
10
0
20
0
30
0
70
128
71
157
72
156
73
-168
0
VERTEX
8
UPPERBODY
10
0
20
0
30
0
70
128
71
-157
72
168
73
167
0
VERTEX
8
UPPERBODY
10
0
20
0
30
0
70
128
71
156
72
155
73
-169
0
VERTEX
8
UPPERBODY
10
0
20
0
30
0
70
128
71
-156
72
169
73
168
0
VERTEX
8
UPPERBODY
10
0
20
0
30
0
70
128
71
154
72
153
73
-170
0
VERTEX
8
UPPERBODY
10
0
20
0
30
0
70
128
71
-154
72
170
73
171
0
VERTEX
8
UPPERBODY
10
0
20
0
30
0
70
128
71
153
72
161
73
-172
0
VERTEX
8
UPPERBODY
10
0
20
0
30
0
70
128
71
-153
72
172
73
170
0
VERTEX
8
UPPERBODY
10
0
20
0
30
0
70
128
71
169
72
171
73
-170
0
VERTEX
8
UPPERBODY
10
0
20
0
30
0
70
128
71
168
72
-169
73
-170
0
VERTEX
8
UPPERBODY
10
0
20
0
30
0
70
128
71
167
72
-168
73
-170
0
VERTEX
8
UPPERBODY
10
0
20
0
30
0
70
128
71
165
72
166
73
-167
0
VERTEX
8
UPPERBODY
10
0
20
0
30
0
70
128
71
-165
72
-167
73
-170
0
VERTEX
8
UPPERBODY
10
0
20
0
30
0
70
128
71
163
72
-165
73
-170
0
VERTEX
8
UPPERBODY
10
0
20
0
30
0
70
128
71
-163
72
170
73
-172
0
VERTEX
8
UPPERBODY
10
0
20
0
30
0
70
128
71
-163
72
172
73
164
0
VERTEX
8
UPPERBODY
10
0
20
0
30
0
70
128
71
155
72
-154
73
-147
0
VERTEX
8
UPPERBODY
10
0
20
0
30
0
70
128
71
-155
72
147
73
-148
0
VERTEX
8
UPPERBODY
10
0
20
0
30
0
70
128
71
154
72
-171
73
-149
0
VERTEX
8
UPPERBODY
10
0
20
0
30
0
70
128
71
-154
72
149
73
-147
0
VERTEX
8
UPPERBODY
10
0
20
0
30
0
70
128
71
-150
72
-155
73
148
0
VERTEX
8
UPPERBODY
10
0
20
0
30
0
70
128
71
169
72
-155
73
-150
0
VERTEX
8
UPPERBODY
10
0
20
0
30
0
70
128
71
-169
72
150
73
-151
0
VERTEX
8
UPPERBODY
10
0
20
0
30
0
70
128
71
171
72
-169
73
-152
0
VERTEX
8
UPPERBODY
10
0
20
0
30
0
70
128
71
-152
72
-169
73
151
0
VERTEX
8
UPPERBODY
10
0
20
0
30
0
70
128
71
-149
72
-171
73
152
0
VERTEX
8
UPPERBODY
10
0
20
0
30
0
70
128
71
161
72
-162
73
-71
0
VERTEX
8
UPPERBODY
10
0
20
0
30
0
70
128
71
-161
72
71
73
-72
0
VERTEX
8
UPPERBODY
10
0
20
0
30
0
70
128
71
172
72
-161
73
-72
0
VERTEX
8
UPPERBODY
10
0
20
0
30
0
70
128
71
-172
72
72
73
-76
0
VERTEX
8
UPPERBODY
10
0
20
0
30
0
70
128
71
-71
72
-162
73
73
0
VERTEX
8
UPPERBODY
10
0
20
0
30
0
70
128
71
162
72
-164
73
-73
0
VERTEX
8
UPPERBODY
10
0
20
0
30
0
70
128
71
74
72
-73
73
-164
0
VERTEX
8
UPPERBODY
10
0
20
0
30
0
70
128
71
-74
72
-164
73
75
0
VERTEX
8
UPPERBODY
10
0
20
0
30
0
70
128
71
-76
72
164
73
-172
0
VERTEX
8
UPPERBODY
10
0
20
0
30
0
70
128
71
-75
72
-164
73
76
0
SEQEND
8
UPPERBODY
0
ENDSEC
0
EOF
