0
SECTION
2
HEADER
9
$ACADVER
1
AC1008
9
$UCSORG
10
0.0
20
0.0
30
0.0
9
$UCSXDIR
10
1.0
20
0.0
30
0.0
9
$TILEMODE
70
1
9
$UCSYDIR
10
0.0
20
1.0
30
0.0
9
$EXTMIN
10
-388.525757
20
-490.635925
30
-264.466736
9
$EXTMAX
10
142.465424
20
434.309326
30
86.866837
0
ENDSEC
0
SECTION
2
TABLES
0
TABLE
2
LTYPE
70
1
0
LTYPE
2
CONTINUOUS
70
64
3
Solid line
72
65
73
0
40
0.0
0
ENDTAB
0
TABLE
2
LAYER
70
2
0
LAYER
2
BOT_BODY
70
0
62
1
6
CONTINUOUS
0
LAYER
2
TOP_BODY2
70
0
62
5
6
CONTINUOUS
0
LAYER
2
0
70
0
62
7
6
CONTINUOUS
0
ENDTAB
0
TABLE
2
STYLE
70
1
0
STYLE
2
STANDARD
70
0
40
0.0
41
1.0
50
0.0
71
0
42
0.2
3
txt
4

0
ENDTAB
0
TABLE
2
UCS
70
0
0
ENDTAB
0
ENDSEC
0
SECTION
2
ENTITIES
0
POLYLINE
8
BOT_BODY
66
1
70
64
71
66
72
80
0
VERTEX
8
BOT_BODY
10
-269.512146
20
71.282684
30
-1.122833
70
192
0
VERTEX
8
BOT_BODY
10
-110.212158
20
71.282669
30
-1.122833
70
192
0
VERTEX
8
BOT_BODY
10
-119.504654
20
99.567154
30
-29.407104
70
192
0
VERTEX
8
BOT_BODY
10
-175.790649
20
106.638023
30
-36.478165
70
192
0
VERTEX
8
BOT_BODY
10
-189.862167
20
134.922272
30
-64.762405
70
192
0
VERTEX
8
BOT_BODY
10
-203.933655
20
106.638031
30
-36.478165
70
192
0
VERTEX
8
BOT_BODY
10
-260.219666
20
99.567162
30
-29.407104
70
192
0
VERTEX
8
BOT_BODY
10
-269.512146
20
198.622818
30
-1.122845
70
192
0
VERTEX
8
BOT_BODY
10
-110.212158
20
198.622803
30
-1.122845
70
192
0
VERTEX
8
BOT_BODY
10
-119.504662
20
170.338547
30
-29.407120
70
192
0
VERTEX
8
BOT_BODY
10
-175.790649
20
163.267487
30
-36.478188
70
192
0
VERTEX
8
BOT_BODY
10
-189.862167
20
134.983276
30
-64.762421
70
192
0
VERTEX
8
BOT_BODY
10
-203.933655
20
163.267487
30
-36.478188
70
192
0
VERTEX
8
BOT_BODY
10
-260.219666
20
170.338547
30
-29.407120
70
192
0
VERTEX
8
BOT_BODY
10
-260.025330
20
107.882523
30
-40.760963
70
192
0
VERTEX
8
BOT_BODY
10
-225.642960
20
107.882523
30
-40.760963
70
192
0
VERTEX
8
BOT_BODY
10
-241.688080
20
152.882523
30
-40.760963
70
192
0
VERTEX
8
BOT_BODY
10
-260.025330
20
156.382202
30
-160.682190
70
192
0
VERTEX
8
BOT_BODY
10
-225.642960
20
156.382202
30
-160.682190
70
192
0
VERTEX
8
BOT_BODY
10
-241.688080
20
201.382217
30
-160.682190
70
192
0
VERTEX
8
BOT_BODY
10
-234.603638
20
149.683594
30
-74.771133
70
192
0
VERTEX
8
BOT_BODY
10
-234.603638
20
135.867569
30
-42.613441
70
192
0
VERTEX
8
BOT_BODY
10
-220.984116
20
132.713348
30
-35.271873
70
192
0
VERTEX
8
BOT_BODY
10
-204.861847
20
133.526672
30
-37.164928
70
192
0
VERTEX
8
BOT_BODY
10
-203.976013
20
135.830795
30
-42.527893
70
192
0
VERTEX
8
BOT_BODY
10
-214.314102
20
149.316742
30
-73.917297
70
192
0
VERTEX
8
BOT_BODY
10
-260.048157
20
107.882484
30
-242.844086
70
192
0
VERTEX
8
BOT_BODY
10
-225.665771
20
107.882484
30
-242.844086
70
192
0
VERTEX
8
BOT_BODY
10
-241.710892
20
152.882523
30
-242.844070
70
192
0
VERTEX
8
BOT_BODY
10
-260.048157
20
156.382202
30
-161.964706
70
192
0
VERTEX
8
BOT_BODY
10
-225.665771
20
156.382202
30
-161.964706
70
192
0
VERTEX
8
BOT_BODY
10
-241.710892
20
201.382217
30
-161.964706
70
192
0
VERTEX
8
BOT_BODY
10
-211.062927
20
112.554657
30
-264.466675
70
192
0
VERTEX
8
BOT_BODY
10
-242.522903
20
81.856438
30
-264.466675
70
192
0
VERTEX
8
BOT_BODY
10
-273.982910
20
112.554649
30
-264.466675
70
192
0
VERTEX
8
BOT_BODY
10
-242.522919
20
189.300140
30
-264.466736
70
192
0
VERTEX
8
BOT_BODY
10
-220.131409
20
114.958992
30
-243.226807
70
192
0
VERTEX
8
BOT_BODY
10
-242.522903
20
93.109779
30
-243.226822
70
192
0
VERTEX
8
BOT_BODY
10
-264.914368
20
114.958992
30
-243.226807
70
192
0
VERTEX
8
BOT_BODY
10
-242.522919
20
169.582138
30
-243.226807
70
192
0
VERTEX
8
BOT_BODY
10
-120.042549
20
107.882523
30
-40.760963
70
192
0
VERTEX
8
BOT_BODY
10
-154.424942
20
107.882523
30
-40.760963
70
192
0
VERTEX
8
BOT_BODY
10
-138.379822
20
152.882523
30
-40.760963
70
192
0
VERTEX
8
BOT_BODY
10
-120.042549
20
156.382202
30
-160.682190
70
192
0
VERTEX
8
BOT_BODY
10
-154.424942
20
156.382202
30
-160.682190
70
192
0
VERTEX
8
BOT_BODY
10
-138.379822
20
201.382217
30
-160.682190
70
192
0
VERTEX
8
BOT_BODY
10
-145.924438
20
149.683594
30
-74.771103
70
192
0
VERTEX
8
BOT_BODY
10
-145.924438
20
135.867584
30
-42.613422
70
192
0
VERTEX
8
BOT_BODY
10
-158.984940
20
132.713364
30
-35.271854
70
192
0
VERTEX
8
BOT_BODY
10
-175.107193
20
133.526688
30
-37.164913
70
192
0
VERTEX
8
BOT_BODY
10
-175.993027
20
135.830811
30
-42.527874
70
192
0
VERTEX
8
BOT_BODY
10
-165.654953
20
149.316757
30
-73.917282
70
192
0
VERTEX
8
BOT_BODY
10
-120.195938
20
107.882484
30
-242.844086
70
192
0
VERTEX
8
BOT_BODY
10
-154.578339
20
107.882484
30
-242.844086
70
192
0
VERTEX
8
BOT_BODY
10
-138.533218
20
152.882523
30
-242.844070
70
192
0
VERTEX
8
BOT_BODY
10
-120.195938
20
156.382202
30
-161.964706
70
192
0
VERTEX
8
BOT_BODY
10
-154.578339
20
156.382202
30
-161.964706
70
192
0
VERTEX
8
BOT_BODY
10
-138.533218
20
201.382217
30
-161.964706
70
192
0
VERTEX
8
BOT_BODY
10
-169.181168
20
112.554642
30
-264.466675
70
192
0
VERTEX
8
BOT_BODY
10
-137.721176
20
81.856438
30
-264.466675
70
192
0
VERTEX
8
BOT_BODY
10
-106.261147
20
112.554649
30
-264.466675
70
192
0
VERTEX
8
BOT_BODY
10
-137.721191
20
189.300064
30
-264.466736
70
192
0
VERTEX
8
BOT_BODY
10
-160.112549
20
114.958969
30
-243.226807
70
192
0
VERTEX
8
BOT_BODY
10
-137.721176
20
93.109772
30
-243.226822
70
192
0
VERTEX
8
BOT_BODY
10
-115.329689
20
114.958984
30
-243.226807
70
192
0
VERTEX
8
BOT_BODY
10
-137.721191
20
169.582062
30
-243.226807
70
192
0
VERTEX
8
BOT_BODY
10
0
20
0
30
0
70
128
71
6
72
5
73
-4
0
VERTEX
8
BOT_BODY
10
0
20
0
30
0
70
128
71
3
72
2
73
-1
0
VERTEX
8
BOT_BODY
10
0
20
0
30
0
70
128
71
4
72
-3
73
-1
0
VERTEX
8
BOT_BODY
10
0
20
0
30
0
70
128
71
-6
72
-4
73
-1
0
VERTEX
8
BOT_BODY
10
0
20
0
30
0
70
128
71
7
72
-6
73
1
0
VERTEX
8
BOT_BODY
10
0
20
0
30
0
70
128
71
1
72
2
73
-9
0
VERTEX
8
BOT_BODY
10
0
20
0
30
0
70
128
71
-1
72
9
73
8
0
VERTEX
8
BOT_BODY
10
0
20
0
30
0
70
128
71
2
72
3
73
-10
0
VERTEX
8
BOT_BODY
10
0
20
0
30
0
70
128
71
-2
72
10
73
9
0
VERTEX
8
BOT_BODY
10
0
20
0
30
0
70
128
71
3
72
4
73
-11
0
VERTEX
8
BOT_BODY
10
0
20
0
30
0
70
128
71
-3
72
11
73
10
0
VERTEX
8
BOT_BODY
10
0
20
0
30
0
70
128
71
4
72
5
73
-12
0
VERTEX
8
BOT_BODY
10
0
20
0
30
0
70
128
71
-4
72
12
73
11
0
VERTEX
8
BOT_BODY
10
0
20
0
30
0
70
128
71
5
72
6
73
-13
0
VERTEX
8
BOT_BODY
10
0
20
0
30
0
70
128
71
-5
72
13
73
12
0
VERTEX
8
BOT_BODY
10
0
20
0
30
0
70
128
71
6
72
7
73
-14
0
VERTEX
8
BOT_BODY
10
0
20
0
30
0
70
128
71
-6
72
14
73
13
0
VERTEX
8
BOT_BODY
10
0
20
0
30
0
70
128
71
7
72
1
73
-8
0
VERTEX
8
BOT_BODY
10
0
20
0
30
0
70
128
71
-7
72
8
73
14
0
VERTEX
8
BOT_BODY
10
0
20
0
30
0
70
128
71
11
72
12
73
-13
0
VERTEX
8
BOT_BODY
10
0
20
0
30
0
70
128
71
8
72
9
73
-10
0
VERTEX
8
BOT_BODY
10
0
20
0
30
0
70
128
71
-8
72
10
73
-11
0
VERTEX
8
BOT_BODY
10
0
20
0
30
0
70
128
71
-8
72
-11
73
-13
0
VERTEX
8
BOT_BODY
10
0
20
0
30
0
70
128
71
-8
72
13
73
14
0
VERTEX
8
BOT_BODY
10
0
20
0
30
0
70
128
71
17
72
15
73
16
0
VERTEX
8
BOT_BODY
10
0
20
0
30
0
70
128
71
19
72
16
73
-15
0
VERTEX
8
BOT_BODY
10
0
20
0
30
0
70
128
71
18
72
-19
73
15
0
VERTEX
8
BOT_BODY
10
0
20
0
30
0
70
128
71
20
72
17
73
-16
0
VERTEX
8
BOT_BODY
10
0
20
0
30
0
70
128
71
19
72
-20
73
16
0
VERTEX
8
BOT_BODY
10
0
20
0
30
0
70
128
71
18
72
15
73
-17
0
VERTEX
8
BOT_BODY
10
0
20
0
30
0
70
128
71
20
72
-18
73
17
0
VERTEX
8
BOT_BODY
10
0
20
0
30
0
70
128
71
22
72
21
73
-26
0
VERTEX
8
BOT_BODY
10
0
20
0
30
0
70
128
71
-22
72
26
73
-25
0
VERTEX
8
BOT_BODY
10
0
20
0
30
0
70
128
71
23
72
-22
73
-25
0
VERTEX
8
BOT_BODY
10
0
20
0
30
0
70
128
71
24
72
-23
73
25
0
VERTEX
8
BOT_BODY
10
0
20
0
30
0
70
128
71
27
72
28
73
-31
0
VERTEX
8
BOT_BODY
10
0
20
0
30
0
70
128
71
-27
72
31
73
30
0
VERTEX
8
BOT_BODY
10
0
20
0
30
0
70
128
71
28
72
29
73
-32
0
VERTEX
8
BOT_BODY
10
0
20
0
30
0
70
128
71
-28
72
32
73
31
0
VERTEX
8
BOT_BODY
10
0
20
0
30
0
70
128
71
29
72
27
73
-30
0
VERTEX
8
BOT_BODY
10
0
20
0
30
0
70
128
71
-29
72
30
73
32
0
VERTEX
8
BOT_BODY
10
0
20
0
30
0
70
128
71
32
72
30
73
31
0
VERTEX
8
BOT_BODY
10
0
20
0
30
0
70
128
71
38
72
34
73
-33
0
VERTEX
8
BOT_BODY
10
0
20
0
30
0
70
128
71
37
72
-38
73
33
0
VERTEX
8
BOT_BODY
10
0
20
0
30
0
70
128
71
39
72
35
73
-34
0
VERTEX
8
BOT_BODY
10
0
20
0
30
0
70
128
71
38
72
-39
73
34
0
VERTEX
8
BOT_BODY
10
0
20
0
30
0
70
128
71
40
72
36
73
-35
0
VERTEX
8
BOT_BODY
10
0
20
0
30
0
70
128
71
39
72
-40
73
35
0
VERTEX
8
BOT_BODY
10
0
20
0
30
0
70
128
71
37
72
33
73
-36
0
VERTEX
8
BOT_BODY
10
0
20
0
30
0
70
128
71
40
72
-37
73
36
0
VERTEX
8
BOT_BODY
10
0
20
0
30
0
70
128
71
37
72
40
73
-39
0
VERTEX
8
BOT_BODY
10
0
20
0
30
0
70
128
71
-37
72
39
73
38
0
VERTEX
8
BOT_BODY
10
0
20
0
30
0
70
128
71
42
72
41
73
43
0
VERTEX
8
BOT_BODY
10
0
20
0
30
0
70
128
71
41
72
42
73
-45
0
VERTEX
8
BOT_BODY
10
0
20
0
30
0
70
128
71
-41
72
45
73
44
0
VERTEX
8
BOT_BODY
10
0
20
0
30
0
70
128
71
42
72
43
73
-46
0
VERTEX
8
BOT_BODY
10
0
20
0
30
0
70
128
71
-42
72
46
73
45
0
VERTEX
8
BOT_BODY
10
0
20
0
30
0
70
128
71
43
72
41
73
-44
0
VERTEX
8
BOT_BODY
10
0
20
0
30
0
70
128
71
-43
72
44
73
46
0
VERTEX
8
BOT_BODY
10
0
20
0
30
0
70
128
71
52
72
47
73
-48
0
VERTEX
8
BOT_BODY
10
0
20
0
30
0
70
128
71
51
72
-52
73
-48
0
VERTEX
8
BOT_BODY
10
0
20
0
30
0
70
128
71
-51
72
48
73
-49
0
VERTEX
8
BOT_BODY
10
0
20
0
30
0
70
128
71
-51
72
49
73
50
0
VERTEX
8
BOT_BODY
10
0
20
0
30
0
70
128
71
57
72
54
73
-53
0
VERTEX
8
BOT_BODY
10
0
20
0
30
0
70
128
71
56
72
-57
73
53
0
VERTEX
8
BOT_BODY
10
0
20
0
30
0
70
128
71
58
72
55
73
-54
0
VERTEX
8
BOT_BODY
10
0
20
0
30
0
70
128
71
57
72
-58
73
54
0
VERTEX
8
BOT_BODY
10
0
20
0
30
0
70
128
71
56
72
53
73
-55
0
VERTEX
8
BOT_BODY
10
0
20
0
30
0
70
128
71
58
72
-56
73
55
0
VERTEX
8
BOT_BODY
10
0
20
0
30
0
70
128
71
57
72
56
73
58
0
VERTEX
8
BOT_BODY
10
0
20
0
30
0
70
128
71
59
72
60
73
-64
0
VERTEX
8
BOT_BODY
10
0
20
0
30
0
70
128
71
-59
72
64
73
63
0
VERTEX
8
BOT_BODY
10
0
20
0
30
0
70
128
71
60
72
61
73
-65
0
VERTEX
8
BOT_BODY
10
0
20
0
30
0
70
128
71
-60
72
65
73
64
0
VERTEX
8
BOT_BODY
10
0
20
0
30
0
70
128
71
61
72
62
73
-66
0
VERTEX
8
BOT_BODY
10
0
20
0
30
0
70
128
71
-61
72
66
73
65
0
VERTEX
8
BOT_BODY
10
0
20
0
30
0
70
128
71
62
72
59
73
-63
0
VERTEX
8
BOT_BODY
10
0
20
0
30
0
70
128
71
-62
72
63
73
66
0
VERTEX
8
BOT_BODY
10
0
20
0
30
0
70
128
71
65
72
66
73
-63
0
VERTEX
8
BOT_BODY
10
0
20
0
30
0
70
128
71
64
72
-65
73
63
0
SEQEND
8
BOT_BODY
0
POLYLINE
8
TOP_BODY2
66
1
70
64
71
97
72
90
0
VERTEX
8
TOP_BODY2
10
-286.937134
20
67.802582
30
-0.429063
70
192
0
VERTEX
8
TOP_BODY2
10
-270.244690
20
67.802551
30
54.303291
70
192
0
VERTEX
8
TOP_BODY2
10
-190.000000
20
67.802582
30
31.371222
70
192
0
VERTEX
8
TOP_BODY2
10
-109.755325
20
67.802536
30
54.303291
70
192
0
VERTEX
8
TOP_BODY2
10
-93.062874
20
67.802582
30
-0.429063
70
192
0
VERTEX
8
TOP_BODY2
10
-286.937134
20
137.802582
30
-0.260178
70
192
0
VERTEX
8
TOP_BODY2
10
-263.229553
20
137.802582
30
75.517593
70
192
0
VERTEX
8
TOP_BODY2
10
-190.000000
20
137.802582
30
54.594879
70
192
0
VERTEX
8
TOP_BODY2
10
-116.770470
20
137.802567
30
75.517593
70
192
0
VERTEX
8
TOP_BODY2
10
-93.062874
20
137.802582
30
-0.260178
70
192
0
VERTEX
8
TOP_BODY2
10
-286.937134
20
207.802582
30
-0.429076
70
192
0
VERTEX
8
TOP_BODY2
10
-270.244690
20
207.802582
30
54.303276
70
192
0
VERTEX
8
TOP_BODY2
10
-190.000000
20
207.802582
30
31.371210
70
192
0
VERTEX
8
TOP_BODY2
10
-109.755325
20
207.802567
30
54.303276
70
192
0
VERTEX
8
TOP_BODY2
10
-93.062874
20
207.802582
30
-0.429076
70
192
0
VERTEX
8
TOP_BODY2
10
-58.497314
20
122.420837
30
-33.603394
70
192
0
VERTEX
8
TOP_BODY2
10
-58.497314
20
175.378540
30
-75.479408
70
192
0
VERTEX
8
TOP_BODY2
10
-89.797302
20
136.542908
30
-44.770332
70
192
0
VERTEX
8
TOP_BODY2
10
-58.497314
20
122.420837
30
72.023132
70
192
0
VERTEX
8
TOP_BODY2
10
-58.497314
20
175.378540
30
72.023132
70
192
0
VERTEX
8
TOP_BODY2
10
-89.797302
20
136.542908
30
86.866837
70
192
0
VERTEX
8
TOP_BODY2
10
-58.497314
20
53.390907
30
-33.933838
70
192
0
VERTEX
8
TOP_BODY2
10
-58.497314
20
53.390911
30
-75.435402
70
192
0
VERTEX
8
TOP_BODY2
10
-89.797302
20
53.390930
30
-45.000916
70
192
0
VERTEX
8
TOP_BODY2
10
-58.497253
20
122.626617
30
-33.933830
70
192
0
VERTEX
8
TOP_BODY2
10
-58.497284
20
175.107300
30
-75.435379
70
192
0
VERTEX
8
TOP_BODY2
10
-89.797272
20
136.621429
30
-45.000908
70
192
0
VERTEX
8
TOP_BODY2
10
-78.373955
20
1.436638
30
-52.151005
70
192
0
VERTEX
8
TOP_BODY2
10
-73.612358
20
1.436639
30
-42.627789
70
192
0
VERTEX
8
TOP_BODY2
10
-68.850739
20
1.436638
30
-52.151012
70
192
0
VERTEX
8
TOP_BODY2
10
-78.373955
20
53.705048
30
-52.151024
70
192
0
VERTEX
8
TOP_BODY2
10
-73.612358
20
53.704994
30
-42.627792
70
192
0
VERTEX
8
TOP_BODY2
10
-68.850739
20
53.705048
30
-52.151024
70
192
0
VERTEX
8
TOP_BODY2
10
-68.247787
20
15.256843
30
-60.683842
70
192
0
VERTEX
8
TOP_BODY2
10
-64.542419
20
15.256844
30
-53.273075
70
192
0
VERTEX
8
TOP_BODY2
10
-60.837006
20
15.256843
30
-60.683842
70
192
0
VERTEX
8
TOP_BODY2
10
-68.247787
20
53.674149
30
-60.683800
70
192
0
VERTEX
8
TOP_BODY2
10
-64.542419
20
53.674149
30
-53.273087
70
192
0
VERTEX
8
TOP_BODY2
10
-60.837006
20
53.674149
30
-60.683800
70
192
0
VERTEX
8
TOP_BODY2
10
-104.514381
20
137.407883
30
35.669815
70
192
0
VERTEX
8
TOP_BODY2
10
-95.768074
20
137.407867
30
9.445923
70
192
0
VERTEX
8
TOP_BODY2
10
-90.503761
20
137.407898
30
35.669830
70
192
0
VERTEX
8
TOP_BODY2
10
-90.503761
20
137.407883
30
9.445923
70
192
0
VERTEX
8
TOP_BODY2
10
-275.197754
20
137.407883
30
35.669815
70
192
0
VERTEX
8
TOP_BODY2
10
-283.944061
20
137.407867
30
9.445923
70
192
0
VERTEX
8
TOP_BODY2
10
-289.208374
20
137.407898
30
35.669830
70
192
0
VERTEX
8
TOP_BODY2
10
-289.208374
20
137.407883
30
9.445923
70
192
0
VERTEX
8
TOP_BODY2
10
-320.693359
20
122.420799
30
-33.603409
70
192
0
VERTEX
8
TOP_BODY2
10
-320.693359
20
175.378525
30
-75.479401
70
192
0
VERTEX
8
TOP_BODY2
10
-289.393372
20
136.542908
30
-44.770348
70
192
0
VERTEX
8
TOP_BODY2
10
-320.693359
20
122.420815
30
72.023170
70
192
0
VERTEX
8
TOP_BODY2
10
-320.693359
20
175.378555
30
72.023170
70
192
0
VERTEX
8
TOP_BODY2
10
-289.393372
20
136.542923
30
86.866829
70
192
0
VERTEX
8
TOP_BODY2
10
-320.693359
20
53.390877
30
-33.933815
70
192
0
VERTEX
8
TOP_BODY2
10
-320.693359
20
53.390873
30
-75.435425
70
192
0
VERTEX
8
TOP_BODY2
10
-289.393372
20
53.390900
30
-45.000900
70
192
0
VERTEX
8
TOP_BODY2
10
-320.693420
20
122.626579
30
-33.933846
70
192
0
VERTEX
8
TOP_BODY2
10
-320.693390
20
175.107285
30
-75.435371
70
192
0
VERTEX
8
TOP_BODY2
10
-289.393402
20
136.621429
30
-45.000900
70
192
0
VERTEX
8
TOP_BODY2
10
-300.807159
20
1.436638
30
-50.987240
70
192
0
VERTEX
8
TOP_BODY2
10
-305.420990
20
1.436639
30
-41.759602
70
192
0
VERTEX
8
TOP_BODY2
10
-310.034821
20
1.436638
30
-50.987247
70
192
0
VERTEX
8
TOP_BODY2
10
-300.807159
20
53.705048
30
-50.987251
70
192
0
VERTEX
8
TOP_BODY2
10
-305.420990
20
53.704994
30
-41.759605
70
192
0
VERTEX
8
TOP_BODY2
10
-310.034821
20
53.705048
30
-50.987251
70
192
0
VERTEX
8
TOP_BODY2
10
-310.517578
20
15.256843
30
-60.161587
70
192
0
VERTEX
8
TOP_BODY2
10
-314.265137
20
15.256844
30
-52.666470
70
192
0
VERTEX
8
TOP_BODY2
10
-318.012726
20
15.256843
30
-60.161587
70
192
0
VERTEX
8
TOP_BODY2
10
-310.517578
20
53.674149
30
-60.161545
70
192
0
VERTEX
8
TOP_BODY2
10
-314.265137
20
53.674149
30
-52.666473
70
192
0
VERTEX
8
TOP_BODY2
10
-318.012726
20
53.674149
30
-60.161545
70
192
0
VERTEX
8
TOP_BODY2
10
-237.349457
20
86.435997
30
68.918213
70
192
0
VERTEX
8
TOP_BODY2
10
-144.610886
20
86.435997
30
68.918213
70
192
0
VERTEX
8
TOP_BODY2
10
-144.610886
20
86.436005
30
85.005508
70
192
0
VERTEX
8
TOP_BODY2
10
-237.349457
20
86.436005
30
85.005508
70
192
0
VERTEX
8
TOP_BODY2
10
-237.349457
20
145.107437
30
68.918213
70
192
0
VERTEX
8
TOP_BODY2
10
-144.610886
20
145.107437
30
68.918213
70
192
0
VERTEX
8
TOP_BODY2
10
-144.610886
20
145.107437
30
68.920303
70
192
0
VERTEX
8
TOP_BODY2
10
-237.349457
20
145.107437
30
68.920303
70
192
0
VERTEX
8
TOP_BODY2
10
-233.961090
20
47.992954
30
71.596642
70
192
0
VERTEX
8
TOP_BODY2
10
-228.036102
20
47.992962
30
83.446632
70
192
0
VERTEX
8
TOP_BODY2
10
-222.111084
20
47.992954
30
71.596642
70
192
0
VERTEX
8
TOP_BODY2
10
-233.961090
20
86.410217
30
71.596642
70
192
0
VERTEX
8
TOP_BODY2
10
-228.036102
20
86.410225
30
83.446632
70
192
0
VERTEX
8
TOP_BODY2
10
-222.111084
20
86.410217
30
71.596642
70
192
0
VERTEX
8
TOP_BODY2
10
-195.820908
20
47.992954
30
71.596642
70
192
0
VERTEX
8
TOP_BODY2
10
-189.895920
20
47.992962
30
83.446632
70
192
0
VERTEX
8
TOP_BODY2
10
-183.970901
20
47.992954
30
71.596642
70
192
0
VERTEX
8
TOP_BODY2
10
-195.820908
20
86.410217
30
71.596642
70
192
0
VERTEX
8
TOP_BODY2
10
-189.895920
20
86.410225
30
83.446632
70
192
0
VERTEX
8
TOP_BODY2
10
-183.970901
20
86.410217
30
71.596642
70
192
0
VERTEX
8
TOP_BODY2
10
-159.363373
20
47.992954
30
71.596642
70
192
0
VERTEX
8
TOP_BODY2
10
-153.438385
20
47.992962
30
83.446632
70
192
0
VERTEX
8
TOP_BODY2
10
-147.513367
20
47.992954
30
71.596642
70
192
0
VERTEX
8
TOP_BODY2
10
-159.363373
20
86.410217
30
71.596642
70
192
0
VERTEX
8
TOP_BODY2
10
-153.438385
20
86.410225
30
83.446632
70
192
0
VERTEX
8
TOP_BODY2
10
-147.513367
20
86.410217
30
71.596642
70
192
0
VERTEX
8
TOP_BODY2
10
0
20
0
30
0
70
128
71
3
72
2
73
-1
0
VERTEX
8
TOP_BODY2
10
0
20
0
30
0
70
128
71
-3
72
1
73
-5
0
VERTEX
8
TOP_BODY2
10
0
20
0
30
0
70
128
71
4
72
-3
73
5
0
VERTEX
8
TOP_BODY2
10
0
20
0
30
0
70
128
71
1
72
2
73
-7
0
VERTEX
8
TOP_BODY2
10
0
20
0
30
0
70
128
71
-1
72
7
73
6
0
VERTEX
8
TOP_BODY2
10
0
20
0
30
0
70
128
71
2
72
3
73
-8
0
VERTEX
8
TOP_BODY2
10
0
20
0
30
0
70
128
71
-2
72
8
73
7
0
VERTEX
8
TOP_BODY2
10
0
20
0
30
0
70
128
71
3
72
4
73
-9
0
VERTEX
8
TOP_BODY2
10
0
20
0
30
0
70
128
71
-3
72
9
73
8
0
VERTEX
8
TOP_BODY2
10
0
20
0
30
0
70
128
71
4
72
5
73
-10
0
VERTEX
8
TOP_BODY2
10
0
20
0
30
0
70
128
71
-4
72
10
73
9
0
VERTEX
8
TOP_BODY2
10
0
20
0
30
0
70
128
71
6
72
7
73
-12
0
VERTEX
8
TOP_BODY2
10
0
20
0
30
0
70
128
71
-6
72
12
73
11
0
VERTEX
8
TOP_BODY2
10
0
20
0
30
0
70
128
71
7
72
8
73
-13
0
VERTEX
8
TOP_BODY2
10
0
20
0
30
0
70
128
71
-7
72
13
73
12
0
VERTEX
8
TOP_BODY2
10
0
20
0
30
0
70
128
71
8
72
9
73
-14
0
VERTEX
8
TOP_BODY2
10
0
20
0
30
0
70
128
71
-8
72
14
73
13
0
VERTEX
8
TOP_BODY2
10
0
20
0
30
0
70
128
71
9
72
10
73
-15
0
VERTEX
8
TOP_BODY2
10
0
20
0
30
0
70
128
71
-9
72
15
73
14
0
VERTEX
8
TOP_BODY2
10
0
20
0
30
0
70
128
71
11
72
12
73
-13
0
VERTEX
8
TOP_BODY2
10
0
20
0
30
0
70
128
71
15
72
-11
73
-13
0
VERTEX
8
TOP_BODY2
10
0
20
0
30
0
70
128
71
-15
72
13
73
14
0
VERTEX
8
TOP_BODY2
10
0
20
0
30
0
70
128
71
16
72
17
73
-20
0
VERTEX
8
TOP_BODY2
10
0
20
0
30
0
70
128
71
-16
72
20
73
19
0
VERTEX
8
TOP_BODY2
10
0
20
0
30
0
70
128
71
17
72
18
73
-21
0
VERTEX
8
TOP_BODY2
10
0
20
0
30
0
70
128
71
-17
72
21
73
20
0
VERTEX
8
TOP_BODY2
10
0
20
0
30
0
70
128
71
18
72
16
73
-19
0
VERTEX
8
TOP_BODY2
10
0
20
0
30
0
70
128
71
-18
72
19
73
21
0
VERTEX
8
TOP_BODY2
10
0
20
0
30
0
70
128
71
19
72
20
73
21
0
VERTEX
8
TOP_BODY2
10
0
20
0
30
0
70
128
71
24
72
23
73
22
0
VERTEX
8
TOP_BODY2
10
0
20
0
30
0
70
128
71
22
72
23
73
-26
0
VERTEX
8
TOP_BODY2
10
0
20
0
30
0
70
128
71
-22
72
26
73
25
0
VERTEX
8
TOP_BODY2
10
0
20
0
30
0
70
128
71
23
72
24
73
-27
0
VERTEX
8
TOP_BODY2
10
0
20
0
30
0
70
128
71
-23
72
27
73
26
0
VERTEX
8
TOP_BODY2
10
0
20
0
30
0
70
128
71
24
72
22
73
-25
0
VERTEX
8
TOP_BODY2
10
0
20
0
30
0
70
128
71
-24
72
25
73
27
0
VERTEX
8
TOP_BODY2
10
0
20
0
30
0
70
128
71
28
72
29
73
-32
0
VERTEX
8
TOP_BODY2
10
0
20
0
30
0
70
128
71
-28
72
32
73
31
0
VERTEX
8
TOP_BODY2
10
0
20
0
30
0
70
128
71
29
72
30
73
-33
0
VERTEX
8
TOP_BODY2
10
0
20
0
30
0
70
128
71
-29
72
33
73
32
0
VERTEX
8
TOP_BODY2
10
0
20
0
30
0
70
128
71
34
72
35
73
-38
0
VERTEX
8
TOP_BODY2
10
0
20
0
30
0
70
128
71
-34
72
38
73
37
0
VERTEX
8
TOP_BODY2
10
0
20
0
30
0
70
128
71
35
72
36
73
-39
0
VERTEX
8
TOP_BODY2
10
0
20
0
30
0
70
128
71
-35
72
39
73
38
0
VERTEX
8
TOP_BODY2
10
0
20
0
30
0
70
128
71
43
72
42
73
-40
0
VERTEX
8
TOP_BODY2
10
0
20
0
30
0
70
128
71
41
72
-43
73
40
0
VERTEX
8
TOP_BODY2
10
0
20
0
30
0
70
128
71
44
72
46
73
-47
0
VERTEX
8
TOP_BODY2
10
0
20
0
30
0
70
128
71
-44
72
47
73
45
0
VERTEX
8
TOP_BODY2
10
0
20
0
30
0
70
128
71
52
72
49
73
-48
0
VERTEX
8
TOP_BODY2
10
0
20
0
30
0
70
128
71
51
72
-52
73
48
0
VERTEX
8
TOP_BODY2
10
0
20
0
30
0
70
128
71
53
72
50
73
-49
0
VERTEX
8
TOP_BODY2
10
0
20
0
30
0
70
128
71
52
72
-53
73
49
0
VERTEX
8
TOP_BODY2
10
0
20
0
30
0
70
128
71
51
72
48
73
-50
0
VERTEX
8
TOP_BODY2
10
0
20
0
30
0
70
128
71
53
72
-51
73
50
0
VERTEX
8
TOP_BODY2
10
0
20
0
30
0
70
128
71
53
72
52
73
51
0
VERTEX
8
TOP_BODY2
10
0
20
0
30
0
70
128
71
54
72
55
73
56
0
VERTEX
8
TOP_BODY2
10
0
20
0
30
0
70
128
71
58
72
55
73
-54
0
VERTEX
8
TOP_BODY2
10
0
20
0
30
0
70
128
71
57
72
-58
73
54
0
VERTEX
8
TOP_BODY2
10
0
20
0
30
0
70
128
71
59
72
56
73
-55
0
VERTEX
8
TOP_BODY2
10
0
20
0
30
0
70
128
71
58
72
-59
73
55
0
VERTEX
8
TOP_BODY2
10
0
20
0
30
0
70
128
71
57
72
54
73
-56
0
VERTEX
8
TOP_BODY2
10
0
20
0
30
0
70
128
71
59
72
-57
73
56
0
VERTEX
8
TOP_BODY2
10
0
20
0
30
0
70
128
71
64
72
61
73
-60
0
VERTEX
8
TOP_BODY2
10
0
20
0
30
0
70
128
71
63
72
-64
73
60
0
VERTEX
8
TOP_BODY2
10
0
20
0
30
0
70
128
71
65
72
62
73
-61
0
VERTEX
8
TOP_BODY2
10
0
20
0
30
0
70
128
71
64
72
-65
73
61
0
VERTEX
8
TOP_BODY2
10
0
20
0
30
0
70
128
71
70
72
67
73
-66
0
VERTEX
8
TOP_BODY2
10
0
20
0
30
0
70
128
71
69
72
-70
73
66
0
VERTEX
8
TOP_BODY2
10
0
20
0
30
0
70
128
71
71
72
68
73
-67
0
VERTEX
8
TOP_BODY2
10
0
20
0
30
0
70
128
71
70
72
-71
73
67
0
VERTEX
8
TOP_BODY2
10
0
20
0
30
0
70
128
71
72
72
73
73
-74
0
VERTEX
8
TOP_BODY2
10
0
20
0
30
0
70
128
71
-72
72
74
73
75
0
VERTEX
8
TOP_BODY2
10
0
20
0
30
0
70
128
71
73
72
77
73
-78
0
VERTEX
8
TOP_BODY2
10
0
20
0
30
0
70
128
71
-73
72
78
73
74
0
VERTEX
8
TOP_BODY2
10
0
20
0
30
0
70
128
71
74
72
78
73
-79
0
VERTEX
8
TOP_BODY2
10
0
20
0
30
0
70
128
71
-74
72
79
73
75
0
VERTEX
8
TOP_BODY2
10
0
20
0
30
0
70
128
71
75
72
79
73
-76
0
VERTEX
8
TOP_BODY2
10
0
20
0
30
0
70
128
71
-75
72
76
73
72
0
VERTEX
8
TOP_BODY2
10
0
20
0
30
0
70
128
71
80
72
81
73
-84
0
VERTEX
8
TOP_BODY2
10
0
20
0
30
0
70
128
71
-80
72
84
73
83
0
VERTEX
8
TOP_BODY2
10
0
20
0
30
0
70
128
71
81
72
82
73
-85
0
VERTEX
8
TOP_BODY2
10
0
20
0
30
0
70
128
71
-81
72
85
73
84
0
VERTEX
8
TOP_BODY2
10
0
20
0
30
0
70
128
71
86
72
87
73
-90
0
VERTEX
8
TOP_BODY2
10
0
20
0
30
0
70
128
71
-86
72
90
73
89
0
VERTEX
8
TOP_BODY2
10
0
20
0
30
0
70
128
71
87
72
88
73
-91
0
VERTEX
8
TOP_BODY2
10
0
20
0
30
0
70
128
71
-87
72
91
73
90
0
VERTEX
8
TOP_BODY2
10
0
20
0
30
0
70
128
71
92
72
93
73
-96
0
VERTEX
8
TOP_BODY2
10
0
20
0
30
0
70
128
71
-92
72
96
73
95
0
VERTEX
8
TOP_BODY2
10
0
20
0
30
0
70
128
71
93
72
94
73
-97
0
VERTEX
8
TOP_BODY2
10
0
20
0
30
0
70
128
71
-93
72
97
73
96
0
SEQEND
8
TOP_BODY2
0
ENDSEC
0
EOF
