0
SECTION
2
HEADER
9
$ACADVER
1
AC1008
9
$UCSORG
10
0.0
20
0.0
30
0.0
9
$UCSXDIR
10
1.0
20
0.0
30
0.0
9
$TILEMODE
70
1
9
$UCSYDIR
10
0.0
20
1.0
30
0.0
9
$EXTMIN
10
-324.966095
20
-4.538842
30
-260.419800
9
$EXTMAX
10
-55.101624
20
200.000000
30
86.933273
0
ENDSEC
0
SECTION
2
TABLES
0
TABLE
2
LTYPE
70
1
0
LTYPE
2
CONTINUOUS
70
64
3
Solid line
72
65
73
0
40
0.0
0
ENDTAB
0
TABLE
2
LAYER
70
10
0
LAYER
2
TOP_BODY
70
0
62
1
6
CONTINUOUS
0
LAYER
2
BOT_BODY
70
0
62
2
6
CONTINUOUS
0
LAYER
2
LEG_RT
70
0
62
3
6
CONTINUOUS
0
LAYER
2
LEG_LFT
70
0
62
4
6
CONTINUOUS
0
LAYER
2
LEG_FT_RT
70
0
62
5
6
CONTINUOUS
0
LAYER
2
LEG_FT_LFT
70
0
62
6
6
CONTINUOUS
0
LAYER
2
TOP_BODY01
70
0
62
7
6
CONTINUOUS
0
LAYER
2
LEG_LWRLFT
70
0
62
8
6
CONTINUOUS
0
LAYER
2
LEG_LWRRT
70
0
62
9
6
CONTINUOUS
0
LAYER
2
GUN_TOP_BD
70
0
62
10
6
CONTINUOUS
0
LAYER
2
0
70
0
62
7
6
CONTINUOUS
0
ENDTAB
0
TABLE
2
STYLE
70
1
0
STYLE
2
STANDARD
70
0
40
0.0
41
1.0
50
0.0
71
0
42
0.2
3
txt
4

0
ENDTAB
0
TABLE
2
UCS
70
0
0
ENDTAB
0
ENDSEC
0
SECTION
2
ENTITIES
0
POLYLINE
8
TOP_BODY
66
1
70
64
71
79
72
98
0
VERTEX
8
TOP_BODY
10
-273.062866
20
70.000008
30
0.784792
70
192
0
VERTEX
8
TOP_BODY
10
-256.770447
20
69.999901
30
49.662010
70
192
0
VERTEX
8
TOP_BODY
10
-190.000000
20
69.999992
30
30.584719
70
192
0
VERTEX
8
TOP_BODY
10
-123.229530
20
69.999901
30
49.662010
70
192
0
VERTEX
8
TOP_BODY
10
-106.937126
20
69.999992
30
0.784792
70
192
0
VERTEX
8
TOP_BODY
10
-286.937134
20
137.747452
30
0.870380
70
192
0
VERTEX
8
TOP_BODY
10
-263.229553
20
137.747437
30
71.993195
70
192
0
VERTEX
8
TOP_BODY
10
-190.000000
20
137.747437
30
51.070484
70
192
0
VERTEX
8
TOP_BODY
10
-116.770470
20
137.747437
30
71.993195
70
192
0
VERTEX
8
TOP_BODY
10
-93.062874
20
137.747452
30
0.870380
70
192
0
VERTEX
8
TOP_BODY
10
-273.062866
20
200.000000
30
0.784773
70
192
0
VERTEX
8
TOP_BODY
10
-256.770447
20
200.000000
30
49.662003
70
192
0
VERTEX
8
TOP_BODY
10
-190.000000
20
200.000000
30
30.584700
70
192
0
VERTEX
8
TOP_BODY
10
-123.229530
20
199.999985
30
49.662003
70
192
0
VERTEX
8
TOP_BODY
10
-106.937126
20
200.000000
30
0.784773
70
192
0
VERTEX
8
TOP_BODY
10
-55.101654
20
157.818954
30
56.822033
70
192
0
VERTEX
8
TOP_BODY
10
-55.101654
20
117.818939
30
76.822021
70
192
0
VERTEX
8
TOP_BODY
10
-55.101654
20
117.818954
30
-33.177982
70
192
0
VERTEX
8
TOP_BODY
10
-55.101654
20
107.818954
30
-43.177979
70
192
0
VERTEX
8
TOP_BODY
10
-55.101654
20
47.818901
30
-43.177975
70
192
0
VERTEX
8
TOP_BODY
10
-55.101624
20
47.818905
30
-73.177979
70
192
0
VERTEX
8
TOP_BODY
10
-55.101624
20
137.818954
30
-83.177979
70
192
0
VERTEX
8
TOP_BODY
10
-55.101624
20
157.818954
30
-63.177979
70
192
0
VERTEX
8
TOP_BODY
10
-90.879646
20
157.818954
30
66.933273
70
192
0
VERTEX
8
TOP_BODY
10
-90.879646
20
117.818954
30
86.933273
70
192
0
VERTEX
8
TOP_BODY
10
-90.879646
20
117.818954
30
-33.066723
70
192
0
VERTEX
8
TOP_BODY
10
-90.879646
20
107.818954
30
-43.066727
70
192
0
VERTEX
8
TOP_BODY
10
-90.879646
20
47.818939
30
-43.066723
70
192
0
VERTEX
8
TOP_BODY
10
-90.879646
20
47.818943
30
-73.066727
70
192
0
VERTEX
8
TOP_BODY
10
-90.879646
20
137.818954
30
-83.066727
70
192
0
VERTEX
8
TOP_BODY
10
-90.879646
20
157.818954
30
-63.066734
70
192
0
VERTEX
8
TOP_BODY
10
-104.914879
20
137.407883
30
37.039238
70
192
0
VERTEX
8
TOP_BODY
10
-96.168571
20
137.407867
30
10.815348
70
192
0
VERTEX
8
TOP_BODY
10
-90.904259
20
137.407898
30
37.039246
70
192
0
VERTEX
8
TOP_BODY
10
-90.904259
20
137.407883
30
10.815348
70
192
0
VERTEX
8
TOP_BODY
10
-87.282745
20
9.281378
30
-69.870148
70
192
0
VERTEX
8
TOP_BODY
10
-81.357758
20
9.281379
30
-58.020149
70
192
0
VERTEX
8
TOP_BODY
10
-75.432739
20
9.281378
30
-69.870148
70
192
0
VERTEX
8
TOP_BODY
10
-87.282745
20
47.698654
30
-69.870132
70
192
0
VERTEX
8
TOP_BODY
10
-81.357758
20
47.698654
30
-58.020153
70
192
0
VERTEX
8
TOP_BODY
10
-75.432739
20
47.698654
30
-69.870132
70
192
0
VERTEX
8
TOP_BODY
10
-73.892914
20
-4.538842
30
-61.657944
70
192
0
VERTEX
8
TOP_BODY
10
-65.817902
20
-4.538841
30
-45.507942
70
192
0
VERTEX
8
TOP_BODY
10
-57.742889
20
-4.538842
30
-61.657944
70
192
0
VERTEX
8
TOP_BODY
10
-73.892914
20
47.729561
30
-61.657955
70
192
0
VERTEX
8
TOP_BODY
10
-65.817902
20
47.729561
30
-45.507954
70
192
0
VERTEX
8
TOP_BODY
10
-57.742889
20
47.729561
30
-61.657955
70
192
0
VERTEX
8
TOP_BODY
10
-324.966095
20
157.818954
30
56.822033
70
192
0
VERTEX
8
TOP_BODY
10
-324.966095
20
117.818939
30
76.822021
70
192
0
VERTEX
8
TOP_BODY
10
-324.966095
20
117.818954
30
-33.177982
70
192
0
VERTEX
8
TOP_BODY
10
-324.966095
20
107.818954
30
-43.177979
70
192
0
VERTEX
8
TOP_BODY
10
-324.966095
20
47.818939
30
-43.177975
70
192
0
VERTEX
8
TOP_BODY
10
-324.966095
20
47.818943
30
-73.177979
70
192
0
VERTEX
8
TOP_BODY
10
-324.966095
20
137.818954
30
-83.177979
70
192
0
VERTEX
8
TOP_BODY
10
-324.966095
20
157.818954
30
-63.177986
70
192
0
VERTEX
8
TOP_BODY
10
-289.188080
20
157.818954
30
66.933273
70
192
0
VERTEX
8
TOP_BODY
10
-289.188080
20
117.818954
30
86.933273
70
192
0
VERTEX
8
TOP_BODY
10
-289.188080
20
117.818954
30
-33.066723
70
192
0
VERTEX
8
TOP_BODY
10
-289.188080
20
107.818954
30
-43.066727
70
192
0
VERTEX
8
TOP_BODY
10
-289.188080
20
47.818909
30
-43.066723
70
192
0
VERTEX
8
TOP_BODY
10
-289.188080
20
47.818905
30
-73.066727
70
192
0
VERTEX
8
TOP_BODY
10
-289.188080
20
137.818954
30
-83.066727
70
192
0
VERTEX
8
TOP_BODY
10
-289.188080
20
157.818954
30
-63.066727
70
192
0
VERTEX
8
TOP_BODY
10
-275.148438
20
137.407883
30
37.039238
70
192
0
VERTEX
8
TOP_BODY
10
-283.894745
20
137.407867
30
10.815348
70
192
0
VERTEX
8
TOP_BODY
10
-289.159058
20
137.407898
30
37.039246
70
192
0
VERTEX
8
TOP_BODY
10
-289.159058
20
137.407883
30
10.815348
70
192
0
VERTEX
8
TOP_BODY
10
-306.174805
20
-4.538842
30
-61.657944
70
192
0
VERTEX
8
TOP_BODY
10
-314.249817
20
-4.538841
30
-45.507942
70
192
0
VERTEX
8
TOP_BODY
10
-322.324829
20
-4.538842
30
-61.657944
70
192
0
VERTEX
8
TOP_BODY
10
-306.174805
20
47.729561
30
-61.657955
70
192
0
VERTEX
8
TOP_BODY
10
-314.249817
20
47.729561
30
-45.507954
70
192
0
VERTEX
8
TOP_BODY
10
-322.324829
20
47.729561
30
-61.657955
70
192
0
VERTEX
8
TOP_BODY
10
-292.784973
20
9.281378
30
-69.870148
70
192
0
VERTEX
8
TOP_BODY
10
-298.709961
20
9.281379
30
-58.020149
70
192
0
VERTEX
8
TOP_BODY
10
-304.634979
20
9.281378
30
-69.870148
70
192
0
VERTEX
8
TOP_BODY
10
-292.784973
20
47.698654
30
-69.870132
70
192
0
VERTEX
8
TOP_BODY
10
-298.709961
20
47.698654
30
-58.020153
70
192
0
VERTEX
8
TOP_BODY
10
-304.634979
20
47.698654
30
-69.870132
70
192
0
VERTEX
8
TOP_BODY
10
0
20
0
30
0
70
128
71
2
72
1
73
-5
0
VERTEX
8
TOP_BODY
10
0
20
0
30
0
70
128
71
3
72
-2
73
-5
0
VERTEX
8
TOP_BODY
10
0
20
0
30
0
70
128
71
4
72
-3
73
5
0
VERTEX
8
TOP_BODY
10
0
20
0
30
0
70
128
71
1
72
2
73
-7
0
VERTEX
8
TOP_BODY
10
0
20
0
30
0
70
128
71
-1
72
7
73
6
0
VERTEX
8
TOP_BODY
10
0
20
0
30
0
70
128
71
2
72
3
73
-8
0
VERTEX
8
TOP_BODY
10
0
20
0
30
0
70
128
71
-2
72
8
73
7
0
VERTEX
8
TOP_BODY
10
0
20
0
30
0
70
128
71
3
72
4
73
-9
0
VERTEX
8
TOP_BODY
10
0
20
0
30
0
70
128
71
-3
72
9
73
8
0
VERTEX
8
TOP_BODY
10
0
20
0
30
0
70
128
71
4
72
5
73
-10
0
VERTEX
8
TOP_BODY
10
0
20
0
30
0
70
128
71
-4
72
10
73
9
0
VERTEX
8
TOP_BODY
10
0
20
0
30
0
70
128
71
6
72
7
73
-12
0
VERTEX
8
TOP_BODY
10
0
20
0
30
0
70
128
71
-6
72
12
73
11
0
VERTEX
8
TOP_BODY
10
0
20
0
30
0
70
128
71
7
72
8
73
-13
0
VERTEX
8
TOP_BODY
10
0
20
0
30
0
70
128
71
-7
72
13
73
12
0
VERTEX
8
TOP_BODY
10
0
20
0
30
0
70
128
71
8
72
9
73
-14
0
VERTEX
8
TOP_BODY
10
0
20
0
30
0
70
128
71
-8
72
14
73
13
0
VERTEX
8
TOP_BODY
10
0
20
0
30
0
70
128
71
9
72
10
73
-15
0
VERTEX
8
TOP_BODY
10
0
20
0
30
0
70
128
71
-9
72
15
73
14
0
VERTEX
8
TOP_BODY
10
0
20
0
30
0
70
128
71
15
72
11
73
-12
0
VERTEX
8
TOP_BODY
10
0
20
0
30
0
70
128
71
-15
72
12
73
-13
0
VERTEX
8
TOP_BODY
10
0
20
0
30
0
70
128
71
-15
72
13
73
14
0
VERTEX
8
TOP_BODY
10
0
20
0
30
0
70
128
71
16
72
17
73
-18
0
VERTEX
8
TOP_BODY
10
0
20
0
30
0
70
128
71
23
72
-16
73
-18
0
VERTEX
8
TOP_BODY
10
0
20
0
30
0
70
128
71
22
72
-23
73
-18
0
VERTEX
8
TOP_BODY
10
0
20
0
30
0
70
128
71
-22
72
18
73
-19
0
VERTEX
8
TOP_BODY
10
0
20
0
30
0
70
128
71
21
72
-22
73
-19
0
VERTEX
8
TOP_BODY
10
0
20
0
30
0
70
128
71
-21
72
19
73
20
0
VERTEX
8
TOP_BODY
10
0
20
0
30
0
70
128
71
25
72
17
73
-16
0
VERTEX
8
TOP_BODY
10
0
20
0
30
0
70
128
71
24
72
-25
73
16
0
VERTEX
8
TOP_BODY
10
0
20
0
30
0
70
128
71
26
72
18
73
-17
0
VERTEX
8
TOP_BODY
10
0
20
0
30
0
70
128
71
25
72
-26
73
17
0
VERTEX
8
TOP_BODY
10
0
20
0
30
0
70
128
71
27
72
19
73
-18
0
VERTEX
8
TOP_BODY
10
0
20
0
30
0
70
128
71
26
72
-27
73
18
0
VERTEX
8
TOP_BODY
10
0
20
0
30
0
70
128
71
28
72
20
73
-19
0
VERTEX
8
TOP_BODY
10
0
20
0
30
0
70
128
71
27
72
-28
73
19
0
VERTEX
8
TOP_BODY
10
0
20
0
30
0
70
128
71
29
72
21
73
-20
0
VERTEX
8
TOP_BODY
10
0
20
0
30
0
70
128
71
28
72
-29
73
20
0
VERTEX
8
TOP_BODY
10
0
20
0
30
0
70
128
71
30
72
22
73
-21
0
VERTEX
8
TOP_BODY
10
0
20
0
30
0
70
128
71
29
72
-30
73
21
0
VERTEX
8
TOP_BODY
10
0
20
0
30
0
70
128
71
31
72
23
73
-22
0
VERTEX
8
TOP_BODY
10
0
20
0
30
0
70
128
71
30
72
-31
73
22
0
VERTEX
8
TOP_BODY
10
0
20
0
30
0
70
128
71
24
72
16
73
-23
0
VERTEX
8
TOP_BODY
10
0
20
0
30
0
70
128
71
31
72
-24
73
23
0
VERTEX
8
TOP_BODY
10
0
20
0
30
0
70
128
71
26
72
25
73
-24
0
VERTEX
8
TOP_BODY
10
0
20
0
30
0
70
128
71
-26
72
24
73
-31
0
VERTEX
8
TOP_BODY
10
0
20
0
30
0
70
128
71
-26
72
31
73
-30
0
VERTEX
8
TOP_BODY
10
0
20
0
30
0
70
128
71
27
72
-26
73
-30
0
VERTEX
8
TOP_BODY
10
0
20
0
30
0
70
128
71
-27
72
30
73
-29
0
VERTEX
8
TOP_BODY
10
0
20
0
30
0
70
128
71
28
72
-27
73
29
0
VERTEX
8
TOP_BODY
10
0
20
0
30
0
70
128
71
35
72
34
73
-32
0
VERTEX
8
TOP_BODY
10
0
20
0
30
0
70
128
71
33
72
-35
73
32
0
VERTEX
8
TOP_BODY
10
0
20
0
30
0
70
128
71
36
72
37
73
-40
0
VERTEX
8
TOP_BODY
10
0
20
0
30
0
70
128
71
-36
72
40
73
39
0
VERTEX
8
TOP_BODY
10
0
20
0
30
0
70
128
71
37
72
38
73
-41
0
VERTEX
8
TOP_BODY
10
0
20
0
30
0
70
128
71
-37
72
41
73
40
0
VERTEX
8
TOP_BODY
10
0
20
0
30
0
70
128
71
42
72
43
73
-46
0
VERTEX
8
TOP_BODY
10
0
20
0
30
0
70
128
71
-42
72
46
73
45
0
VERTEX
8
TOP_BODY
10
0
20
0
30
0
70
128
71
43
72
44
73
-47
0
VERTEX
8
TOP_BODY
10
0
20
0
30
0
70
128
71
-43
72
47
73
46
0
VERTEX
8
TOP_BODY
10
0
20
0
30
0
70
128
71
50
72
49
73
-48
0
VERTEX
8
TOP_BODY
10
0
20
0
30
0
70
128
71
-50
72
48
73
-55
0
VERTEX
8
TOP_BODY
10
0
20
0
30
0
70
128
71
-50
72
55
73
-54
0
VERTEX
8
TOP_BODY
10
0
20
0
30
0
70
128
71
51
72
-50
73
-54
0
VERTEX
8
TOP_BODY
10
0
20
0
30
0
70
128
71
-51
72
54
73
-53
0
VERTEX
8
TOP_BODY
10
0
20
0
30
0
70
128
71
52
72
-51
73
53
0
VERTEX
8
TOP_BODY
10
0
20
0
30
0
70
128
71
48
72
49
73
-57
0
VERTEX
8
TOP_BODY
10
0
20
0
30
0
70
128
71
-48
72
57
73
56
0
VERTEX
8
TOP_BODY
10
0
20
0
30
0
70
128
71
49
72
50
73
-58
0
VERTEX
8
TOP_BODY
10
0
20
0
30
0
70
128
71
-49
72
58
73
57
0
VERTEX
8
TOP_BODY
10
0
20
0
30
0
70
128
71
50
72
51
73
-59
0
VERTEX
8
TOP_BODY
10
0
20
0
30
0
70
128
71
-50
72
59
73
58
0
VERTEX
8
TOP_BODY
10
0
20
0
30
0
70
128
71
51
72
52
73
-60
0
VERTEX
8
TOP_BODY
10
0
20
0
30
0
70
128
71
-51
72
60
73
59
0
VERTEX
8
TOP_BODY
10
0
20
0
30
0
70
128
71
52
72
53
73
-61
0
VERTEX
8
TOP_BODY
10
0
20
0
30
0
70
128
71
-52
72
61
73
60
0
VERTEX
8
TOP_BODY
10
0
20
0
30
0
70
128
71
53
72
54
73
-62
0
VERTEX
8
TOP_BODY
10
0
20
0
30
0
70
128
71
-53
72
62
73
61
0
VERTEX
8
TOP_BODY
10
0
20
0
30
0
70
128
71
54
72
55
73
-63
0
VERTEX
8
TOP_BODY
10
0
20
0
30
0
70
128
71
-54
72
63
73
62
0
VERTEX
8
TOP_BODY
10
0
20
0
30
0
70
128
71
55
72
48
73
-56
0
VERTEX
8
TOP_BODY
10
0
20
0
30
0
70
128
71
-55
72
56
73
63
0
VERTEX
8
TOP_BODY
10
0
20
0
30
0
70
128
71
56
72
57
73
-58
0
VERTEX
8
TOP_BODY
10
0
20
0
30
0
70
128
71
63
72
-56
73
-58
0
VERTEX
8
TOP_BODY
10
0
20
0
30
0
70
128
71
62
72
-63
73
-58
0
VERTEX
8
TOP_BODY
10
0
20
0
30
0
70
128
71
-62
72
58
73
-59
0
VERTEX
8
TOP_BODY
10
0
20
0
30
0
70
128
71
61
72
-62
73
-59
0
VERTEX
8
TOP_BODY
10
0
20
0
30
0
70
128
71
-61
72
59
73
60
0
VERTEX
8
TOP_BODY
10
0
20
0
30
0
70
128
71
64
72
66
73
-67
0
VERTEX
8
TOP_BODY
10
0
20
0
30
0
70
128
71
-64
72
67
73
65
0
VERTEX
8
TOP_BODY
10
0
20
0
30
0
70
128
71
72
72
69
73
-68
0
VERTEX
8
TOP_BODY
10
0
20
0
30
0
70
128
71
71
72
-72
73
68
0
VERTEX
8
TOP_BODY
10
0
20
0
30
0
70
128
71
73
72
70
73
-69
0
VERTEX
8
TOP_BODY
10
0
20
0
30
0
70
128
71
72
72
-73
73
69
0
VERTEX
8
TOP_BODY
10
0
20
0
30
0
70
128
71
78
72
75
73
-74
0
VERTEX
8
TOP_BODY
10
0
20
0
30
0
70
128
71
77
72
-78
73
74
0
VERTEX
8
TOP_BODY
10
0
20
0
30
0
70
128
71
79
72
76
73
-75
0
VERTEX
8
TOP_BODY
10
0
20
0
30
0
70
128
71
78
72
-79
73
75
0
SEQEND
8
TOP_BODY
0
POLYLINE
8
BOT_BODY
66
1
70
64
71
14
72
24
0
VERTEX
8
BOT_BODY
10
-279.828400
20
71.282684
30
-1.122833
70
192
0
VERTEX
8
BOT_BODY
10
-99.828400
20
71.282669
30
-1.122833
70
192
0
VERTEX
8
BOT_BODY
10
-110.328392
20
99.567039
30
-29.407104
70
192
0
VERTEX
8
BOT_BODY
10
-173.928391
20
106.638023
30
-36.478165
70
192
0
VERTEX
8
BOT_BODY
10
-189.828400
20
134.922272
30
-64.762405
70
192
0
VERTEX
8
BOT_BODY
10
-205.728394
20
106.638031
30
-36.478165
70
192
0
VERTEX
8
BOT_BODY
10
-269.328400
20
99.567047
30
-29.407104
70
192
0
VERTEX
8
BOT_BODY
10
-279.828400
20
198.622818
30
-1.122845
70
192
0
VERTEX
8
BOT_BODY
10
-99.828392
20
198.622803
30
-1.122845
70
192
0
VERTEX
8
BOT_BODY
10
-110.328400
20
170.338547
30
-29.407120
70
192
0
VERTEX
8
BOT_BODY
10
-173.928391
20
163.267487
30
-36.478188
70
192
0
VERTEX
8
BOT_BODY
10
-189.828400
20
134.983276
30
-64.762421
70
192
0
VERTEX
8
BOT_BODY
10
-205.728394
20
163.267487
30
-36.478188
70
192
0
VERTEX
8
BOT_BODY
10
-269.328400
20
170.338547
30
-29.407120
70
192
0
VERTEX
8
BOT_BODY
10
0
20
0
30
0
70
128
71
6
72
5
73
-4
0
VERTEX
8
BOT_BODY
10
0
20
0
30
0
70
128
71
3
72
2
73
-1
0
VERTEX
8
BOT_BODY
10
0
20
0
30
0
70
128
71
4
72
-3
73
-1
0
VERTEX
8
BOT_BODY
10
0
20
0
30
0
70
128
71
-6
72
-4
73
-1
0
VERTEX
8
BOT_BODY
10
0
20
0
30
0
70
128
71
7
72
-6
73
1
0
VERTEX
8
BOT_BODY
10
0
20
0
30
0
70
128
71
1
72
2
73
-9
0
VERTEX
8
BOT_BODY
10
0
20
0
30
0
70
128
71
-1
72
9
73
8
0
VERTEX
8
BOT_BODY
10
0
20
0
30
0
70
128
71
2
72
3
73
-10
0
VERTEX
8
BOT_BODY
10
0
20
0
30
0
70
128
71
-2
72
10
73
9
0
VERTEX
8
BOT_BODY
10
0
20
0
30
0
70
128
71
3
72
4
73
-11
0
VERTEX
8
BOT_BODY
10
0
20
0
30
0
70
128
71
-3
72
11
73
10
0
VERTEX
8
BOT_BODY
10
0
20
0
30
0
70
128
71
4
72
5
73
-12
0
VERTEX
8
BOT_BODY
10
0
20
0
30
0
70
128
71
-4
72
12
73
11
0
VERTEX
8
BOT_BODY
10
0
20
0
30
0
70
128
71
5
72
6
73
-13
0
VERTEX
8
BOT_BODY
10
0
20
0
30
0
70
128
71
-5
72
13
73
12
0
VERTEX
8
BOT_BODY
10
0
20
0
30
0
70
128
71
6
72
7
73
-14
0
VERTEX
8
BOT_BODY
10
0
20
0
30
0
70
128
71
-6
72
14
73
13
0
VERTEX
8
BOT_BODY
10
0
20
0
30
0
70
128
71
7
72
1
73
-8
0
VERTEX
8
BOT_BODY
10
0
20
0
30
0
70
128
71
-7
72
8
73
14
0
VERTEX
8
BOT_BODY
10
0
20
0
30
0
70
128
71
11
72
12
73
-13
0
VERTEX
8
BOT_BODY
10
0
20
0
30
0
70
128
71
8
72
9
73
-10
0
VERTEX
8
BOT_BODY
10
0
20
0
30
0
70
128
71
-8
72
10
73
-11
0
VERTEX
8
BOT_BODY
10
0
20
0
30
0
70
128
71
-8
72
-11
73
-13
0
VERTEX
8
BOT_BODY
10
0
20
0
30
0
70
128
71
-8
72
13
73
14
0
SEQEND
8
BOT_BODY
0
POLYLINE
8
LEG_RT
66
1
70
64
71
14
72
16
0
VERTEX
8
LEG_RT
10
-264.721985
20
158.266968
30
-37.926865
70
192
0
VERTEX
8
LEG_RT
10
-264.721985
20
105.391792
30
-37.926865
70
192
0
VERTEX
8
LEG_RT
10
-264.721985
20
129.873047
30
-157.926880
70
192
0
VERTEX
8
LEG_RT
10
-264.721985
20
159.873047
30
-157.926880
70
192
0
VERTEX
8
LEG_RT
10
-229.121964
20
158.266800
30
-37.926865
70
192
0
VERTEX
8
LEG_RT
10
-229.121964
20
105.391792
30
-37.926865
70
192
0
VERTEX
8
LEG_RT
10
-229.121964
20
129.873047
30
-157.926880
70
192
0
VERTEX
8
LEG_RT
10
-229.121964
20
159.872879
30
-157.926880
70
192
0
VERTEX
8
LEG_RT
10
-228.952240
20
135.060577
30
-77.795731
70
192
0
VERTEX
8
LEG_RT
10
-228.952240
20
135.060577
30
-42.795731
70
192
0
VERTEX
8
LEG_RT
10
-224.301483
20
135.060577
30
-34.805267
70
192
0
VERTEX
8
LEG_RT
10
-206.084229
20
135.060577
30
-36.865639
70
192
0
VERTEX
8
LEG_RT
10
-205.083282
20
135.060577
30
-42.702606
70
192
0
VERTEX
8
LEG_RT
10
-216.764740
20
135.060577
30
-76.866432
70
192
0
VERTEX
8
LEG_RT
10
0
20
0
30
0
70
128
71
3
72
2
73
-1
0
VERTEX
8
LEG_RT
10
0
20
0
30
0
70
128
71
-3
72
1
73
4
0
VERTEX
8
LEG_RT
10
0
20
0
30
0
70
128
71
1
72
2
73
-6
0
VERTEX
8
LEG_RT
10
0
20
0
30
0
70
128
71
-1
72
6
73
5
0
VERTEX
8
LEG_RT
10
0
20
0
30
0
70
128
71
2
72
3
73
-7
0
VERTEX
8
LEG_RT
10
0
20
0
30
0
70
128
71
-2
72
7
73
6
0
VERTEX
8
LEG_RT
10
0
20
0
30
0
70
128
71
3
72
4
73
-8
0
VERTEX
8
LEG_RT
10
0
20
0
30
0
70
128
71
-3
72
8
73
7
0
VERTEX
8
LEG_RT
10
0
20
0
30
0
70
128
71
4
72
1
73
-5
0
VERTEX
8
LEG_RT
10
0
20
0
30
0
70
128
71
-4
72
5
73
8
0
VERTEX
8
LEG_RT
10
0
20
0
30
0
70
128
71
5
72
6
73
-7
0
VERTEX
8
LEG_RT
10
0
20
0
30
0
70
128
71
8
72
-5
73
7
0
VERTEX
8
LEG_RT
10
0
20
0
30
0
70
128
71
10
72
9
73
-14
0
VERTEX
8
LEG_RT
10
0
20
0
30
0
70
128
71
-10
72
14
73
-13
0
VERTEX
8
LEG_RT
10
0
20
0
30
0
70
128
71
11
72
-10
73
-13
0
VERTEX
8
LEG_RT
10
0
20
0
30
0
70
128
71
12
72
-11
73
13
0
SEQEND
8
LEG_RT
0
POLYLINE
8
LEG_LFT
66
1
70
64
71
14
72
16
0
VERTEX
8
LEG_LFT
10
-115.029762
20
158.266968
30
-37.599648
70
192
0
VERTEX
8
LEG_LFT
10
-115.029762
20
105.391869
30
-37.599648
70
192
0
VERTEX
8
LEG_LFT
10
-115.029762
20
129.873047
30
-157.599655
70
192
0
VERTEX
8
LEG_LFT
10
-115.029762
20
159.873047
30
-157.599655
70
192
0
VERTEX
8
LEG_LFT
10
-150.629791
20
158.266968
30
-37.599648
70
192
0
VERTEX
8
LEG_LFT
10
-150.629791
20
105.391869
30
-37.599648
70
192
0
VERTEX
8
LEG_LFT
10
-150.629791
20
129.873047
30
-157.599655
70
192
0
VERTEX
8
LEG_LFT
10
-150.629791
20
159.873047
30
-157.599655
70
192
0
VERTEX
8
LEG_LFT
10
-150.722168
20
135.060577
30
-77.795731
70
192
0
VERTEX
8
LEG_LFT
10
-150.722168
20
135.060577
30
-42.795731
70
192
0
VERTEX
8
LEG_LFT
10
-155.372925
20
135.060577
30
-34.805267
70
192
0
VERTEX
8
LEG_LFT
10
-173.590179
20
135.060577
30
-36.865639
70
192
0
VERTEX
8
LEG_LFT
10
-174.591125
20
135.060577
30
-42.702606
70
192
0
VERTEX
8
LEG_LFT
10
-162.909668
20
135.060577
30
-76.866432
70
192
0
VERTEX
8
LEG_LFT
10
0
20
0
30
0
70
128
71
1
72
2
73
-3
0
VERTEX
8
LEG_LFT
10
0
20
0
30
0
70
128
71
4
72
-1
73
3
0
VERTEX
8
LEG_LFT
10
0
20
0
30
0
70
128
71
6
72
2
73
-1
0
VERTEX
8
LEG_LFT
10
0
20
0
30
0
70
128
71
5
72
-6
73
1
0
VERTEX
8
LEG_LFT
10
0
20
0
30
0
70
128
71
7
72
3
73
-2
0
VERTEX
8
LEG_LFT
10
0
20
0
30
0
70
128
71
6
72
-7
73
2
0
VERTEX
8
LEG_LFT
10
0
20
0
30
0
70
128
71
8
72
4
73
-3
0
VERTEX
8
LEG_LFT
10
0
20
0
30
0
70
128
71
7
72
-8
73
3
0
VERTEX
8
LEG_LFT
10
0
20
0
30
0
70
128
71
5
72
1
73
-4
0
VERTEX
8
LEG_LFT
10
0
20
0
30
0
70
128
71
8
72
-5
73
4
0
VERTEX
8
LEG_LFT
10
0
20
0
30
0
70
128
71
7
72
6
73
-5
0
VERTEX
8
LEG_LFT
10
0
20
0
30
0
70
128
71
-7
72
5
73
8
0
VERTEX
8
LEG_LFT
10
0
20
0
30
0
70
128
71
14
72
9
73
-10
0
VERTEX
8
LEG_LFT
10
0
20
0
30
0
70
128
71
13
72
-14
73
-10
0
VERTEX
8
LEG_LFT
10
0
20
0
30
0
70
128
71
-13
72
10
73
-11
0
VERTEX
8
LEG_LFT
10
0
20
0
30
0
70
128
71
-13
72
11
73
12
0
SEQEND
8
LEG_LFT
0
POLYLINE
8
LEG_FT_RT
66
1
70
64
71
12
72
16
0
VERTEX
8
LEG_FT_RT
10
-163.291672
20
131.042480
30
-240.414658
70
192
0
VERTEX
8
LEG_FT_RT
10
-148.072708
20
131.042480
30
-240.414658
70
192
0
VERTEX
8
LEG_FT_RT
10
-132.853745
20
148.142487
30
-240.414658
70
192
0
VERTEX
8
LEG_FT_RT
10
-117.634766
20
131.042496
30
-240.414658
70
192
0
VERTEX
8
LEG_FT_RT
10
-102.415749
20
131.042496
30
-240.414673
70
192
0
VERTEX
8
LEG_FT_RT
10
-132.853760
20
88.292534
30
-240.414658
70
192
0
VERTEX
8
LEG_FT_RT
10
-175.619263
20
131.256241
30
-260.414703
70
192
0
VERTEX
8
LEG_FT_RT
10
-154.236542
20
131.256241
30
-260.414703
70
192
0
VERTEX
8
LEG_FT_RT
10
-132.853760
20
155.281738
30
-260.414703
70
192
0
VERTEX
8
LEG_FT_RT
10
-111.471039
20
131.256241
30
-260.414703
70
192
0
VERTEX
8
LEG_FT_RT
10
-90.088348
20
131.256241
30
-260.414703
70
192
0
VERTEX
8
LEG_FT_RT
10
-132.853760
20
71.192535
30
-260.414703
70
192
0
VERTEX
8
LEG_FT_RT
10
0
20
0
30
0
70
128
71
4
72
3
73
-2
0
VERTEX
8
LEG_FT_RT
10
0
20
0
30
0
70
128
71
6
72
5
73
-4
0
VERTEX
8
LEG_FT_RT
10
0
20
0
30
0
70
128
71
2
72
1
73
-6
0
VERTEX
8
LEG_FT_RT
10
0
20
0
30
0
70
128
71
-2
72
-6
73
-4
0
VERTEX
8
LEG_FT_RT
10
0
20
0
30
0
70
128
71
1
72
2
73
-8
0
VERTEX
8
LEG_FT_RT
10
0
20
0
30
0
70
128
71
-1
72
8
73
7
0
VERTEX
8
LEG_FT_RT
10
0
20
0
30
0
70
128
71
2
72
3
73
-9
0
VERTEX
8
LEG_FT_RT
10
0
20
0
30
0
70
128
71
-2
72
9
73
8
0
VERTEX
8
LEG_FT_RT
10
0
20
0
30
0
70
128
71
3
72
4
73
-10
0
VERTEX
8
LEG_FT_RT
10
0
20
0
30
0
70
128
71
-3
72
10
73
9
0
VERTEX
8
LEG_FT_RT
10
0
20
0
30
0
70
128
71
4
72
5
73
-11
0
VERTEX
8
LEG_FT_RT
10
0
20
0
30
0
70
128
71
-4
72
11
73
10
0
VERTEX
8
LEG_FT_RT
10
0
20
0
30
0
70
128
71
5
72
6
73
-12
0
VERTEX
8
LEG_FT_RT
10
0
20
0
30
0
70
128
71
-5
72
12
73
11
0
VERTEX
8
LEG_FT_RT
10
0
20
0
30
0
70
128
71
6
72
1
73
-7
0
VERTEX
8
LEG_FT_RT
10
0
20
0
30
0
70
128
71
-6
72
7
73
12
0
SEQEND
8
LEG_FT_RT
0
POLYLINE
8
LEG_FT_LFT
66
1
70
64
71
12
72
16
0
VERTEX
8
LEG_FT_LFT
10
-216.333344
20
131.042480
30
-240.419754
70
192
0
VERTEX
8
LEG_FT_LFT
10
-231.552307
20
131.042480
30
-240.419754
70
192
0
VERTEX
8
LEG_FT_LFT
10
-246.771393
20
148.142487
30
-240.419754
70
192
0
VERTEX
8
LEG_FT_LFT
10
-261.990417
20
131.042496
30
-240.419754
70
192
0
VERTEX
8
LEG_FT_LFT
10
-277.209351
20
131.042496
30
-240.419754
70
192
0
VERTEX
8
LEG_FT_LFT
10
-246.771408
20
88.292488
30
-240.419754
70
192
0
VERTEX
8
LEG_FT_LFT
10
-204.006104
20
131.256241
30
-260.419800
70
192
0
VERTEX
8
LEG_FT_LFT
10
-225.388809
20
131.256241
30
-260.419769
70
192
0
VERTEX
8
LEG_FT_LFT
10
-246.771408
20
155.281738
30
-260.419769
70
192
0
VERTEX
8
LEG_FT_LFT
10
-268.154114
20
131.256241
30
-260.419769
70
192
0
VERTEX
8
LEG_FT_LFT
10
-289.536865
20
131.256241
30
-260.419769
70
192
0
VERTEX
8
LEG_FT_LFT
10
-246.771408
20
71.192490
30
-260.419769
70
192
0
VERTEX
8
LEG_FT_LFT
10
0
20
0
30
0
70
128
71
2
72
3
73
-4
0
VERTEX
8
LEG_FT_LFT
10
0
20
0
30
0
70
128
71
4
72
5
73
-6
0
VERTEX
8
LEG_FT_LFT
10
0
20
0
30
0
70
128
71
6
72
1
73
-2
0
VERTEX
8
LEG_FT_LFT
10
0
20
0
30
0
70
128
71
-4
72
-6
73
-2
0
VERTEX
8
LEG_FT_LFT
10
0
20
0
30
0
70
128
71
8
72
2
73
-1
0
VERTEX
8
LEG_FT_LFT
10
0
20
0
30
0
70
128
71
7
72
-8
73
1
0
VERTEX
8
LEG_FT_LFT
10
0
20
0
30
0
70
128
71
9
72
3
73
-2
0
VERTEX
8
LEG_FT_LFT
10
0
20
0
30
0
70
128
71
8
72
-9
73
2
0
VERTEX
8
LEG_FT_LFT
10
0
20
0
30
0
70
128
71
10
72
4
73
-3
0
VERTEX
8
LEG_FT_LFT
10
0
20
0
30
0
70
128
71
9
72
-10
73
3
0
VERTEX
8
LEG_FT_LFT
10
0
20
0
30
0
70
128
71
11
72
5
73
-4
0
VERTEX
8
LEG_FT_LFT
10
0
20
0
30
0
70
128
71
10
72
-11
73
4
0
VERTEX
8
LEG_FT_LFT
10
0
20
0
30
0
70
128
71
12
72
6
73
-5
0
VERTEX
8
LEG_FT_LFT
10
0
20
0
30
0
70
128
71
11
72
-12
73
5
0
VERTEX
8
LEG_FT_LFT
10
0
20
0
30
0
70
128
71
7
72
1
73
-6
0
VERTEX
8
LEG_FT_LFT
10
0
20
0
30
0
70
128
71
12
72
-7
73
6
0
SEQEND
8
LEG_FT_LFT
0
POLYLINE
8
TOP_BODY01
66
1
70
64
71
15
72
22
0
VERTEX
8
TOP_BODY01
10
-273.062866
20
70.000008
30
0.784792
70
192
0
VERTEX
8
TOP_BODY01
10
-256.770447
20
69.999901
30
49.662010
70
192
0
VERTEX
8
TOP_BODY01
10
-190.000000
20
69.999992
30
30.584719
70
192
0
VERTEX
8
TOP_BODY01
10
-123.229530
20
69.999901
30
49.662010
70
192
0
VERTEX
8
TOP_BODY01
10
-106.937126
20
69.999992
30
0.784792
70
192
0
VERTEX
8
TOP_BODY01
10
-286.937134
20
137.747452
30
0.870380
70
192
0
VERTEX
8
TOP_BODY01
10
-263.229553
20
137.747437
30
71.993195
70
192
0
VERTEX
8
TOP_BODY01
10
-190.000000
20
137.747437
30
51.070484
70
192
0
VERTEX
8
TOP_BODY01
10
-116.770470
20
137.747437
30
71.993195
70
192
0
VERTEX
8
TOP_BODY01
10
-93.062874
20
137.747452
30
0.870380
70
192
0
VERTEX
8
TOP_BODY01
10
-273.062866
20
200.000000
30
0.784773
70
192
0
VERTEX
8
TOP_BODY01
10
-256.770447
20
200.000000
30
49.662003
70
192
0
VERTEX
8
TOP_BODY01
10
-190.000000
20
200.000000
30
30.584700
70
192
0
VERTEX
8
TOP_BODY01
10
-123.229530
20
199.999985
30
49.662003
70
192
0
VERTEX
8
TOP_BODY01
10
-106.937126
20
200.000000
30
0.784773
70
192
0
VERTEX
8
TOP_BODY01
10
0
20
0
30
0
70
128
71
2
72
1
73
-5
0
VERTEX
8
TOP_BODY01
10
0
20
0
30
0
70
128
71
3
72
-2
73
-5
0
VERTEX
8
TOP_BODY01
10
0
20
0
30
0
70
128
71
4
72
-3
73
5
0
VERTEX
8
TOP_BODY01
10
0
20
0
30
0
70
128
71
1
72
2
73
-7
0
VERTEX
8
TOP_BODY01
10
0
20
0
30
0
70
128
71
-1
72
7
73
6
0
VERTEX
8
TOP_BODY01
10
0
20
0
30
0
70
128
71
2
72
3
73
-8
0
VERTEX
8
TOP_BODY01
10
0
20
0
30
0
70
128
71
-2
72
8
73
7
0
VERTEX
8
TOP_BODY01
10
0
20
0
30
0
70
128
71
3
72
4
73
-9
0
VERTEX
8
TOP_BODY01
10
0
20
0
30
0
70
128
71
-3
72
9
73
8
0
VERTEX
8
TOP_BODY01
10
0
20
0
30
0
70
128
71
4
72
5
73
-10
0
VERTEX
8
TOP_BODY01
10
0
20
0
30
0
70
128
71
-4
72
10
73
9
0
VERTEX
8
TOP_BODY01
10
0
20
0
30
0
70
128
71
6
72
7
73
-12
0
VERTEX
8
TOP_BODY01
10
0
20
0
30
0
70
128
71
-6
72
12
73
11
0
VERTEX
8
TOP_BODY01
10
0
20
0
30
0
70
128
71
7
72
8
73
-13
0
VERTEX
8
TOP_BODY01
10
0
20
0
30
0
70
128
71
-7
72
13
73
12
0
VERTEX
8
TOP_BODY01
10
0
20
0
30
0
70
128
71
8
72
9
73
-14
0
VERTEX
8
TOP_BODY01
10
0
20
0
30
0
70
128
71
-8
72
14
73
13
0
VERTEX
8
TOP_BODY01
10
0
20
0
30
0
70
128
71
9
72
10
73
-15
0
VERTEX
8
TOP_BODY01
10
0
20
0
30
0
70
128
71
-9
72
15
73
14
0
VERTEX
8
TOP_BODY01
10
0
20
0
30
0
70
128
71
15
72
11
73
-12
0
VERTEX
8
TOP_BODY01
10
0
20
0
30
0
70
128
71
-15
72
12
73
-13
0
VERTEX
8
TOP_BODY01
10
0
20
0
30
0
70
128
71
-15
72
13
73
14
0
SEQEND
8
TOP_BODY01
0
POLYLINE
8
LEG_LWRLFT
66
1
70
64
71
8
72
10
0
VERTEX
8
LEG_LWRLFT
10
-115.029762
20
159.873047
30
-159.774612
70
192
0
VERTEX
8
LEG_LWRLFT
10
-115.029762
20
129.873047
30
-159.774612
70
192
0
VERTEX
8
LEG_LWRLFT
10
-115.029884
20
109.872986
30
-239.774612
70
192
0
VERTEX
8
LEG_LWRLFT
10
-115.029884
20
129.873047
30
-239.774612
70
192
0
VERTEX
8
LEG_LWRLFT
10
-150.629791
20
159.873047
30
-159.774612
70
192
0
VERTEX
8
LEG_LWRLFT
10
-150.629791
20
129.873047
30
-159.774612
70
192
0
VERTEX
8
LEG_LWRLFT
10
-150.629852
20
109.872986
30
-239.774612
70
192
0
VERTEX
8
LEG_LWRLFT
10
-150.629852
20
129.873047
30
-239.774612
70
192
0
VERTEX
8
LEG_LWRLFT
10
0
20
0
30
0
70
128
71
4
72
1
73
-2
0
VERTEX
8
LEG_LWRLFT
10
0
20
0
30
0
70
128
71
-4
72
2
73
3
0
VERTEX
8
LEG_LWRLFT
10
0
20
0
30
0
70
128
71
6
72
2
73
-1
0
VERTEX
8
LEG_LWRLFT
10
0
20
0
30
0
70
128
71
5
72
-6
73
1
0
VERTEX
8
LEG_LWRLFT
10
0
20
0
30
0
70
128
71
7
72
3
73
-2
0
VERTEX
8
LEG_LWRLFT
10
0
20
0
30
0
70
128
71
6
72
-7
73
2
0
VERTEX
8
LEG_LWRLFT
10
0
20
0
30
0
70
128
71
5
72
1
73
-4
0
VERTEX
8
LEG_LWRLFT
10
0
20
0
30
0
70
128
71
8
72
-5
73
4
0
VERTEX
8
LEG_LWRLFT
10
0
20
0
30
0
70
128
71
6
72
5
73
-8
0
VERTEX
8
LEG_LWRLFT
10
0
20
0
30
0
70
128
71
7
72
-6
73
8
0
SEQEND
8
LEG_LWRLFT
0
POLYLINE
8
LEG_LWRRT
66
1
70
64
71
8
72
10
0
VERTEX
8
LEG_LWRRT
10
-264.721985
20
159.873047
30
-160.101837
70
192
0
VERTEX
8
LEG_LWRRT
10
-264.721985
20
129.873047
30
-160.101837
70
192
0
VERTEX
8
LEG_LWRRT
10
-264.721863
20
109.872948
30
-240.101822
70
192
0
VERTEX
8
LEG_LWRRT
10
-264.721863
20
129.873047
30
-240.101822
70
192
0
VERTEX
8
LEG_LWRRT
10
-229.121964
20
159.872955
30
-160.101837
70
192
0
VERTEX
8
LEG_LWRRT
10
-229.121964
20
129.873047
30
-160.101837
70
192
0
VERTEX
8
LEG_LWRRT
10
-229.121933
20
109.872948
30
-240.101822
70
192
0
VERTEX
8
LEG_LWRRT
10
-229.121933
20
129.873047
30
-240.101822
70
192
0
VERTEX
8
LEG_LWRRT
10
0
20
0
30
0
70
128
71
2
72
1
73
-4
0
VERTEX
8
LEG_LWRRT
10
0
20
0
30
0
70
128
71
3
72
-2
73
4
0
VERTEX
8
LEG_LWRRT
10
0
20
0
30
0
70
128
71
1
72
2
73
-6
0
VERTEX
8
LEG_LWRRT
10
0
20
0
30
0
70
128
71
-1
72
6
73
5
0
VERTEX
8
LEG_LWRRT
10
0
20
0
30
0
70
128
71
2
72
3
73
-7
0
VERTEX
8
LEG_LWRRT
10
0
20
0
30
0
70
128
71
-2
72
7
73
6
0
VERTEX
8
LEG_LWRRT
10
0
20
0
30
0
70
128
71
4
72
1
73
-5
0
VERTEX
8
LEG_LWRRT
10
0
20
0
30
0
70
128
71
-4
72
5
73
8
0
VERTEX
8
LEG_LWRRT
10
0
20
0
30
0
70
128
71
8
72
5
73
-6
0
VERTEX
8
LEG_LWRRT
10
0
20
0
30
0
70
128
71
-8
72
6
73
7
0
SEQEND
8
LEG_LWRRT
0
POLYLINE
8
GUN_TOP_BD
66
1
70
64
71
26
72
22
0
VERTEX
8
GUN_TOP_BD
10
-237.349457
20
105.986900
30
65.612953
70
192
0
VERTEX
8
GUN_TOP_BD
10
-144.610886
20
105.986900
30
65.612953
70
192
0
VERTEX
8
GUN_TOP_BD
10
-144.610886
20
105.986900
30
81.700249
70
192
0
VERTEX
8
GUN_TOP_BD
10
-237.349457
20
105.986900
30
81.700249
70
192
0
VERTEX
8
GUN_TOP_BD
10
-237.349457
20
164.658264
30
65.612953
70
192
0
VERTEX
8
GUN_TOP_BD
10
-144.610886
20
164.658264
30
65.612953
70
192
0
VERTEX
8
GUN_TOP_BD
10
-144.610886
20
164.658264
30
81.700249
70
192
0
VERTEX
8
GUN_TOP_BD
10
-237.349457
20
164.658264
30
81.700249
70
192
0
VERTEX
8
GUN_TOP_BD
10
-233.961090
20
67.543854
30
68.291382
70
192
0
VERTEX
8
GUN_TOP_BD
10
-228.036102
20
67.543861
30
80.141373
70
192
0
VERTEX
8
GUN_TOP_BD
10
-222.111084
20
67.543854
30
68.291382
70
192
0
VERTEX
8
GUN_TOP_BD
10
-233.961090
20
105.961136
30
68.291382
70
192
0
VERTEX
8
GUN_TOP_BD
10
-228.036102
20
105.961136
30
80.141373
70
192
0
VERTEX
8
GUN_TOP_BD
10
-222.111084
20
105.961136
30
68.291382
70
192
0
VERTEX
8
GUN_TOP_BD
10
-195.820908
20
67.543854
30
68.291382
70
192
0
VERTEX
8
GUN_TOP_BD
10
-189.895920
20
67.543861
30
80.141373
70
192
0
VERTEX
8
GUN_TOP_BD
10
-183.970901
20
67.543854
30
68.291382
70
192
0
VERTEX
8
GUN_TOP_BD
10
-195.820908
20
105.961136
30
68.291382
70
192
0
VERTEX
8
GUN_TOP_BD
10
-189.895920
20
105.961136
30
80.141373
70
192
0
VERTEX
8
GUN_TOP_BD
10
-183.970901
20
105.961136
30
68.291382
70
192
0
VERTEX
8
GUN_TOP_BD
10
-159.363373
20
67.543854
30
68.291382
70
192
0
VERTEX
8
GUN_TOP_BD
10
-153.438385
20
67.543861
30
80.141373
70
192
0
VERTEX
8
GUN_TOP_BD
10
-147.513367
20
67.543854
30
68.291382
70
192
0
VERTEX
8
GUN_TOP_BD
10
-159.363373
20
105.961136
30
68.291382
70
192
0
VERTEX
8
GUN_TOP_BD
10
-153.438385
20
105.961136
30
80.141373
70
192
0
VERTEX
8
GUN_TOP_BD
10
-147.513367
20
105.961136
30
68.291382
70
192
0
VERTEX
8
GUN_TOP_BD
10
0
20
0
30
0
70
128
71
1
72
2
73
-3
0
VERTEX
8
GUN_TOP_BD
10
0
20
0
30
0
70
128
71
-1
72
3
73
4
0
VERTEX
8
GUN_TOP_BD
10
0
20
0
30
0
70
128
71
2
72
6
73
-7
0
VERTEX
8
GUN_TOP_BD
10
0
20
0
30
0
70
128
71
-2
72
7
73
3
0
VERTEX
8
GUN_TOP_BD
10
0
20
0
30
0
70
128
71
3
72
7
73
-8
0
VERTEX
8
GUN_TOP_BD
10
0
20
0
30
0
70
128
71
-3
72
8
73
4
0
VERTEX
8
GUN_TOP_BD
10
0
20
0
30
0
70
128
71
4
72
8
73
-5
0
VERTEX
8
GUN_TOP_BD
10
0
20
0
30
0
70
128
71
-4
72
5
73
1
0
VERTEX
8
GUN_TOP_BD
10
0
20
0
30
0
70
128
71
5
72
8
73
-7
0
VERTEX
8
GUN_TOP_BD
10
0
20
0
30
0
70
128
71
-5
72
7
73
6
0
VERTEX
8
GUN_TOP_BD
10
0
20
0
30
0
70
128
71
9
72
10
73
-13
0
VERTEX
8
GUN_TOP_BD
10
0
20
0
30
0
70
128
71
-9
72
13
73
12
0
VERTEX
8
GUN_TOP_BD
10
0
20
0
30
0
70
128
71
10
72
11
73
-14
0
VERTEX
8
GUN_TOP_BD
10
0
20
0
30
0
70
128
71
-10
72
14
73
13
0
VERTEX
8
GUN_TOP_BD
10
0
20
0
30
0
70
128
71
15
72
16
73
-19
0
VERTEX
8
GUN_TOP_BD
10
0
20
0
30
0
70
128
71
-15
72
19
73
18
0
VERTEX
8
GUN_TOP_BD
10
0
20
0
30
0
70
128
71
16
72
17
73
-20
0
VERTEX
8
GUN_TOP_BD
10
0
20
0
30
0
70
128
71
-16
72
20
73
19
0
VERTEX
8
GUN_TOP_BD
10
0
20
0
30
0
70
128
71
21
72
22
73
-25
0
VERTEX
8
GUN_TOP_BD
10
0
20
0
30
0
70
128
71
-21
72
25
73
24
0
VERTEX
8
GUN_TOP_BD
10
0
20
0
30
0
70
128
71
22
72
23
73
-26
0
VERTEX
8
GUN_TOP_BD
10
0
20
0
30
0
70
128
71
-22
72
26
73
25
0
SEQEND
8
GUN_TOP_BD
0
ENDSEC
0
EOF
