0
SECTION
2
HEADER
9
$ACADVER
1
AC1008
9
$UCSORG
10
0.0
20
0.0
30
0.0
9
$UCSXDIR
10
1.0
20
0.0
30
0.0
9
$TILEMODE
70
1
9
$UCSYDIR
10
0.0
20
1.0
30
0.0
9
$EXTMIN
10
42.312141
20
-63.435429
30
30.000000
9
$EXTMAX
10
236.208862
20
95.561653
30
200.000000
0
ENDSEC
0
SECTION
2
TABLES
0
TABLE
2
LTYPE
70
1
0
LTYPE
2
CONTINUOUS
70
64
3
Solid line
72
65
73
0
40
0.0
0
ENDTAB
0
TABLE
2
LAYER
70
5
0
LAYER
2
BODY
70
0
62
4
6
CONTINUOUS
0
LAYER
2
BODY02
70
0
62
5
6
CONTINUOUS
0
LAYER
2
BODY03
70
0
62
6
6
CONTINUOUS
0
LAYER
2
BODY04
70
0
62
7
6
CONTINUOUS
0
LAYER
2
BODY05
70
0
62
8
6
CONTINUOUS
0
LAYER
2
0
70
0
62
7
6
CONTINUOUS
0
ENDTAB
0
TABLE
2
STYLE
70
1
0
STYLE
2
STANDARD
70
0
40
0.0
41
1.0
50
0.0
71
0
42
0.2
3
txt
4

0
ENDTAB
0
TABLE
2
UCS
70
0
0
ENDTAB
0
ENDSEC
0
SECTION
2
ENTITIES
0
POLYLINE
8
BODY
66
1
70
64
71
7
72
5
0
VERTEX
8
BODY
10
236.208847
20
46.564583
30
180.000000
70
192
0
VERTEX
8
BODY
10
236.208847
20
6.564579
30
200.000000
70
192
0
VERTEX
8
BODY
10
236.208847
20
6.564579
30
70.000000
70
192
0
VERTEX
8
BODY
10
236.208862
20
-63.435429
30
70.000000
70
192
0
VERTEX
8
BODY
10
236.208862
20
-63.435429
30
40.000000
70
192
0
VERTEX
8
BODY
10
236.208847
20
26.564577
30
30.000000
70
192
0
VERTEX
8
BODY
10
236.208847
20
46.564583
30
50.000000
70
192
0
VERTEX
8
BODY
10
0
20
0
30
0
70
128
71
1
72
2
73
-3
0
VERTEX
8
BODY
10
0
20
0
30
0
70
128
71
7
72
-1
73
-3
0
VERTEX
8
BODY
10
0
20
0
30
0
70
128
71
6
72
-7
73
-3
0
VERTEX
8
BODY
10
0
20
0
30
0
70
128
71
5
72
-6
73
-3
0
VERTEX
8
BODY
10
0
20
0
30
0
70
128
71
-5
72
3
73
4
0
SEQEND
8
BODY
0
POLYLINE
8
BODY02
66
1
70
64
71
4
72
2
0
VERTEX
8
BODY02
10
205.686371
20
95.561653
30
185.693237
70
192
0
VERTEX
8
BODY02
10
205.686371
20
20.561651
30
185.693237
70
192
0
VERTEX
8
BODY02
10
205.686371
20
20.561651
30
135.693237
70
192
0
VERTEX
8
BODY02
10
205.686371
20
85.561646
30
135.693237
70
192
0
VERTEX
8
BODY02
10
0
20
0
30
0
70
128
71
2
72
1
73
-4
0
VERTEX
8
BODY02
10
0
20
0
30
0
70
128
71
-2
72
4
73
3
0
SEQEND
8
BODY02
0
POLYLINE
8
BODY03
66
1
70
64
71
7
72
5
0
VERTEX
8
BODY03
10
42.334423
20
46.564575
30
180.000000
70
192
0
VERTEX
8
BODY03
10
42.334423
20
6.564579
30
200.000000
70
192
0
VERTEX
8
BODY03
10
42.334423
20
6.564579
30
70.000000
70
192
0
VERTEX
8
BODY03
10
42.334404
20
-63.435429
30
70.000000
70
192
0
VERTEX
8
BODY03
10
42.334404
20
-63.435429
30
40.000000
70
192
0
VERTEX
8
BODY03
10
42.334423
20
26.564577
30
30.000000
70
192
0
VERTEX
8
BODY03
10
42.334423
20
46.564575
30
50.000000
70
192
0
VERTEX
8
BODY03
10
0
20
0
30
0
70
128
71
3
72
2
73
-1
0
VERTEX
8
BODY03
10
0
20
0
30
0
70
128
71
-3
72
1
73
-7
0
VERTEX
8
BODY03
10
0
20
0
30
0
70
128
71
-3
72
7
73
-6
0
VERTEX
8
BODY03
10
0
20
0
30
0
70
128
71
-3
72
6
73
-5
0
VERTEX
8
BODY03
10
0
20
0
30
0
70
128
71
4
72
-3
73
5
0
SEQEND
8
BODY03
0
POLYLINE
8
BODY04
66
1
70
64
71
4
72
2
0
VERTEX
8
BODY04
10
71.641922
20
95.561638
30
185.693237
70
192
0
VERTEX
8
BODY04
10
71.641914
20
20.561636
30
185.693237
70
192
0
VERTEX
8
BODY04
10
71.641914
20
20.561636
30
135.693237
70
192
0
VERTEX
8
BODY04
10
71.641922
20
85.561630
30
135.693237
70
192
0
VERTEX
8
BODY04
10
0
20
0
30
0
70
128
71
4
72
1
73
-2
0
VERTEX
8
BODY04
10
0
20
0
30
0
70
128
71
3
72
-4
73
2
0
SEQEND
8
BODY04
0
POLYLINE
8
BODY05
66
1
70
64
71
4
72
2
0
VERTEX
8
BODY05
10
42.312141
20
20.525694
30
136.333176
70
192
0
VERTEX
8
BODY05
10
59.004585
20
20.525698
30
186.410553
70
192
0
VERTEX
8
BODY05
10
219.493942
20
20.525698
30
186.410553
70
192
0
VERTEX
8
BODY05
10
236.186386
20
20.525694
30
136.333176
70
192
0
VERTEX
8
BODY05
10
0
20
0
30
0
70
128
71
1
72
4
73
-3
0
VERTEX
8
BODY05
10
0
20
0
30
0
70
128
71
-1
72
3
73
2
0
SEQEND
8
BODY05
0
ENDSEC
0
EOF
