0
SECTION
2
HEADER
9
$ACADVER
1
AC1008
9
$UCSORG
10
0.0
20
0.0
30
0.0
9
$UCSXDIR
10
1.0
20
0.0
30
0.0
9
$TILEMODE
70
1
9
$UCSYDIR
10
0.0
20
1.0
30
0.0
9
$EXTMIN
10
-328.065399
20
-381.558075
30
-294.162750
9
$EXTMAX
10
457.869659
20
110.833565
30
239.836487
0
ENDSEC
0
SECTION
2
TABLES
0
TABLE
2
LTYPE
70
1
0
LTYPE
2
CONTINUOUS
70
64
3
Solid line
72
65
73
0
40
0.0
0
ENDTAB
0
TABLE
2
LAYER
70
3
0
LAYER
2
PYRIMID
70
0
62
1
6
CONTINUOUS
0
LAYER
2
GLOBE
70
0
62
2
6
CONTINUOUS
0
LAYER
2
ARM
70
0
62
3
6
CONTINUOUS
0
LAYER
2
0
70
0
62
7
6
CONTINUOUS
0
ENDTAB
0
TABLE
2
STYLE
70
1
0
STYLE
2
STANDARD
70
0
40
0.0
41
1.0
50
0.0
71
0
42
0.2
3
txt
4

0
ENDTAB
0
TABLE
2
UCS
70
0
0
ENDTAB
0
ENDSEC
0
SECTION
2
ENTITIES
0
POLYLINE
8
PYRIMID
66
1
70
64
71
10
72
16
0
VERTEX
8
PYRIMID
10
-34.200726
20
-0.321193
30
239.836487
70
192
0
VERTEX
8
PYRIMID
10
-34.200726
20
0.321193
30
239.836487
70
192
0
VERTEX
8
PYRIMID
10
-34.843113
20
0.321193
30
239.836487
70
192
0
VERTEX
8
PYRIMID
10
-34.843113
20
-0.321193
30
239.836487
70
192
0
VERTEX
8
PYRIMID
10
76.311592
20
-110.833542
30
0.000000
70
192
0
VERTEX
8
PYRIMID
10
76.311607
20
110.833527
30
0.000000
70
192
0
VERTEX
8
PYRIMID
10
-145.355408
20
110.833565
30
0.000000
70
192
0
VERTEX
8
PYRIMID
10
-145.355515
20
-110.833458
30
0.000000
70
192
0
VERTEX
8
PYRIMID
10
-34.521919
20
0.000000
30
239.836487
70
192
0
VERTEX
8
PYRIMID
10
-34.521919
20
0.000000
30
0.000000
70
192
0
VERTEX
8
PYRIMID
10
0
20
0
30
0
70
128
71
1
72
-2
73
-9
0
VERTEX
8
PYRIMID
10
0
20
0
30
0
70
128
71
2
72
-3
73
-9
0
VERTEX
8
PYRIMID
10
0
20
0
30
0
70
128
71
3
72
-4
73
-9
0
VERTEX
8
PYRIMID
10
0
20
0
30
0
70
128
71
4
72
-1
73
-9
0
VERTEX
8
PYRIMID
10
0
20
0
30
0
70
128
71
1
72
5
73
-6
0
VERTEX
8
PYRIMID
10
0
20
0
30
0
70
128
71
-1
72
6
73
2
0
VERTEX
8
PYRIMID
10
0
20
0
30
0
70
128
71
2
72
6
73
-7
0
VERTEX
8
PYRIMID
10
0
20
0
30
0
70
128
71
-2
72
7
73
3
0
VERTEX
8
PYRIMID
10
0
20
0
30
0
70
128
71
3
72
7
73
-8
0
VERTEX
8
PYRIMID
10
0
20
0
30
0
70
128
71
-3
72
8
73
4
0
VERTEX
8
PYRIMID
10
0
20
0
30
0
70
128
71
4
72
8
73
-5
0
VERTEX
8
PYRIMID
10
0
20
0
30
0
70
128
71
-4
72
5
73
1
0
VERTEX
8
PYRIMID
10
0
20
0
30
0
70
128
71
-5
72
-10
73
6
0
VERTEX
8
PYRIMID
10
0
20
0
30
0
70
128
71
-6
72
-10
73
7
0
VERTEX
8
PYRIMID
10
0
20
0
30
0
70
128
71
-7
72
-10
73
8
0
VERTEX
8
PYRIMID
10
0
20
0
30
0
70
128
71
-8
72
-10
73
5
0
SEQEND
8
PYRIMID
0
POLYLINE
8
GLOBE
66
1
70
64
71
26
72
48
0
VERTEX
8
GLOBE
10
297.978668
20
-221.667053
30
47.857941
70
192
0
VERTEX
8
GLOBE
10
411.038666
20
-265.349335
30
121.205215
70
192
0
VERTEX
8
GLOBE
10
408.812225
20
-172.609619
30
121.205215
70
192
0
VERTEX
8
GLOBE
10
341.660980
20
-108.607063
30
121.205215
70
192
0
VERTEX
8
GLOBE
10
248.921265
20
-110.833496
30
121.205215
70
192
0
VERTEX
8
GLOBE
10
184.918671
20
-177.984741
30
121.205215
70
192
0
VERTEX
8
GLOBE
10
187.145142
20
-270.724518
30
121.205215
70
192
0
VERTEX
8
GLOBE
10
254.296432
20
-334.727081
30
121.205215
70
192
0
VERTEX
8
GLOBE
10
347.036194
20
-332.500549
30
121.205215
70
192
0
VERTEX
8
GLOBE
10
457.869659
20
-283.443146
30
-0.000007
70
192
0
VERTEX
8
GLOBE
10
454.720978
20
-152.289368
30
-0.000007
70
192
0
VERTEX
8
GLOBE
10
359.754791
20
-61.776093
30
-0.000007
70
192
0
VERTEX
8
GLOBE
10
228.601028
20
-64.924736
30
-0.000007
70
192
0
VERTEX
8
GLOBE
10
138.087692
20
-159.890945
30
-0.000007
70
192
0
VERTEX
8
GLOBE
10
141.236389
20
-291.044800
30
-0.000007
70
192
0
VERTEX
8
GLOBE
10
236.202667
20
-381.558075
30
-0.000007
70
192
0
VERTEX
8
GLOBE
10
367.356506
20
-378.409271
30
-0.000007
70
192
0
VERTEX
8
GLOBE
10
411.038666
20
-265.349335
30
-121.205223
70
192
0
VERTEX
8
GLOBE
10
408.812195
20
-172.609619
30
-121.205223
70
192
0
VERTEX
8
GLOBE
10
341.660980
20
-108.607071
30
-121.205223
70
192
0
VERTEX
8
GLOBE
10
248.921280
20
-110.833504
30
-121.205223
70
192
0
VERTEX
8
GLOBE
10
184.918686
20
-177.984741
30
-121.205223
70
192
0
VERTEX
8
GLOBE
10
187.145142
20
-270.724518
30
-121.205223
70
192
0
VERTEX
8
GLOBE
10
254.296432
20
-334.727081
30
-121.205223
70
192
0
VERTEX
8
GLOBE
10
347.036194
20
-332.500549
30
-121.205223
70
192
0
VERTEX
8
GLOBE
10
297.978668
20
-221.667053
30
-171.410065
70
192
0
VERTEX
8
GLOBE
10
0
20
0
30
0
70
128
71
1
72
2
73
3
0
VERTEX
8
GLOBE
10
0
20
0
30
0
70
128
71
1
72
3
73
4
0
VERTEX
8
GLOBE
10
0
20
0
30
0
70
128
71
1
72
4
73
5
0
VERTEX
8
GLOBE
10
0
20
0
30
0
70
128
71
1
72
5
73
6
0
VERTEX
8
GLOBE
10
0
20
0
30
0
70
128
71
1
72
6
73
7
0
VERTEX
8
GLOBE
10
0
20
0
30
0
70
128
71
1
72
7
73
8
0
VERTEX
8
GLOBE
10
0
20
0
30
0
70
128
71
1
72
8
73
9
0
VERTEX
8
GLOBE
10
0
20
0
30
0
70
128
71
1
72
9
73
2
0
VERTEX
8
GLOBE
10
0
20
0
30
0
70
128
71
2
72
10
73
-11
0
VERTEX
8
GLOBE
10
0
20
0
30
0
70
128
71
-2
72
11
73
3
0
VERTEX
8
GLOBE
10
0
20
0
30
0
70
128
71
3
72
11
73
-12
0
VERTEX
8
GLOBE
10
0
20
0
30
0
70
128
71
-3
72
12
73
4
0
VERTEX
8
GLOBE
10
0
20
0
30
0
70
128
71
4
72
12
73
-13
0
VERTEX
8
GLOBE
10
0
20
0
30
0
70
128
71
-4
72
13
73
5
0
VERTEX
8
GLOBE
10
0
20
0
30
0
70
128
71
5
72
13
73
-14
0
VERTEX
8
GLOBE
10
0
20
0
30
0
70
128
71
-5
72
14
73
6
0
VERTEX
8
GLOBE
10
0
20
0
30
0
70
128
71
6
72
14
73
-15
0
VERTEX
8
GLOBE
10
0
20
0
30
0
70
128
71
-6
72
15
73
7
0
VERTEX
8
GLOBE
10
0
20
0
30
0
70
128
71
7
72
15
73
-16
0
VERTEX
8
GLOBE
10
0
20
0
30
0
70
128
71
-7
72
16
73
8
0
VERTEX
8
GLOBE
10
0
20
0
30
0
70
128
71
8
72
16
73
-17
0
VERTEX
8
GLOBE
10
0
20
0
30
0
70
128
71
-8
72
17
73
9
0
VERTEX
8
GLOBE
10
0
20
0
30
0
70
128
71
9
72
17
73
-10
0
VERTEX
8
GLOBE
10
0
20
0
30
0
70
128
71
-9
72
10
73
2
0
VERTEX
8
GLOBE
10
0
20
0
30
0
70
128
71
10
72
18
73
-19
0
VERTEX
8
GLOBE
10
0
20
0
30
0
70
128
71
-10
72
19
73
11
0
VERTEX
8
GLOBE
10
0
20
0
30
0
70
128
71
11
72
19
73
-20
0
VERTEX
8
GLOBE
10
0
20
0
30
0
70
128
71
-11
72
20
73
12
0
VERTEX
8
GLOBE
10
0
20
0
30
0
70
128
71
12
72
20
73
-21
0
VERTEX
8
GLOBE
10
0
20
0
30
0
70
128
71
-12
72
21
73
13
0
VERTEX
8
GLOBE
10
0
20
0
30
0
70
128
71
13
72
21
73
-22
0
VERTEX
8
GLOBE
10
0
20
0
30
0
70
128
71
-13
72
22
73
14
0
VERTEX
8
GLOBE
10
0
20
0
30
0
70
128
71
14
72
22
73
-23
0
VERTEX
8
GLOBE
10
0
20
0
30
0
70
128
71
-14
72
23
73
15
0
VERTEX
8
GLOBE
10
0
20
0
30
0
70
128
71
15
72
23
73
-24
0
VERTEX
8
GLOBE
10
0
20
0
30
0
70
128
71
-15
72
24
73
16
0
VERTEX
8
GLOBE
10
0
20
0
30
0
70
128
71
16
72
24
73
-25
0
VERTEX
8
GLOBE
10
0
20
0
30
0
70
128
71
-16
72
25
73
17
0
VERTEX
8
GLOBE
10
0
20
0
30
0
70
128
71
17
72
25
73
-18
0
VERTEX
8
GLOBE
10
0
20
0
30
0
70
128
71
-17
72
18
73
10
0
VERTEX
8
GLOBE
10
0
20
0
30
0
70
128
71
26
72
25
73
24
0
VERTEX
8
GLOBE
10
0
20
0
30
0
70
128
71
26
72
24
73
23
0
VERTEX
8
GLOBE
10
0
20
0
30
0
70
128
71
26
72
23
73
22
0
VERTEX
8
GLOBE
10
0
20
0
30
0
70
128
71
26
72
22
73
21
0
VERTEX
8
GLOBE
10
0
20
0
30
0
70
128
71
26
72
21
73
20
0
VERTEX
8
GLOBE
10
0
20
0
30
0
70
128
71
26
72
20
73
19
0
VERTEX
8
GLOBE
10
0
20
0
30
0
70
128
71
26
72
19
73
18
0
VERTEX
8
GLOBE
10
0
20
0
30
0
70
128
71
26
72
18
73
25
0
SEQEND
8
GLOBE
0
POLYLINE
8
ARM
66
1
70
64
71
24
72
44
0
VERTEX
8
ARM
10
-288.409088
20
-0.000012
30
-101.168686
70
192
0
VERTEX
8
ARM
10
-260.209045
20
-0.000018
30
-76.493652
70
192
0
VERTEX
8
ARM
10
-235.534012
20
-0.000019
30
-78.256149
70
192
0
VERTEX
8
ARM
10
-213.502716
20
-0.000013
30
-120.556229
70
192
0
VERTEX
8
ARM
10
-251.396530
20
0.000003
30
-204.275101
70
192
0
VERTEX
8
ARM
10
-246.990280
20
0.000008
30
-236.000153
70
192
0
VERTEX
8
ARM
10
-194.115204
20
0.000009
30
-261.556458
70
192
0
VERTEX
8
ARM
10
-187.946442
20
0.000013
30
-283.587708
70
192
0
VERTEX
8
ARM
10
-214.383972
20
0.000016
30
-294.162750
70
192
0
VERTEX
8
ARM
10
-317.490387
20
0.000014
30
-255.387695
70
192
0
VERTEX
8
ARM
10
-328.065399
20
0.000013
30
-245.693909
70
192
0
VERTEX
8
ARM
10
-321.015381
20
0.000010
30
-227.187637
70
192
0
VERTEX
8
ARM
10
-288.409088
20
17.594212
30
-101.168686
70
192
0
VERTEX
8
ARM
10
-260.209045
20
17.594206
30
-76.493652
70
192
0
VERTEX
8
ARM
10
-235.534012
20
17.594204
30
-78.256149
70
192
0
VERTEX
8
ARM
10
-213.502716
20
17.594210
30
-120.556229
70
192
0
VERTEX
8
ARM
10
-251.396530
20
17.594225
30
-204.275101
70
192
0
VERTEX
8
ARM
10
-246.990280
20
17.594231
30
-236.000153
70
192
0
VERTEX
8
ARM
10
-194.115204
20
17.594233
30
-261.556458
70
192
0
VERTEX
8
ARM
10
-187.946442
20
17.594236
30
-283.587708
70
192
0
VERTEX
8
ARM
10
-214.383972
20
17.594238
30
-294.162750
70
192
0
VERTEX
8
ARM
10
-317.490387
20
17.594238
30
-255.387695
70
192
0
VERTEX
8
ARM
10
-328.065399
20
17.594236
30
-245.693909
70
192
0
VERTEX
8
ARM
10
-321.015381
20
17.594233
30
-227.187637
70
192
0
VERTEX
8
ARM
10
0
20
0
30
0
70
128
71
9
72
8
73
-7
0
VERTEX
8
ARM
10
0
20
0
30
0
70
128
71
-9
72
7
73
-6
0
VERTEX
8
ARM
10
0
20
0
30
0
70
128
71
10
72
-9
73
-6
0
VERTEX
8
ARM
10
0
20
0
30
0
70
128
71
-10
72
6
73
-5
0
VERTEX
8
ARM
10
0
20
0
30
0
70
128
71
11
72
-10
73
-5
0
VERTEX
8
ARM
10
0
20
0
30
0
70
128
71
12
72
-11
73
-5
0
VERTEX
8
ARM
10
0
20
0
30
0
70
128
71
1
72
-12
73
-5
0
VERTEX
8
ARM
10
0
20
0
30
0
70
128
71
-1
72
5
73
-4
0
VERTEX
8
ARM
10
0
20
0
30
0
70
128
71
-1
72
4
73
-3
0
VERTEX
8
ARM
10
0
20
0
30
0
70
128
71
2
72
-1
73
3
0
VERTEX
8
ARM
10
0
20
0
30
0
70
128
71
1
72
2
73
-14
0
VERTEX
8
ARM
10
0
20
0
30
0
70
128
71
-1
72
14
73
13
0
VERTEX
8
ARM
10
0
20
0
30
0
70
128
71
2
72
3
73
-15
0
VERTEX
8
ARM
10
0
20
0
30
0
70
128
71
-2
72
15
73
14
0
VERTEX
8
ARM
10
0
20
0
30
0
70
128
71
3
72
4
73
-16
0
VERTEX
8
ARM
10
0
20
0
30
0
70
128
71
-3
72
16
73
15
0
VERTEX
8
ARM
10
0
20
0
30
0
70
128
71
4
72
5
73
-17
0
VERTEX
8
ARM
10
0
20
0
30
0
70
128
71
-4
72
17
73
16
0
VERTEX
8
ARM
10
0
20
0
30
0
70
128
71
5
72
6
73
-18
0
VERTEX
8
ARM
10
0
20
0
30
0
70
128
71
-5
72
18
73
17
0
VERTEX
8
ARM
10
0
20
0
30
0
70
128
71
6
72
7
73
-19
0
VERTEX
8
ARM
10
0
20
0
30
0
70
128
71
-6
72
19
73
18
0
VERTEX
8
ARM
10
0
20
0
30
0
70
128
71
7
72
8
73
-20
0
VERTEX
8
ARM
10
0
20
0
30
0
70
128
71
-7
72
20
73
19
0
VERTEX
8
ARM
10
0
20
0
30
0
70
128
71
8
72
9
73
-21
0
VERTEX
8
ARM
10
0
20
0
30
0
70
128
71
-8
72
21
73
20
0
VERTEX
8
ARM
10
0
20
0
30
0
70
128
71
9
72
10
73
-22
0
VERTEX
8
ARM
10
0
20
0
30
0
70
128
71
-9
72
22
73
21
0
VERTEX
8
ARM
10
0
20
0
30
0
70
128
71
10
72
11
73
-23
0
VERTEX
8
ARM
10
0
20
0
30
0
70
128
71
-10
72
23
73
22
0
VERTEX
8
ARM
10
0
20
0
30
0
70
128
71
11
72
12
73
-24
0
VERTEX
8
ARM
10
0
20
0
30
0
70
128
71
-11
72
24
73
23
0
VERTEX
8
ARM
10
0
20
0
30
0
70
128
71
12
72
1
73
-13
0
VERTEX
8
ARM
10
0
20
0
30
0
70
128
71
-12
72
13
73
24
0
VERTEX
8
ARM
10
0
20
0
30
0
70
128
71
19
72
20
73
-21
0
VERTEX
8
ARM
10
0
20
0
30
0
70
128
71
18
72
-19
73
-21
0
VERTEX
8
ARM
10
0
20
0
30
0
70
128
71
-18
72
21
73
-22
0
VERTEX
8
ARM
10
0
20
0
30
0
70
128
71
17
72
-18
73
-22
0
VERTEX
8
ARM
10
0
20
0
30
0
70
128
71
-17
72
22
73
-23
0
VERTEX
8
ARM
10
0
20
0
30
0
70
128
71
-17
72
23
73
-24
0
VERTEX
8
ARM
10
0
20
0
30
0
70
128
71
-17
72
24
73
-13
0
VERTEX
8
ARM
10
0
20
0
30
0
70
128
71
16
72
-17
73
-13
0
VERTEX
8
ARM
10
0
20
0
30
0
70
128
71
15
72
-16
73
-13
0
VERTEX
8
ARM
10
0
20
0
30
0
70
128
71
-15
72
13
73
14
0
SEQEND
8
ARM
0
ENDSEC
0
EOF
